  0
SECTION
  2
HEADER
  9
$ACADVER
  1
AC1009
  9
$FILLMODE
 70
 0
  9
$SPLFRAME
 70
 1
  9
$EXTMIN
 10
0
 20
0
 30
0.0
  9
$EXTMAX
 10
41.6667
 20
41.6667
 30
0.0
  0
ENDSEC
  0
SECTION
  2
TABLES
  0
TABLE
  2
LAYER
 70
1
  0
LAYER
  2
0
 70
     0
 62
     7
  6
CONTINUOUS
  0
ENDTAB
  0
ENDSEC
  0
SECTION
  2
ENTITIES
  0
POLYLINE
  8
0
 62
     13
 66
     1
 10
0
 20
0
 30
0.0
 40
0.432
 41
0.432
  0
VERTEX
  8
0
 10
0.703017
 20
0.00309244
 30
0.0
 40
0.006
 41
0.006
  0
VERTEX
  8
0
 10
0.00303819
 20
0.00309244
 30
0.0
 40
0.006
 41
0.006
  0
SEQEND
 8
0
  0
POLYLINE
  8
0
 62
     13
 66
     1
 10
0
 20
0
 30
0.0
 40
0.432
 41
0.432
  0
VERTEX
  8
0
 10
0.543024
 20
0.22309
 30
0.0
 40
0.006
 41
0.006
  0
VERTEX
  8
0
 10
0.573025
 20
0.193087
 30
0.0
 40
0.006
 41
0.006
  0
SEQEND
 8
0
  0
POLYLINE
  8
0
 62
     13
 66
     1
 10
0
 20
0
 30
0.0
 40
0.432
 41
0.432
  0
VERTEX
  8
0
 10
0.573025
 20
0.193087
 30
0.0
 40
0.006
 41
0.006
  0
VERTEX
  8
0
 10
0.603028
 20
0.193087
 30
0.0
 40
0.006
 41
0.006
  0
SEQEND
 8
0
  0
POLYLINE
  8
0
 62
     13
 66
     1
 10
0
 20
0
 30
0.0
 40
0.432
 41
0.432
  0
VERTEX
  8
0
 10
0.643013
 20
0.153103
 30
0.0
 40
0.006
 41
0.006
  0
VERTEX
  8
0
 10
0.603028
 20
0.193087
 30
0.0
 40
0.006
 41
0.006
  0
SEQEND
 8
0
  0
POLYLINE
  8
0
 62
     13
 66
     1
 10
0
 20
0
 30
0.0
 40
0.432
 41
0.432
  0
VERTEX
  8
0
 10
0.793024
 20
0.233074
 30
0.0
 40
0.006
 41
0.006
  0
VERTEX
  8
0
 10
0.543024
 20
0.233074
 30
0.0
 40
0.006
 41
0.006
  0
SEQEND
 8
0
  0
POLYLINE
  8
0
 62
     13
 66
     1
 10
0
 20
0
 30
0.0
 40
0.432
 41
0.432
  0
VERTEX
  8
0
 10
0.543024
 20
0.233074
 30
0.0
 40
0.006
 41
0.006
  0
VERTEX
  8
0
 10
0.543024
 20
0.22309
 30
0.0
 40
0.006
 41
0.006
  0
SEQEND
 8
0
  0
POLYLINE
  8
0
 62
     13
 66
     1
 10
0
 20
0
 30
0.0
 40
0.432
 41
0.432
  0
VERTEX
  8
0
 10
0.00303819
 20
0.00309244
 30
0.0
 40
0.006
 41
0.006
  0
VERTEX
  8
0
 10
0.00303819
 20
0.483074
 30
0.0
 40
0.006
 41
0.006
  0
SEQEND
 8
0
  0
POLYLINE
  8
0
 62
     13
 66
     1
 10
0
 20
0
 30
0.0
 40
0.432
 41
0.432
  0
VERTEX
  8
0
 10
0.643013
 20
0.153103
 30
0.0
 40
0.006
 41
0.006
  0
VERTEX
  8
0
 10
0.643013
 20
0.103082
 30
0.0
 40
0.006
 41
0.006
  0
SEQEND
 8
0
  0
POLYLINE
  8
0
 62
     13
 66
     1
 10
0
 20
0
 30
0.0
 40
0.432
 41
0.432
  0
VERTEX
  8
0
 10
0.643013
 20
0.103082
 30
0.0
 40
0.006
 41
0.006
  0
VERTEX
  8
0
 10
0.652994
 20
0.093099
 30
0.0
 40
0.006
 41
0.006
  0
SEQEND
 8
0
  0
POLYLINE
  8
0
 62
     13
 66
     1
 10
0
 20
0
 30
0.0
 40
0.432
 41
0.432
  0
VERTEX
  8
0
 10
0.652994
 20
0.093099
 30
0.0
 40
0.006
 41
0.006
  0
VERTEX
  8
0
 10
0.703017
 20
0.093099
 30
0.0
 40
0.006
 41
0.006
  0
SEQEND
 8
0
  0
POLYLINE
  8
0
 62
     13
 66
     1
 10
0
 20
0
 30
0.0
 40
0.432
 41
0.432
  0
VERTEX
  8
0
 10
0.703017
 20
0.093099
 30
0.0
 40
0.006
 41
0.006
  0
VERTEX
  8
0
 10
0.703017
 20
0.00309244
 30
0.0
 40
0.006
 41
0.006
  0
SEQEND
 8
0
  0
POLYLINE
  8
0
 62
     13
 66
     1
 10
0
 20
0
 30
0.0
 40
0.432
 41
0.432
  0
VERTEX
  8
0
 10
0.00303819
 20
0.483074
 30
0.0
 40
0.006
 41
0.006
  0
VERTEX
  8
0
 10
0.793024
 20
0.483074
 30
0.0
 40
0.006
 41
0.006
  0
SEQEND
 8
0
  0
POLYLINE
  8
0
 62
     13
 66
     1
 10
0
 20
0
 30
0.0
 40
0.432
 41
0.432
  0
VERTEX
  8
0
 10
0.793024
 20
0.483074
 30
0.0
 40
0.006
 41
0.006
  0
VERTEX
  8
0
 10
0.793024
 20
0.233074
 30
0.0
 40
0.006
 41
0.006
  0
SEQEND
 8
0
  0
POLYLINE
  8
0
 62
     173
 66
     1
 10
0
 20
0
 30
0.0
 70
     1
 40
0
 41
0
  0
VERTEX
  8
0
 10
0.490506
 20
0.413086
 30
0.0
 40
0
 41
0
  0
VERTEX
  8
0
 10
0.490506
 20
0.414387
 30
0.0
 40
0
 41
0
  0
VERTEX
  8
0
 10
0.485514
 20
0.418132
 30
0.0
 40
0
 41
0
  0
VERTEX
  8
0
 10
0.480524
 20
0.414387
 30
0.0
 40
0
 41
0
  0
VERTEX
  8
0
 10
0.480524
 20
0.413086
 30
0.0
 40
0
 41
0
  0
VERTEX
  8
0
 10
0.480524
 20
0.411838
 30
0.0
 40
0
 41
0
  0
VERTEX
  8
0
 10
0.485514
 20
0.408094
 30
0.0
 40
0
 41
0
  0
VERTEX
  8
0
 10
0.490506
 20
0.411838
 30
0.0
 40
0
 41
0
  0
VERTEX
  8
0
 10
0.490506
 20
0.413086
 30
0.0
 40
0
 41
0
  0
SEQEND
 8
0
  0
POLYLINE
  8
0
 62
     173
 66
     1
 10
0
 20
0
 30
0.0
 70
     1
 40
0
 41
0
  0
VERTEX
  8
0
 10
0.505533
 20
0.338053
 30
0.0
 40
0
 41
0
  0
VERTEX
  8
0
 10
0.505533
 20
0.339356
 30
0.0
 40
0
 41
0
  0
VERTEX
  8
0
 10
0.500489
 20
0.343099
 30
0.0
 40
0
 41
0
  0
VERTEX
  8
0
 10
0.495497
 20
0.339356
 30
0.0
 40
0
 41
0
  0
VERTEX
  8
0
 10
0.495497
 20
0.338053
 30
0.0
 40
0
 41
0
  0
VERTEX
  8
0
 10
0.495497
 20
0.33686
 30
0.0
 40
0
 41
0
  0
VERTEX
  8
0
 10
0.500489
 20
0.333117
 30
0.0
 40
0
 41
0
  0
VERTEX
  8
0
 10
0.505533
 20
0.33686
 30
0.0
 40
0
 41
0
  0
VERTEX
  8
0
 10
0.505533
 20
0.338053
 30
0.0
 40
0
 41
0
  0
SEQEND
 8
0
  0
POLYLINE
  8
0
 62
     173
 66
     1
 10
0
 20
0
 30
0.0
 70
     1
 40
0
 41
0
  0
VERTEX
  8
0
 10
0.515517
 20
0.118056
 30
0.0
 40
0
 41
0
  0
VERTEX
  8
0
 10
0.515517
 20
0.119358
 30
0.0
 40
0
 41
0
  0
VERTEX
  8
0
 10
0.510525
 20
0.123101
 30
0.0
 40
0
 41
0
  0
VERTEX
  8
0
 10
0.505533
 20
0.119358
 30
0.0
 40
0
 41
0
  0
VERTEX
  8
0
 10
0.505533
 20
0.118056
 30
0.0
 40
0
 41
0
  0
VERTEX
  8
0
 10
0.505533
 20
0.116862
 30
0.0
 40
0
 41
0
  0
VERTEX
  8
0
 10
0.510525
 20
0.113118
 30
0.0
 40
0
 41
0
  0
VERTEX
  8
0
 10
0.515517
 20
0.116862
 30
0.0
 40
0
 41
0
  0
VERTEX
  8
0
 10
0.515517
 20
0.118056
 30
0.0
 40
0
 41
0
  0
SEQEND
 8
0
  0
POLYLINE
  8
0
 62
     173
 66
     1
 10
0
 20
0
 30
0.0
 70
     1
 40
0
 41
0
  0
VERTEX
  8
0
 10
0.522136
 20
0.0396593
 30
0.0
 40
0
 41
0
  0
VERTEX
  8
0
 10
0.522136
 20
0.0409614
 30
0.0
 40
0
 41
0
  0
VERTEX
  8
0
 10
0.51709
 20
0.0447049
 30
0.0
 40
0
 41
0
  0
VERTEX
  8
0
 10
0.512099
 20
0.0409614
 30
0.0
 40
0
 41
0
  0
VERTEX
  8
0
 10
0.512099
 20
0.0396593
 30
0.0
 40
0
 41
0
  0
VERTEX
  8
0
 10
0.512099
 20
0.0384115
 30
0.0
 40
0
 41
0
  0
VERTEX
  8
0
 10
0.51709
 20
0.0346679
 30
0.0
 40
0
 41
0
  0
VERTEX
  8
0
 10
0.522136
 20
0.0384115
 30
0.0
 40
0
 41
0
  0
VERTEX
  8
0
 10
0.522136
 20
0.0396593
 30
0.0
 40
0
 41
0
  0
SEQEND
 8
0
  0
POLYLINE
  8
0
 62
     173
 66
     1
 10
0
 20
0
 30
0.0
 70
     1
 40
0
 41
0
  0
VERTEX
  8
0
 10
0.600532
 20
0.298068
 30
0.0
 40
0
 41
0
  0
VERTEX
  8
0
 10
0.600532
 20
0.299371
 30
0.0
 40
0
 41
0
  0
VERTEX
  8
0
 10
0.595486
 20
0.303114
 30
0.0
 40
0
 41
0
  0
VERTEX
  8
0
 10
0.590494
 20
0.299371
 30
0.0
 40
0
 41
0
  0
VERTEX
  8
0
 10
0.590494
 20
0.298068
 30
0.0
 40
0
 41
0
  0
VERTEX
  8
0
 10
0.590494
 20
0.296821
 30
0.0
 40
0
 41
0
  0
VERTEX
  8
0
 10
0.595486
 20
0.293078
 30
0.0
 40
0
 41
0
  0
VERTEX
  8
0
 10
0.600532
 20
0.296821
 30
0.0
 40
0
 41
0
  0
VERTEX
  8
0
 10
0.600532
 20
0.298068
 30
0.0
 40
0
 41
0
  0
SEQEND
 8
0
  0
POLYLINE
  8
0
 62
     173
 66
     1
 10
0
 20
0
 30
0.0
 70
     1
 40
0
 41
0
  0
VERTEX
  8
0
 10
0.600532
 20
0.258083
 30
0.0
 40
0
 41
0
  0
VERTEX
  8
0
 10
0.600532
 20
0.259386
 30
0.0
 40
0
 41
0
  0
VERTEX
  8
0
 10
0.595486
 20
0.263129
 30
0.0
 40
0
 41
0
  0
VERTEX
  8
0
 10
0.590494
 20
0.259386
 30
0.0
 40
0
 41
0
  0
VERTEX
  8
0
 10
0.590494
 20
0.258083
 30
0.0
 40
0
 41
0
  0
VERTEX
  8
0
 10
0.590494
 20
0.256836
 30
0.0
 40
0
 41
0
  0
VERTEX
  8
0
 10
0.595486
 20
0.253093
 30
0.0
 40
0
 41
0
  0
VERTEX
  8
0
 10
0.600532
 20
0.256836
 30
0.0
 40
0
 41
0
  0
VERTEX
  8
0
 10
0.600532
 20
0.258083
 30
0.0
 40
0
 41
0
  0
SEQEND
 8
0
  0
ENDSEC
  0
EOF
