<?xml version="1.0" encoding="UTF-8"?>
<svg xmlns="http://www.w3.org/2000/svg" xmlns:xlink="http://www.w3.org/1999/xlink" width="60pt" height="36pt" viewBox="0 0 60 36" version="1.1">
<g id="surface1">
<path style="fill:none;stroke-width:0.006;stroke-linecap:round;stroke-linejoin:miter;stroke:rgb(100%,49.803922%,45.098039%);stroke-opacity:1;stroke-miterlimit:10;" d="M 0.707503 0.00501597 L 0.00752422 0.00501597 " transform="matrix(72,0,0,-72,1.1106,35.2674)"/>
<path style="fill:none;stroke-width:0.006;stroke-linecap:round;stroke-linejoin:miter;stroke:rgb(100%,49.803922%,45.098039%);stroke-opacity:1;stroke-miterlimit:10;" d="M 0.547509 0.225014 L 0.577511 0.195012 " transform="matrix(72,0,0,-72,1.1106,35.2674)"/>
<path style="fill:none;stroke-width:0.006;stroke-linecap:round;stroke-linejoin:miter;stroke:rgb(100%,49.803922%,45.098039%);stroke-opacity:1;stroke-miterlimit:10;" d="M 0.577511 0.195012 L 0.607513 0.195012 " transform="matrix(72,0,0,-72,1.1106,35.2674)"/>
<path style="fill:none;stroke-width:0.006;stroke-linecap:round;stroke-linejoin:miter;stroke:rgb(100%,49.803922%,45.098039%);stroke-opacity:1;stroke-miterlimit:10;" d="M 0.647498 0.155027 L 0.607513 0.195012 " transform="matrix(72,0,0,-72,1.1106,35.2674)"/>
<path style="fill:none;stroke-width:0.006;stroke-linecap:round;stroke-linejoin:miter;stroke:rgb(100%,49.803922%,45.098039%);stroke-opacity:1;stroke-miterlimit:10;" d="M 0.797509 0.234996 L 0.547509 0.234996 " transform="matrix(72,0,0,-72,1.1106,35.2674)"/>
<path style="fill:none;stroke-width:0.006;stroke-linecap:round;stroke-linejoin:miter;stroke:rgb(100%,49.803922%,45.098039%);stroke-opacity:1;stroke-miterlimit:10;" d="M 0.547509 0.234996 L 0.547509 0.225014 " transform="matrix(72,0,0,-72,1.1106,35.2674)"/>
<path style="fill:none;stroke-width:0.006;stroke-linecap:round;stroke-linejoin:miter;stroke:rgb(100%,49.803922%,45.098039%);stroke-opacity:1;stroke-miterlimit:10;" d="M 0.00752422 0.00501597 L 0.00752422 0.484996 " transform="matrix(72,0,0,-72,1.1106,35.2674)"/>
<path style="fill:none;stroke-width:0.006;stroke-linecap:round;stroke-linejoin:miter;stroke:rgb(100%,49.803922%,45.098039%);stroke-opacity:1;stroke-miterlimit:10;" d="M 0.647498 0.155027 L 0.647498 0.105005 " transform="matrix(72,0,0,-72,1.1106,35.2674)"/>
<path style="fill:none;stroke-width:0.006;stroke-linecap:round;stroke-linejoin:miter;stroke:rgb(100%,49.803922%,45.098039%);stroke-opacity:1;stroke-miterlimit:10;" d="M 0.647498 0.105005 L 0.657481 0.0950225 " transform="matrix(72,0,0,-72,1.1106,35.2674)"/>
<path style="fill:none;stroke-width:0.006;stroke-linecap:round;stroke-linejoin:miter;stroke:rgb(100%,49.803922%,45.098039%);stroke-opacity:1;stroke-miterlimit:10;" d="M 0.657481 0.0950225 L 0.707503 0.0950225 " transform="matrix(72,0,0,-72,1.1106,35.2674)"/>
<path style="fill:none;stroke-width:0.006;stroke-linecap:round;stroke-linejoin:miter;stroke:rgb(100%,49.803922%,45.098039%);stroke-opacity:1;stroke-miterlimit:10;" d="M 0.707503 0.0950225 L 0.707503 0.00501597 " transform="matrix(72,0,0,-72,1.1106,35.2674)"/>
<path style="fill:none;stroke-width:0.006;stroke-linecap:round;stroke-linejoin:miter;stroke:rgb(100%,49.803922%,45.098039%);stroke-opacity:1;stroke-miterlimit:10;" d="M 0.00752422 0.484996 L 0.797509 0.484996 " transform="matrix(72,0,0,-72,1.1106,35.2674)"/>
<path style="fill:none;stroke-width:0.006;stroke-linecap:round;stroke-linejoin:miter;stroke:rgb(100%,49.803922%,45.098039%);stroke-opacity:1;stroke-miterlimit:10;" d="M 0.797509 0.484996 L 0.797509 0.234996 " transform="matrix(72,0,0,-72,1.1106,35.2674)"/>
<path style=" stroke:none;fill-rule:evenodd;fill:rgb(45.098039%,45.098039%,87.058824%);fill-opacity:1;" d="M 36.75 5.386719 C 36.75 4.90625 36.03125 4.90625 36.03125 5.386719 C 36.03125 5.867188 36.75 5.867188 36.75 5.386719 "/>
<path style=" stroke:none;fill-rule:evenodd;fill:rgb(45.098039%,45.098039%,87.058824%);fill-opacity:1;" d="M 37.832031 10.789062 C 37.832031 10.308594 37.109375 10.308594 37.109375 10.789062 C 37.109375 11.265625 37.832031 11.265625 37.832031 10.789062 "/>
<path style=" stroke:none;fill-rule:evenodd;fill:rgb(45.098039%,45.098039%,87.058824%);fill-opacity:1;" d="M 38.550781 26.628906 C 38.550781 26.148438 37.832031 26.148438 37.832031 26.628906 C 37.832031 27.105469 38.550781 27.105469 38.550781 26.628906 "/>
<path style=" stroke:none;fill-rule:evenodd;fill:rgb(45.098039%,45.098039%,87.058824%);fill-opacity:1;" d="M 39.027344 32.273438 C 39.027344 31.792969 38.304688 31.792969 38.304688 32.273438 C 38.304688 32.753906 39.027344 32.753906 39.027344 32.273438 "/>
<path style=" stroke:none;fill-rule:evenodd;fill:rgb(45.098039%,45.098039%,87.058824%);fill-opacity:1;" d="M 44.671875 13.667969 C 44.671875 13.1875 43.949219 13.1875 43.949219 13.667969 C 43.949219 14.148438 44.671875 14.148438 44.671875 13.667969 "/>
<path style=" stroke:none;fill-rule:evenodd;fill:rgb(45.098039%,45.098039%,87.058824%);fill-opacity:1;" d="M 44.671875 16.546875 C 44.671875 16.066406 43.949219 16.066406 43.949219 16.546875 C 43.949219 17.027344 44.671875 17.027344 44.671875 16.546875 "/>
<path style=" stroke:none;fill-rule:evenodd;fill:rgb(45.098039%,45.098039%,87.058824%);fill-opacity:1;" d="M 51.511719 3.226562 C 51.511719 2.746094 50.789062 2.746094 50.789062 3.226562 C 50.789062 3.707031 51.511719 3.707031 51.511719 3.226562 "/>
<path style=" stroke:none;fill-rule:evenodd;fill:rgb(45.098039%,45.098039%,87.058824%);fill-opacity:1;" d="M 51.511719 5.386719 C 51.511719 4.90625 50.789062 4.90625 50.789062 5.386719 C 50.789062 5.867188 51.511719 5.867188 51.511719 5.386719 "/>
<path style=" stroke:none;fill-rule:evenodd;fill:rgb(45.098039%,45.098039%,87.058824%);fill-opacity:1;" d="M 51.511719 7.546875 C 51.511719 7.066406 50.789062 7.066406 50.789062 7.546875 C 50.789062 8.027344 51.511719 8.027344 51.511719 7.546875 "/>
<path style=" stroke:none;fill-rule:evenodd;fill:rgb(45.098039%,45.098039%,87.058824%);fill-opacity:1;" d="M 53.671875 3.226562 C 53.671875 2.746094 52.949219 2.746094 52.949219 3.226562 C 52.949219 3.707031 53.671875 3.707031 53.671875 3.226562 "/>
<path style=" stroke:none;fill-rule:evenodd;fill:rgb(45.098039%,45.098039%,87.058824%);fill-opacity:1;" d="M 53.671875 5.386719 C 53.671875 4.90625 52.949219 4.90625 52.949219 5.386719 C 52.949219 5.867188 53.671875 5.867188 53.671875 5.386719 "/>
<path style=" stroke:none;fill-rule:evenodd;fill:rgb(45.098039%,45.098039%,87.058824%);fill-opacity:1;" d="M 53.671875 7.546875 C 53.671875 7.066406 52.949219 7.066406 52.949219 7.546875 C 52.949219 8.027344 53.671875 8.027344 53.671875 7.546875 "/>
</g>
</svg>
