G04 This is an RS-274x file exported by *
G04 gerbv version 2.7.0 *
G04 More information is available about gerbv at *
G04 http://gerbv.geda-project.org/ *
G04 --End of header info--*
%MOIN*%
%FSLAX36Y36*%
%IPPOS*%
G04 --Define apertures--*
%ADD10C,0.0060*%
%ADD11C,0.0040*%
%ADD12C,0.0300*%
%ADD13C,0.1027*%
%ADD14C,0.0001*%
%ADD15C,0.0100*%
G04 --Start main section--*
G54D10*
G01X0485000Y0385000D02*
G01X0495000Y0385000D01*
G01X0547500Y0235000D02*
G01X0547500Y0482500D01*
G01X0547500Y0482500D02*
G01X0545000Y0485000D01*
G54D11*
G01X0470260Y0013500D02*
G01X0490260Y0013500D01*
G01X0490260Y0013500D02*
G01X0495260Y0018500D01*
G01X0495260Y0018500D02*
G01X0495260Y0028500D01*
G01X0490260Y0033500D02*
G01X0495260Y0028500D01*
G01X0475260Y0033500D02*
G01X0490260Y0033500D01*
G01X0475260Y0013500D02*
G01X0475260Y0053500D01*
G01X0483260Y0033500D02*
G01X0495260Y0053500D01*
G01X0507260Y0018500D02*
G01X0512260Y0013500D01*
G01X0512260Y0013500D02*
G01X0527260Y0013500D01*
G01X0527260Y0013500D02*
G01X0532260Y0018500D01*
G01X0532260Y0018500D02*
G01X0532260Y0028500D01*
G01X0507260Y0053500D02*
G01X0532260Y0028500D01*
G01X0507260Y0053500D02*
G01X0532260Y0053500D01*
G01X0506000Y0073500D02*
G01X0506000Y0113500D01*
G01X0506000Y0113500D02*
G01X0526000Y0113500D01*
G01X0538000Y0091500D02*
G01X0553000Y0091500D01*
G01X0538000Y0113500D02*
G01X0558000Y0113500D01*
G01X0538000Y0073500D02*
G01X0538000Y0113500D01*
G01X0538000Y0073500D02*
G01X0558000Y0073500D01*
G01X0575000Y0073500D02*
G01X0575000Y0113500D01*
G01X0588000Y0073500D02*
G01X0595000Y0080500D01*
G01X0595000Y0080500D02*
G01X0595000Y0106500D01*
G01X0588000Y0113500D02*
G01X0595000Y0106500D01*
G01X0570000Y0113500D02*
G01X0588000Y0113500D01*
G01X0570000Y0073500D02*
G01X0588000Y0073500D01*
G01X0607000Y0078500D02*
G01X0612000Y0073500D01*
G01X0612000Y0073500D02*
G01X0627000Y0073500D01*
G01X0627000Y0073500D02*
G01X0632000Y0078500D01*
G01X0632000Y0078500D02*
G01X0632000Y0088500D01*
G01X0607000Y0113500D02*
G01X0632000Y0088500D01*
G01X0607000Y0113500D02*
G01X0632000Y0113500D01*
G01X0000000Y0000000D02*
G54D10*
G01X0707500Y0005000D02*
G01X0007500Y0005000D01*
G01X0547500Y0225000D02*
G01X0577500Y0195000D01*
G01X0577500Y0195000D02*
G01X0607500Y0195000D01*
G01X0647500Y0155000D02*
G01X0607500Y0195000D01*
G01X0797500Y0235000D02*
G01X0547500Y0235000D01*
G01X0547500Y0235000D02*
G01X0547500Y0225000D01*
G01X0007500Y0005000D02*
G01X0007500Y0485000D01*
G01X0647500Y0155000D02*
G01X0647500Y0105000D01*
G01X0647500Y0105000D02*
G01X0657500Y0095000D01*
G01X0657500Y0095000D02*
G01X0707500Y0095000D01*
G01X0707500Y0095000D02*
G01X0707500Y0005000D01*
G01X0007500Y0485000D02*
G01X0797500Y0485000D01*
G01X0797500Y0485000D02*
G01X0797500Y0235000D01*
G01X0000000Y0000000D02*
G54D12*
G01X0725000Y0445000D03*
G01X0725000Y0415000D03*
G01X0695000Y0445000D03*
G01X0695000Y0415000D03*
G01X0695000Y0385000D03*
G01X0725000Y0385000D03*
G54D13*
G01X0722500Y0310000D03*
G54D14*
G36*
G01X0560340Y0061770D02*
G01X0534660Y0061770D01*
G01X0534660Y0028230D01*
G01X0560340Y0028230D01*
G01X0560340Y0061770D01*
G37*
G36*
G01X0591820Y0061770D02*
G01X0566140Y0061770D01*
G01X0566140Y0028230D01*
G01X0591820Y0028230D01*
G01X0591820Y0061770D01*
G37*
G36*
G01X0634600Y0061770D02*
G01X0608920Y0061770D01*
G01X0608920Y0028230D01*
G01X0634600Y0028230D01*
G01X0634600Y0061770D01*
G37*
G36*
G01X0666080Y0061770D02*
G01X0640400Y0061770D01*
G01X0640400Y0028230D01*
G01X0666080Y0028230D01*
G01X0666080Y0061770D01*
G37*
G54D13*
G01X0622500Y0410000D03*
G54D14*
G36*
G01X0052500Y0455000D02*
G01X0052500Y0035000D01*
G01X0477500Y0035000D01*
G01X0477500Y0455000D01*
G01X0052500Y0455000D01*
G37*
G01X0000000Y0000000D02*
G54D15*
G01X0490000Y0415000D03*
G01X0505000Y0340000D03*
G01X0515000Y0120000D03*
G01X0521600Y0041600D03*
G01X0600000Y0300000D03*
G01X0600000Y0260000D03*
G01X0695000Y0445000D03*
G01X0695000Y0415000D03*
G01X0695000Y0385000D03*
G01X0725000Y0445000D03*
G01X0725000Y0415000D03*
G01X0725000Y0385000D03*
M02*
