G04 This is an RS-274x file exported by *
G04 gerbv version 2.7.0 *
G04 More information is available about gerbv at *
G04 http://gerbv.geda-project.org/ *
G04 --End of header info--*
%MOIN*%
%FSLAX36Y36*%
%IPPOS*%
G04 --Define apertures--*
%ADD10C,0.0040*%
%ADD11C,0.0060*%
%ADD12C,0.0100*%
%ADD13C,0.0048*%
%ADD14C,0.0300*%
%ADD15C,0.1027*%
%ADD16C,0.0200*%
%ADD17C,0.0001*%
G04 --Start main section--*
G54D10*
G01X0750000Y0416450D02*
G01X0760600Y0429700D01*
G01X0750000Y0416450D02*
G01X0763250Y0416450D01*
G01X0760600Y0429700D02*
G01X0760600Y0408500D01*
G01X0769610Y0429700D02*
G01X0769610Y0411150D01*
G01X0769610Y0411150D02*
G01X0772260Y0408500D01*
G01X0750000Y0462200D02*
G01X0752600Y0464800D01*
G01X0752600Y0464800D02*
G01X0760400Y0464800D01*
G01X0760400Y0464800D02*
G01X0763000Y0462200D01*
G01X0763000Y0462200D02*
G01X0763000Y0457000D01*
G01X0750000Y0444000D02*
G01X0763000Y0457000D01*
G01X0750000Y0444000D02*
G01X0763000Y0444000D01*
G01X0769240Y0464800D02*
G01X0769240Y0446600D01*
G01X0769240Y0446600D02*
G01X0771840Y0444000D01*
G01X0757800Y0399800D02*
G01X0760400Y0397200D01*
G01X0752600Y0399800D02*
G01X0757800Y0399800D01*
G01X0750000Y0397200D02*
G01X0752600Y0399800D01*
G01X0750000Y0397200D02*
G01X0750000Y0381600D01*
G01X0750000Y0381600D02*
G01X0752600Y0379000D01*
G01X0757800Y0390440D02*
G01X0760400Y0387840D01*
G01X0750000Y0390440D02*
G01X0757800Y0390440D01*
G01X0752600Y0379000D02*
G01X0757800Y0379000D01*
G01X0757800Y0379000D02*
G01X0760400Y0381600D01*
G01X0760400Y0387840D02*
G01X0760400Y0381600D01*
G01X0766640Y0399800D02*
G01X0766640Y0381600D01*
G01X0766640Y0381600D02*
G01X0769240Y0379000D01*
G54D11*
G01X0646000Y0294000D02*
G01X0654000Y0302000D01*
G01X0611000Y0294000D02*
G01X0646000Y0294000D01*
G01X0604000Y0301000D02*
G01X0611000Y0294000D01*
G01X0612000Y0334000D02*
G01X0605000Y0327000D01*
G01X0612000Y0334000D02*
G01X0647000Y0334000D01*
G01X0654000Y0327000D02*
G01X0647000Y0334000D01*
G01X0646000Y0254000D02*
G01X0654000Y0262000D01*
G01X0611000Y0254000D02*
G01X0646000Y0254000D01*
G01X0604000Y0261000D02*
G01X0611000Y0254000D01*
G01X0612000Y0294000D02*
G01X0605000Y0287000D01*
G01X0612000Y0294000D02*
G01X0647000Y0294000D01*
G01X0654000Y0287000D02*
G01X0647000Y0294000D01*
G54D12*
G01X0007500Y0485000D02*
G01X0527500Y0485000D01*
G01X0007500Y0005000D02*
G01X0527500Y0005000D01*
G01X0412500Y0485000D02*
G01X0412500Y0005000D01*
G54D10*
G01X0043400Y0225000D02*
G01X0077700Y0225000D01*
G01X0043400Y0225000D02*
G01X0038500Y0220100D01*
G01X0038500Y0220100D02*
G01X0038500Y0210300D01*
G01X0038500Y0210300D02*
G01X0043400Y0205400D01*
G01X0043400Y0205400D02*
G01X0077700Y0205400D01*
G01X0077700Y0174040D02*
G01X0072800Y0169140D01*
G01X0077700Y0188740D02*
G01X0077700Y0174040D01*
G01X0072800Y0193640D02*
G01X0077700Y0188740D01*
G01X0063000Y0193640D02*
G01X0072800Y0193640D01*
G01X0063000Y0193640D02*
G01X0058100Y0188740D01*
G01X0058100Y0188740D02*
G01X0058100Y0174040D01*
G01X0058100Y0174040D02*
G01X0053200Y0169140D01*
G01X0043400Y0169140D02*
G01X0053200Y0169140D01*
G01X0038500Y0174040D02*
G01X0043400Y0169140D01*
G01X0038500Y0188740D02*
G01X0038500Y0174040D01*
G01X0043400Y0193640D02*
G01X0038500Y0188740D01*
G01X0038500Y0157380D02*
G01X0038500Y0137780D01*
G01X0038500Y0137780D02*
G01X0043400Y0132880D01*
G01X0043400Y0132880D02*
G01X0055160Y0132880D01*
G01X0060060Y0137780D02*
G01X0055160Y0132880D01*
G01X0060060Y0152480D02*
G01X0060060Y0137780D01*
G01X0038500Y0152480D02*
G01X0077700Y0152480D01*
G01X0077700Y0157380D02*
G01X0077700Y0137780D01*
G01X0077700Y0137780D02*
G01X0072800Y0132880D01*
G01X0064960Y0132880D02*
G01X0072800Y0132880D01*
G01X0060060Y0137780D02*
G01X0064960Y0132880D01*
G01X0470000Y0090000D02*
G01X0470000Y0077000D01*
G01X0463000Y0070000D02*
G01X0470000Y0077000D01*
G01X0437000Y0070000D02*
G01X0463000Y0070000D01*
G01X0437000Y0070000D02*
G01X0430000Y0077000D01*
G01X0430000Y0090000D02*
G01X0430000Y0077000D01*
G01X0438000Y0102000D02*
G01X0430000Y0110000D01*
G01X0430000Y0110000D02*
G01X0470000Y0110000D01*
G01X0470000Y0117000D02*
G01X0470000Y0102000D01*
G01X0525000Y0085000D02*
G01X0525000Y0072000D01*
G01X0518000Y0065000D02*
G01X0525000Y0072000D01*
G01X0492000Y0065000D02*
G01X0518000Y0065000D01*
G01X0492000Y0065000D02*
G01X0485000Y0072000D01*
G01X0485000Y0085000D02*
G01X0485000Y0072000D01*
G01X0490000Y0097000D02*
G01X0485000Y0102000D01*
G01X0485000Y0117000D02*
G01X0485000Y0102000D01*
G01X0485000Y0117000D02*
G01X0490000Y0122000D01*
G01X0490000Y0122000D02*
G01X0500000Y0122000D01*
G01X0525000Y0097000D02*
G01X0500000Y0122000D01*
G01X0525000Y0122000D02*
G01X0525000Y0097000D01*
G01X0435000Y0220000D02*
G01X0455000Y0220000D01*
G01X0455000Y0220000D02*
G01X0460000Y0215000D01*
G01X0460000Y0215000D02*
G01X0460000Y0205000D01*
G01X0455000Y0200000D02*
G01X0460000Y0205000D01*
G01X0440000Y0200000D02*
G01X0455000Y0200000D01*
G01X0440000Y0220000D02*
G01X0440000Y0180000D01*
G01X0448000Y0200000D02*
G01X0460000Y0180000D01*
G01X0472000Y0212000D02*
G01X0480000Y0220000D01*
G01X0480000Y0220000D02*
G01X0480000Y0180000D01*
G01X0472000Y0180000D02*
G01X0487000Y0180000D01*
G01X0445000Y0175000D02*
G01X0445000Y0135000D01*
G01X0445000Y0135000D02*
G01X0465000Y0135000D01*
G01X0477000Y0157000D02*
G01X0492000Y0157000D01*
G01X0477000Y0135000D02*
G01X0497000Y0135000D01*
G01X0477000Y0175000D02*
G01X0477000Y0135000D01*
G01X0477000Y0175000D02*
G01X0497000Y0175000D01*
G01X0514000Y0175000D02*
G01X0514000Y0135000D01*
G01X0527000Y0175000D02*
G01X0534000Y0168000D01*
G01X0534000Y0168000D02*
G01X0534000Y0142000D01*
G01X0527000Y0135000D02*
G01X0534000Y0142000D01*
G01X0509000Y0135000D02*
G01X0527000Y0135000D01*
G01X0509000Y0175000D02*
G01X0527000Y0175000D01*
G01X0546000Y0167000D02*
G01X0554000Y0175000D01*
G01X0554000Y0175000D02*
G01X0554000Y0135000D01*
G01X0546000Y0135000D02*
G01X0561000Y0135000D01*
G01X0530000Y0345000D02*
G01X0550000Y0345000D01*
G01X0540000Y0345000D02*
G01X0540000Y0305000D01*
G01X0562000Y0340000D02*
G01X0567000Y0345000D01*
G01X0567000Y0345000D02*
G01X0582000Y0345000D01*
G01X0582000Y0345000D02*
G01X0587000Y0340000D01*
G01X0587000Y0340000D02*
G01X0587000Y0330000D01*
G01X0562000Y0305000D02*
G01X0587000Y0330000D01*
G01X0562000Y0305000D02*
G01X0587000Y0305000D01*
G54D13*
G01X0530000Y0292900D02*
G01X0554200Y0292900D01*
G01X0542100Y0292900D02*
G01X0542100Y0244500D01*
G01X0568720Y0283220D02*
G01X0578400Y0292900D01*
G01X0578400Y0292900D02*
G01X0578400Y0244500D01*
G01X0568720Y0244500D02*
G01X0586870Y0244500D01*
G01X0000000Y0000000D02*
G54D11*
G01X0707500Y0005000D02*
G01X0007500Y0005000D01*
G01X0547500Y0225000D02*
G01X0577500Y0195000D01*
G01X0577500Y0195000D02*
G01X0607500Y0195000D01*
G01X0647500Y0155000D02*
G01X0607500Y0195000D01*
G01X0797500Y0235000D02*
G01X0547500Y0235000D01*
G01X0547500Y0235000D02*
G01X0547500Y0225000D01*
G01X0007500Y0005000D02*
G01X0007500Y0485000D01*
G01X0647500Y0155000D02*
G01X0647500Y0105000D01*
G01X0647500Y0105000D02*
G01X0657500Y0095000D01*
G01X0657500Y0095000D02*
G01X0707500Y0095000D01*
G01X0707500Y0095000D02*
G01X0707500Y0005000D01*
G01X0007500Y0485000D02*
G01X0797500Y0485000D01*
G01X0797500Y0485000D02*
G01X0797500Y0235000D01*
G01X0000000Y0000000D02*
G54D14*
G01X0725000Y0445000D03*
G01X0725000Y0415000D03*
G01X0695000Y0445000D03*
G01X0695000Y0415000D03*
G01X0695000Y0385000D03*
G01X0725000Y0385000D03*
G54D15*
G01X0722500Y0310000D03*
G54D16*
G01X0645000Y0327000D02*
G01X0651000Y0321000D01*
G54D17*
G36*
G01X0641000Y0331000D02*
G01X0641000Y0311000D01*
G01X0666000Y0311000D01*
G01X0666000Y0331000D01*
G01X0641000Y0331000D01*
G37*
G54D16*
G01X0645000Y0287000D02*
G01X0651000Y0281000D01*
G54D17*
G36*
G01X0641000Y0291000D02*
G01X0641000Y0271000D01*
G01X0666000Y0271000D01*
G01X0666000Y0291000D01*
G01X0641000Y0291000D01*
G37*
G36*
G01X0560340Y0061770D02*
G01X0534660Y0061770D01*
G01X0534660Y0028230D01*
G01X0560340Y0028230D01*
G01X0560340Y0061770D01*
G37*
G36*
G01X0591820Y0061770D02*
G01X0566140Y0061770D01*
G01X0566140Y0028230D01*
G01X0591820Y0028230D01*
G01X0591820Y0061770D01*
G37*
G36*
G01X0634600Y0061770D02*
G01X0608920Y0061770D01*
G01X0608920Y0028230D01*
G01X0634600Y0028230D01*
G01X0634600Y0061770D01*
G37*
G36*
G01X0530730Y0097840D02*
G01X0530730Y0072160D01*
G01X0564270Y0072160D01*
G01X0564270Y0097840D01*
G01X0530730Y0097840D01*
G37*
G36*
G01X0530730Y0129320D02*
G01X0530730Y0103640D01*
G01X0564270Y0103640D01*
G01X0564270Y0129320D01*
G01X0530730Y0129320D01*
G37*
G36*
G01X0570730Y0097840D02*
G01X0570730Y0072160D01*
G01X0604270Y0072160D01*
G01X0604270Y0097840D01*
G01X0570730Y0097840D01*
G37*
G36*
G01X0570730Y0129320D02*
G01X0570730Y0103640D01*
G01X0604270Y0103640D01*
G01X0604270Y0129320D01*
G01X0570730Y0129320D01*
G37*
G36*
G01X0666080Y0061770D02*
G01X0640400Y0061770D01*
G01X0640400Y0028230D01*
G01X0666080Y0028230D01*
G01X0666080Y0061770D01*
G37*
G36*
G01X0020170Y0126410D02*
G01X0020170Y0067030D01*
G01X0374830Y0067030D01*
G01X0374830Y0126410D01*
G01X0020170Y0126410D01*
G37*
G54D15*
G01X0622500Y0410000D03*
G54D17*
G36*
G01X0020170Y0421690D02*
G01X0020170Y0362310D01*
G01X0374830Y0362310D01*
G01X0374830Y0421690D01*
G01X0020170Y0421690D01*
G37*
G54D16*
G01X0614000Y0301000D02*
G01X0644000Y0301000D01*
G01X0644000Y0301000D02*
G01X0651000Y0308000D01*
G54D17*
G36*
G01X0641000Y0318000D02*
G01X0641000Y0298000D01*
G01X0666000Y0298000D01*
G01X0666000Y0318000D01*
G01X0641000Y0318000D01*
G37*
G54D16*
G01X0635000Y0307000D02*
G01X0641000Y0301000D01*
G01X0629000Y0301000D02*
G01X0635000Y0307000D01*
G01X0607000Y0308000D02*
G01X0614000Y0301000D01*
G54D17*
G36*
G01X0582000Y0318000D02*
G01X0582000Y0298000D01*
G01X0617000Y0298000D01*
G01X0617000Y0318000D01*
G01X0582000Y0318000D01*
G37*
G54D16*
G01X0617000Y0301000D02*
G01X0623000Y0307000D01*
G01X0623000Y0307000D02*
G01X0629000Y0301000D01*
G01X0608000Y0321000D02*
G01X0614000Y0327000D01*
G54D17*
G36*
G01X0582000Y0331000D02*
G01X0582000Y0311000D01*
G01X0618000Y0311000D01*
G01X0618000Y0331000D01*
G01X0582000Y0331000D01*
G37*
G54D16*
G01X0616000Y0327000D02*
G01X0623000Y0320000D01*
G01X0614000Y0327000D02*
G01X0616000Y0327000D01*
G01X0614000Y0327000D02*
G01X0645000Y0327000D01*
G01X0623000Y0320000D02*
G01X0630000Y0327000D01*
G01X0628000Y0327000D02*
G01X0635000Y0320000D01*
G01X0635000Y0320000D02*
G01X0642000Y0327000D01*
G01X0614000Y0261000D02*
G01X0644000Y0261000D01*
G01X0644000Y0261000D02*
G01X0651000Y0268000D01*
G54D17*
G36*
G01X0641000Y0278000D02*
G01X0641000Y0258000D01*
G01X0666000Y0258000D01*
G01X0666000Y0278000D01*
G01X0641000Y0278000D01*
G37*
G54D16*
G01X0635000Y0267000D02*
G01X0641000Y0261000D01*
G01X0629000Y0261000D02*
G01X0635000Y0267000D01*
G01X0607000Y0268000D02*
G01X0614000Y0261000D01*
G54D17*
G36*
G01X0582000Y0278000D02*
G01X0582000Y0258000D01*
G01X0617000Y0258000D01*
G01X0617000Y0278000D01*
G01X0582000Y0278000D01*
G37*
G54D16*
G01X0617000Y0261000D02*
G01X0623000Y0267000D01*
G01X0623000Y0267000D02*
G01X0629000Y0261000D01*
G01X0614000Y0287000D02*
G01X0645000Y0287000D01*
G01X0608000Y0281000D02*
G01X0614000Y0287000D01*
G01X0614000Y0287000D02*
G01X0616000Y0287000D01*
G01X0628000Y0287000D02*
G01X0635000Y0280000D01*
G01X0635000Y0280000D02*
G01X0642000Y0287000D01*
G54D17*
G36*
G01X0582000Y0291000D02*
G01X0582000Y0271000D01*
G01X0618000Y0271000D01*
G01X0618000Y0291000D01*
G01X0582000Y0291000D01*
G37*
G36*
G01X0079230Y0323260D02*
G01X0079230Y0263880D01*
G01X0374830Y0263880D01*
G01X0374830Y0323260D01*
G01X0079230Y0323260D01*
G37*
G36*
G01X0079230Y0224840D02*
G01X0079230Y0165460D01*
G01X0374830Y0165460D01*
G01X0374830Y0224840D01*
G01X0079230Y0224840D01*
G37*
G54D16*
G01X0616000Y0287000D02*
G01X0623000Y0280000D01*
G01X0623000Y0280000D02*
G01X0630000Y0287000D01*
G01X0000000Y0000000D02*
G54D12*
G01X0490000Y0415000D03*
G01X0505000Y0340000D03*
G01X0515000Y0120000D03*
G01X0521600Y0041600D03*
G01X0600000Y0300000D03*
G01X0600000Y0260000D03*
G01X0695000Y0445000D03*
G01X0695000Y0415000D03*
G01X0695000Y0385000D03*
G01X0725000Y0445000D03*
G01X0725000Y0415000D03*
G01X0725000Y0385000D03*
M02*
