<?xml version="1.0" encoding="UTF-8"?>
<svg xmlns="http://www.w3.org/2000/svg" xmlns:xlink="http://www.w3.org/1999/xlink" width="60pt" height="36pt" viewBox="0 0 60 36" version="1.1">
<g id="surface1">
<path style="fill:none;stroke-width:0.006;stroke-linecap:round;stroke-linejoin:miter;stroke:rgb(45.882353%,94.901961%,40.392157%);stroke-opacity:1;stroke-miterlimit:10;" d="M 0.707503 0.00501597 L 0.00752422 0.00501597 " transform="matrix(72,0,0,-72,1.1106,35.2674)"/>
<path style="fill:none;stroke-width:0.006;stroke-linecap:round;stroke-linejoin:miter;stroke:rgb(45.882353%,94.901961%,40.392157%);stroke-opacity:1;stroke-miterlimit:10;" d="M 0.547509 0.225014 L 0.577511 0.195012 " transform="matrix(72,0,0,-72,1.1106,35.2674)"/>
<path style="fill:none;stroke-width:0.006;stroke-linecap:round;stroke-linejoin:miter;stroke:rgb(45.882353%,94.901961%,40.392157%);stroke-opacity:1;stroke-miterlimit:10;" d="M 0.577511 0.195012 L 0.607513 0.195012 " transform="matrix(72,0,0,-72,1.1106,35.2674)"/>
<path style="fill:none;stroke-width:0.006;stroke-linecap:round;stroke-linejoin:miter;stroke:rgb(45.882353%,94.901961%,40.392157%);stroke-opacity:1;stroke-miterlimit:10;" d="M 0.647498 0.155027 L 0.607513 0.195012 " transform="matrix(72,0,0,-72,1.1106,35.2674)"/>
<path style="fill:none;stroke-width:0.006;stroke-linecap:round;stroke-linejoin:miter;stroke:rgb(45.882353%,94.901961%,40.392157%);stroke-opacity:1;stroke-miterlimit:10;" d="M 0.797509 0.234996 L 0.547509 0.234996 " transform="matrix(72,0,0,-72,1.1106,35.2674)"/>
<path style="fill:none;stroke-width:0.006;stroke-linecap:round;stroke-linejoin:miter;stroke:rgb(45.882353%,94.901961%,40.392157%);stroke-opacity:1;stroke-miterlimit:10;" d="M 0.547509 0.234996 L 0.547509 0.225014 " transform="matrix(72,0,0,-72,1.1106,35.2674)"/>
<path style="fill:none;stroke-width:0.006;stroke-linecap:round;stroke-linejoin:miter;stroke:rgb(45.882353%,94.901961%,40.392157%);stroke-opacity:1;stroke-miterlimit:10;" d="M 0.00752422 0.00501597 L 0.00752422 0.484996 " transform="matrix(72,0,0,-72,1.1106,35.2674)"/>
<path style="fill:none;stroke-width:0.006;stroke-linecap:round;stroke-linejoin:miter;stroke:rgb(45.882353%,94.901961%,40.392157%);stroke-opacity:1;stroke-miterlimit:10;" d="M 0.647498 0.155027 L 0.647498 0.105005 " transform="matrix(72,0,0,-72,1.1106,35.2674)"/>
<path style="fill:none;stroke-width:0.006;stroke-linecap:round;stroke-linejoin:miter;stroke:rgb(45.882353%,94.901961%,40.392157%);stroke-opacity:1;stroke-miterlimit:10;" d="M 0.647498 0.105005 L 0.657481 0.0950225 " transform="matrix(72,0,0,-72,1.1106,35.2674)"/>
<path style="fill:none;stroke-width:0.006;stroke-linecap:round;stroke-linejoin:miter;stroke:rgb(45.882353%,94.901961%,40.392157%);stroke-opacity:1;stroke-miterlimit:10;" d="M 0.657481 0.0950225 L 0.707503 0.0950225 " transform="matrix(72,0,0,-72,1.1106,35.2674)"/>
<path style="fill:none;stroke-width:0.006;stroke-linecap:round;stroke-linejoin:miter;stroke:rgb(45.882353%,94.901961%,40.392157%);stroke-opacity:1;stroke-miterlimit:10;" d="M 0.707503 0.0950225 L 0.707503 0.00501597 " transform="matrix(72,0,0,-72,1.1106,35.2674)"/>
<path style="fill:none;stroke-width:0.006;stroke-linecap:round;stroke-linejoin:miter;stroke:rgb(45.882353%,94.901961%,40.392157%);stroke-opacity:1;stroke-miterlimit:10;" d="M 0.00752422 0.484996 L 0.797509 0.484996 " transform="matrix(72,0,0,-72,1.1106,35.2674)"/>
<path style="fill:none;stroke-width:0.006;stroke-linecap:round;stroke-linejoin:miter;stroke:rgb(45.882353%,94.901961%,40.392157%);stroke-opacity:1;stroke-miterlimit:10;" d="M 0.797509 0.484996 L 0.797509 0.234996 " transform="matrix(72,0,0,-72,1.1106,35.2674)"/>
<path style=" stroke:none;fill-rule:evenodd;fill:rgb(75.686275%,0%,87.843137%);fill-opacity:1;" d="M 54.390625 3.226562 C 54.390625 1.789062 52.230469 1.789062 52.230469 3.226562 C 52.230469 4.667969 54.390625 4.667969 54.390625 3.226562 "/>
<path style=" stroke:none;fill-rule:evenodd;fill:rgb(75.686275%,0%,87.843137%);fill-opacity:1;" d="M 54.390625 5.386719 C 54.390625 3.949219 52.230469 3.949219 52.230469 5.386719 C 52.230469 6.828125 54.390625 6.828125 54.390625 5.386719 "/>
<path style=" stroke:none;fill-rule:evenodd;fill:rgb(75.686275%,0%,87.843137%);fill-opacity:1;" d="M 52.230469 3.226562 C 52.230469 1.789062 50.070312 1.789062 50.070312 3.226562 C 50.070312 4.667969 52.230469 4.667969 52.230469 3.226562 "/>
<path style=" stroke:none;fill-rule:evenodd;fill:rgb(75.686275%,0%,87.843137%);fill-opacity:1;" d="M 52.230469 5.386719 C 52.230469 3.949219 50.070312 3.949219 50.070312 5.386719 C 50.070312 6.828125 52.230469 6.828125 52.230469 5.386719 "/>
<path style=" stroke:none;fill-rule:evenodd;fill:rgb(75.686275%,0%,87.843137%);fill-opacity:1;" d="M 52.230469 7.546875 C 52.230469 6.105469 50.070312 6.105469 50.070312 7.546875 C 50.070312 8.988281 52.230469 8.988281 52.230469 7.546875 "/>
<path style=" stroke:none;fill-rule:evenodd;fill:rgb(75.686275%,0%,87.843137%);fill-opacity:1;" d="M 54.390625 7.546875 C 54.390625 6.105469 52.230469 6.105469 52.230469 7.546875 C 52.230469 8.988281 54.390625 8.988281 54.390625 7.546875 "/>
<path style=" stroke:none;fill-rule:evenodd;fill:rgb(75.686275%,0%,87.843137%);fill-opacity:1;" d="M 56.828125 12.949219 C 56.828125 8.019531 49.433594 8.019531 49.433594 12.949219 C 49.433594 17.878906 56.828125 17.878906 56.828125 12.949219 "/>
<path style=" stroke:none;fill-rule:evenodd;fill:rgb(75.686275%,0%,87.843137%);fill-opacity:1;" d="M 41.457031 30.820312 L 39.605469 30.820312 L 39.605469 33.234375 L 41.457031 33.234375 Z M 41.457031 30.820312 "/>
<path style=" stroke:none;fill-rule:evenodd;fill:rgb(75.686275%,0%,87.843137%);fill-opacity:1;" d="M 43.722656 30.820312 L 41.871094 30.820312 L 41.871094 33.234375 L 43.722656 33.234375 Z M 43.722656 30.820312 "/>
<path style=" stroke:none;fill-rule:evenodd;fill:rgb(75.686275%,0%,87.843137%);fill-opacity:1;" d="M 46.800781 30.820312 L 44.953125 30.820312 L 44.953125 33.234375 L 46.800781 33.234375 Z M 46.800781 30.820312 "/>
<path style=" stroke:none;fill-rule:evenodd;fill:rgb(75.686275%,0%,87.843137%);fill-opacity:1;" d="M 49.070312 30.820312 L 47.21875 30.820312 L 47.21875 33.234375 L 49.070312 33.234375 Z M 49.070312 30.820312 "/>
<path style=" stroke:none;fill-rule:evenodd;fill:rgb(75.686275%,0%,87.843137%);fill-opacity:1;" d="M 49.628906 5.746094 C 49.628906 0.816406 42.234375 0.816406 42.234375 5.746094 C 42.234375 10.675781 49.628906 10.675781 49.628906 5.746094 "/>
<path style=" stroke:none;fill-rule:evenodd;fill:rgb(75.686275%,0%,87.843137%);fill-opacity:1;" d="M 4.890625 2.507812 L 4.890625 32.746094 L 35.492188 32.746094 L 35.492188 2.507812 Z M 4.890625 2.507812 "/>
<path style=" stroke:none;fill-rule:evenodd;fill:rgb(100%,49.803922%,45.098039%);fill-opacity:1;" d="M 36.75 5.386719 C 36.75 4.90625 36.03125 4.90625 36.03125 5.386719 C 36.03125 5.867188 36.75 5.867188 36.75 5.386719 "/>
<path style=" stroke:none;fill-rule:evenodd;fill:rgb(100%,49.803922%,45.098039%);fill-opacity:1;" d="M 37.832031 10.789062 C 37.832031 10.308594 37.109375 10.308594 37.109375 10.789062 C 37.109375 11.265625 37.832031 11.265625 37.832031 10.789062 "/>
<path style=" stroke:none;fill-rule:evenodd;fill:rgb(100%,49.803922%,45.098039%);fill-opacity:1;" d="M 38.550781 26.628906 C 38.550781 26.148438 37.832031 26.148438 37.832031 26.628906 C 37.832031 27.105469 38.550781 27.105469 38.550781 26.628906 "/>
<path style=" stroke:none;fill-rule:evenodd;fill:rgb(100%,49.803922%,45.098039%);fill-opacity:1;" d="M 39.027344 32.273438 C 39.027344 31.792969 38.304688 31.792969 38.304688 32.273438 C 38.304688 32.753906 39.027344 32.753906 39.027344 32.273438 "/>
<path style=" stroke:none;fill-rule:evenodd;fill:rgb(100%,49.803922%,45.098039%);fill-opacity:1;" d="M 44.671875 13.667969 C 44.671875 13.1875 43.949219 13.1875 43.949219 13.667969 C 43.949219 14.148438 44.671875 14.148438 44.671875 13.667969 "/>
<path style=" stroke:none;fill-rule:evenodd;fill:rgb(100%,49.803922%,45.098039%);fill-opacity:1;" d="M 44.671875 16.546875 C 44.671875 16.066406 43.949219 16.066406 43.949219 16.546875 C 43.949219 17.027344 44.671875 17.027344 44.671875 16.546875 "/>
<path style=" stroke:none;fill-rule:evenodd;fill:rgb(100%,49.803922%,45.098039%);fill-opacity:1;" d="M 51.511719 3.226562 C 51.511719 2.746094 50.789062 2.746094 50.789062 3.226562 C 50.789062 3.707031 51.511719 3.707031 51.511719 3.226562 "/>
<path style=" stroke:none;fill-rule:evenodd;fill:rgb(100%,49.803922%,45.098039%);fill-opacity:1;" d="M 51.511719 5.386719 C 51.511719 4.90625 50.789062 4.90625 50.789062 5.386719 C 50.789062 5.867188 51.511719 5.867188 51.511719 5.386719 "/>
<path style=" stroke:none;fill-rule:evenodd;fill:rgb(100%,49.803922%,45.098039%);fill-opacity:1;" d="M 51.511719 7.546875 C 51.511719 7.066406 50.789062 7.066406 50.789062 7.546875 C 50.789062 8.027344 51.511719 8.027344 51.511719 7.546875 "/>
<path style=" stroke:none;fill-rule:evenodd;fill:rgb(100%,49.803922%,45.098039%);fill-opacity:1;" d="M 53.671875 3.226562 C 53.671875 2.746094 52.949219 2.746094 52.949219 3.226562 C 52.949219 3.707031 53.671875 3.707031 53.671875 3.226562 "/>
<path style=" stroke:none;fill-rule:evenodd;fill:rgb(100%,49.803922%,45.098039%);fill-opacity:1;" d="M 53.671875 5.386719 C 53.671875 4.90625 52.949219 4.90625 52.949219 5.386719 C 52.949219 5.867188 53.671875 5.867188 53.671875 5.386719 "/>
<path style=" stroke:none;fill-rule:evenodd;fill:rgb(100%,49.803922%,45.098039%);fill-opacity:1;" d="M 53.671875 7.546875 C 53.671875 7.066406 52.949219 7.066406 52.949219 7.546875 C 52.949219 8.027344 53.671875 8.027344 53.671875 7.546875 "/>
<path style="fill:none;stroke-width:0.006;stroke-linecap:round;stroke-linejoin:miter;stroke:rgb(45.098039%,45.098039%,87.058824%);stroke-opacity:1;stroke-miterlimit:10;" d="M 0.485009 0.385007 L 0.494992 0.385007 " transform="matrix(72,0,0,-72,1.1106,35.2674)"/>
<path style="fill:none;stroke-width:0.006;stroke-linecap:round;stroke-linejoin:miter;stroke:rgb(45.098039%,45.098039%,87.058824%);stroke-opacity:1;stroke-miterlimit:10;" d="M 0.547509 0.234996 L 0.547509 0.482501 " transform="matrix(72,0,0,-72,1.1106,35.2674)"/>
<path style="fill:none;stroke-width:0.006;stroke-linecap:round;stroke-linejoin:miter;stroke:rgb(45.098039%,45.098039%,87.058824%);stroke-opacity:1;stroke-miterlimit:10;" d="M 0.547509 0.482501 L 0.545013 0.484996 " transform="matrix(72,0,0,-72,1.1106,35.2674)"/>
<path style="fill:none;stroke-width:0.004;stroke-linecap:round;stroke-linejoin:miter;stroke:rgb(45.098039%,45.098039%,87.058824%);stroke-opacity:1;stroke-miterlimit:10;" d="M 0.470252 0.0134795 L 0.490272 0.0134795 " transform="matrix(72,0,0,-72,1.1106,35.2674)"/>
<path style="fill:none;stroke-width:0.004;stroke-linecap:round;stroke-linejoin:miter;stroke:rgb(45.098039%,45.098039%,87.058824%);stroke-opacity:1;stroke-miterlimit:10;" d="M 0.490272 0.0134795 L 0.495263 0.0185251 " transform="matrix(72,0,0,-72,1.1106,35.2674)"/>
<path style="fill:none;stroke-width:0.004;stroke-linecap:round;stroke-linejoin:miter;stroke:rgb(45.098039%,45.098039%,87.058824%);stroke-opacity:1;stroke-miterlimit:10;" d="M 0.495263 0.0185251 L 0.495263 0.0285077 " transform="matrix(72,0,0,-72,1.1106,35.2674)"/>
<path style="fill:none;stroke-width:0.004;stroke-linecap:round;stroke-linejoin:miter;stroke:rgb(45.098039%,45.098039%,87.058824%);stroke-opacity:1;stroke-miterlimit:10;" d="M 0.490272 0.033499 L 0.495263 0.0285077 " transform="matrix(72,0,0,-72,1.1106,35.2674)"/>
<path style="fill:none;stroke-width:0.004;stroke-linecap:round;stroke-linejoin:miter;stroke:rgb(45.098039%,45.098039%,87.058824%);stroke-opacity:1;stroke-miterlimit:10;" d="M 0.475243 0.033499 L 0.490272 0.033499 " transform="matrix(72,0,0,-72,1.1106,35.2674)"/>
<path style="fill:none;stroke-width:0.004;stroke-linecap:round;stroke-linejoin:miter;stroke:rgb(45.098039%,45.098039%,87.058824%);stroke-opacity:1;stroke-miterlimit:10;" d="M 0.475243 0.0134795 L 0.475243 0.0535186 " transform="matrix(72,0,0,-72,1.1106,35.2674)"/>
<path style="fill:none;stroke-width:0.004;stroke-linecap:round;stroke-linejoin:miter;stroke:rgb(45.098039%,45.098039%,87.058824%);stroke-opacity:1;stroke-miterlimit:10;" d="M 0.483273 0.033499 L 0.495263 0.0535186 " transform="matrix(72,0,0,-72,1.1106,35.2674)"/>
<path style="fill:none;stroke-width:0.004;stroke-linecap:round;stroke-linejoin:miter;stroke:rgb(45.098039%,45.098039%,87.058824%);stroke-opacity:1;stroke-miterlimit:10;" d="M 0.507253 0.0185251 L 0.512244 0.0134795 " transform="matrix(72,0,0,-72,1.1106,35.2674)"/>
<path style="fill:none;stroke-width:0.004;stroke-linecap:round;stroke-linejoin:miter;stroke:rgb(45.098039%,45.098039%,87.058824%);stroke-opacity:1;stroke-miterlimit:10;" d="M 0.512244 0.0134795 L 0.527272 0.0134795 " transform="matrix(72,0,0,-72,1.1106,35.2674)"/>
<path style="fill:none;stroke-width:0.004;stroke-linecap:round;stroke-linejoin:miter;stroke:rgb(45.098039%,45.098039%,87.058824%);stroke-opacity:1;stroke-miterlimit:10;" d="M 0.527272 0.0134795 L 0.532264 0.0185251 " transform="matrix(72,0,0,-72,1.1106,35.2674)"/>
<path style="fill:none;stroke-width:0.004;stroke-linecap:round;stroke-linejoin:miter;stroke:rgb(45.098039%,45.098039%,87.058824%);stroke-opacity:1;stroke-miterlimit:10;" d="M 0.532264 0.0185251 L 0.532264 0.0285077 " transform="matrix(72,0,0,-72,1.1106,35.2674)"/>
<path style="fill:none;stroke-width:0.004;stroke-linecap:round;stroke-linejoin:miter;stroke:rgb(45.098039%,45.098039%,87.058824%);stroke-opacity:1;stroke-miterlimit:10;" d="M 0.507253 0.0535186 L 0.532264 0.0285077 " transform="matrix(72,0,0,-72,1.1106,35.2674)"/>
<path style="fill:none;stroke-width:0.004;stroke-linecap:round;stroke-linejoin:miter;stroke:rgb(45.098039%,45.098039%,87.058824%);stroke-opacity:1;stroke-miterlimit:10;" d="M 0.507253 0.0535186 L 0.532264 0.0535186 " transform="matrix(72,0,0,-72,1.1106,35.2674)"/>
<path style="fill:none;stroke-width:0.004;stroke-linecap:round;stroke-linejoin:miter;stroke:rgb(45.098039%,45.098039%,87.058824%);stroke-opacity:1;stroke-miterlimit:10;" d="M 0.506005 0.0734839 L 0.506005 0.113523 " transform="matrix(72,0,0,-72,1.1106,35.2674)"/>
<path style="fill:none;stroke-width:0.004;stroke-linecap:round;stroke-linejoin:miter;stroke:rgb(45.098039%,45.098039%,87.058824%);stroke-opacity:1;stroke-miterlimit:10;" d="M 0.506005 0.113523 L 0.526025 0.113523 " transform="matrix(72,0,0,-72,1.1106,35.2674)"/>
<path style="fill:none;stroke-width:0.004;stroke-linecap:round;stroke-linejoin:miter;stroke:rgb(45.098039%,45.098039%,87.058824%);stroke-opacity:1;stroke-miterlimit:10;" d="M 0.538015 0.091496 L 0.552989 0.091496 " transform="matrix(72,0,0,-72,1.1106,35.2674)"/>
<path style="fill:none;stroke-width:0.004;stroke-linecap:round;stroke-linejoin:miter;stroke:rgb(45.098039%,45.098039%,87.058824%);stroke-opacity:1;stroke-miterlimit:10;" d="M 0.538015 0.113523 L 0.55798 0.113523 " transform="matrix(72,0,0,-72,1.1106,35.2674)"/>
<path style="fill:none;stroke-width:0.004;stroke-linecap:round;stroke-linejoin:miter;stroke:rgb(45.098039%,45.098039%,87.058824%);stroke-opacity:1;stroke-miterlimit:10;" d="M 0.538015 0.0734839 L 0.538015 0.113523 " transform="matrix(72,0,0,-72,1.1106,35.2674)"/>
<path style="fill:none;stroke-width:0.004;stroke-linecap:round;stroke-linejoin:miter;stroke:rgb(45.098039%,45.098039%,87.058824%);stroke-opacity:1;stroke-miterlimit:10;" d="M 0.538015 0.0734839 L 0.55798 0.0734839 " transform="matrix(72,0,0,-72,1.1106,35.2674)"/>
<path style="fill:none;stroke-width:0.004;stroke-linecap:round;stroke-linejoin:miter;stroke:rgb(45.098039%,45.098039%,87.058824%);stroke-opacity:1;stroke-miterlimit:10;" d="M 0.575016 0.0734839 L 0.575016 0.113523 " transform="matrix(72,0,0,-72,1.1106,35.2674)"/>
<path style="fill:none;stroke-width:0.004;stroke-linecap:round;stroke-linejoin:miter;stroke:rgb(45.098039%,45.098039%,87.058824%);stroke-opacity:1;stroke-miterlimit:10;" d="M 0.587982 0.0734839 L 0.594981 0.0804826 " transform="matrix(72,0,0,-72,1.1106,35.2674)"/>
<path style="fill:none;stroke-width:0.004;stroke-linecap:round;stroke-linejoin:miter;stroke:rgb(45.098039%,45.098039%,87.058824%);stroke-opacity:1;stroke-miterlimit:10;" d="M 0.594981 0.0804826 L 0.594981 0.106524 " transform="matrix(72,0,0,-72,1.1106,35.2674)"/>
<path style="fill:none;stroke-width:0.004;stroke-linecap:round;stroke-linejoin:miter;stroke:rgb(45.098039%,45.098039%,87.058824%);stroke-opacity:1;stroke-miterlimit:10;" d="M 0.587982 0.113523 L 0.594981 0.106524 " transform="matrix(72,0,0,-72,1.1106,35.2674)"/>
<path style="fill:none;stroke-width:0.004;stroke-linecap:round;stroke-linejoin:miter;stroke:rgb(45.098039%,45.098039%,87.058824%);stroke-opacity:1;stroke-miterlimit:10;" d="M 0.570024 0.113523 L 0.587982 0.113523 " transform="matrix(72,0,0,-72,1.1106,35.2674)"/>
<path style="fill:none;stroke-width:0.004;stroke-linecap:round;stroke-linejoin:miter;stroke:rgb(45.098039%,45.098039%,87.058824%);stroke-opacity:1;stroke-miterlimit:10;" d="M 0.570024 0.0734839 L 0.587982 0.0734839 " transform="matrix(72,0,0,-72,1.1106,35.2674)"/>
<path style="fill:none;stroke-width:0.004;stroke-linecap:round;stroke-linejoin:miter;stroke:rgb(45.098039%,45.098039%,87.058824%);stroke-opacity:1;stroke-miterlimit:10;" d="M 0.607025 0.0784752 L 0.612016 0.0734839 " transform="matrix(72,0,0,-72,1.1106,35.2674)"/>
<path style="fill:none;stroke-width:0.004;stroke-linecap:round;stroke-linejoin:miter;stroke:rgb(45.098039%,45.098039%,87.058824%);stroke-opacity:1;stroke-miterlimit:10;" d="M 0.612016 0.0734839 L 0.62699 0.0734839 " transform="matrix(72,0,0,-72,1.1106,35.2674)"/>
<path style="fill:none;stroke-width:0.004;stroke-linecap:round;stroke-linejoin:miter;stroke:rgb(45.098039%,45.098039%,87.058824%);stroke-opacity:1;stroke-miterlimit:10;" d="M 0.62699 0.0734839 L 0.631982 0.0784752 " transform="matrix(72,0,0,-72,1.1106,35.2674)"/>
<path style="fill:none;stroke-width:0.004;stroke-linecap:round;stroke-linejoin:miter;stroke:rgb(45.098039%,45.098039%,87.058824%);stroke-opacity:1;stroke-miterlimit:10;" d="M 0.631982 0.0784752 L 0.631982 0.0885121 " transform="matrix(72,0,0,-72,1.1106,35.2674)"/>
<path style="fill:none;stroke-width:0.004;stroke-linecap:round;stroke-linejoin:miter;stroke:rgb(45.098039%,45.098039%,87.058824%);stroke-opacity:1;stroke-miterlimit:10;" d="M 0.607025 0.113523 L 0.631982 0.0885121 " transform="matrix(72,0,0,-72,1.1106,35.2674)"/>
<path style="fill:none;stroke-width:0.004;stroke-linecap:round;stroke-linejoin:miter;stroke:rgb(45.098039%,45.098039%,87.058824%);stroke-opacity:1;stroke-miterlimit:10;" d="M 0.607025 0.113523 L 0.631982 0.113523 " transform="matrix(72,0,0,-72,1.1106,35.2674)"/>
</g>
</svg>
