M48
INCH
T34C0.035
T33C0.081
T32C0.030
T31C0.050
%
T32
X008000Y004000
X008000Y001000
X009000Y004000
X009000Y001000
X019000Y004000
X019000Y001000
X020000Y004000
X020000Y001000
X030000Y004000
X030000Y001000
X031000Y004000
X031000Y001000
X041000Y004000
X041000Y001000
T34
X005000Y003000
X005000Y002000
X045000Y004000
X045000Y003000
T31
X008000Y005000
X010000Y002000
X016000Y005000
X017000Y005000
X018000Y002000
X021000Y002000
X025000Y005000
X026000Y005000
X029000Y002000
X032000Y002000
X034000Y005000
X040000Y002000
T33
X003000Y005000
X003000Y001000
X047000Y005000
X047000Y001000
M30
