G04 start of page 13 for group -4079 idx -4079 *
G04 Title: (unknown), topsilk *
G04 Creator: pcb 4.2.0 *
G04 CreationDate: Tue Jun 16 07:47:16 2020 UTC *
G04 For: commonadmin *
G04 Format: Gerber/RS-274X *
G04 PCB-Dimensions (mil): 6000.00 5000.00 *
G04 PCB-Coordinate-Origin: lower left *
%MOIN*%
%FSLAX25Y25*%
%LNTOPSILK*%
%ADD49C,0.0048*%
%ADD48C,0.0040*%
%ADD47C,0.0100*%
%ADD46C,0.0060*%
G54D46*X64600Y29400D02*X65400Y30200D01*
X61100Y29400D02*X64600D01*
X60400Y30100D02*X61100Y29400D01*
X61200Y33400D02*X60500Y32700D01*
X61200Y33400D02*X64700D01*
X65400Y32700D02*X64700Y33400D01*
X64600Y25400D02*X65400Y26200D01*
X61100Y25400D02*X64600D01*
X60400Y26100D02*X61100Y25400D01*
X61200Y29400D02*X60500Y28700D01*
X61200Y29400D02*X64700D01*
X65400Y28700D02*X64700Y29400D01*
G54D47*X750Y48500D02*X52750D01*
X750Y500D02*X52750D01*
X41250Y48500D02*Y500D01*
G54D48*X4340Y22500D02*X7770D01*
X4340D02*X3850Y22010D01*
Y21030D01*
X4340Y20540D01*
X7770D01*
Y17404D02*X7280Y16914D01*
X7770Y18874D02*Y17404D01*
X7280Y19364D02*X7770Y18874D01*
X6300Y19364D02*X7280D01*
X6300D02*X5810Y18874D01*
Y17404D01*
X5320Y16914D01*
X4340D02*X5320D01*
X3850Y17404D02*X4340Y16914D01*
X3850Y18874D02*Y17404D01*
X4340Y19364D02*X3850Y18874D01*
Y15738D02*Y13778D01*
X4340Y13288D01*
X5516D01*
X6006Y13778D02*X5516Y13288D01*
X6006Y15248D02*Y13778D01*
X3850Y15248D02*X7770D01*
Y15738D02*Y13778D01*
X7280Y13288D01*
X6496D02*X7280D01*
X6006Y13778D02*X6496Y13288D01*
X47000Y9000D02*Y7700D01*
X46300Y7000D02*X47000Y7700D01*
X43700Y7000D02*X46300D01*
X43700D02*X43000Y7700D01*
Y9000D02*Y7700D01*
X43800Y10200D02*X43000Y11000D01*
X47000D01*
Y11700D02*Y10200D01*
X52500Y8500D02*Y7200D01*
X51800Y6500D02*X52500Y7200D01*
X49200Y6500D02*X51800D01*
X49200D02*X48500Y7200D01*
Y8500D02*Y7200D01*
X49000Y9700D02*X48500Y10200D01*
Y11700D02*Y10200D01*
Y11700D02*X49000Y12200D01*
X50000D01*
X52500Y9700D02*X50000Y12200D01*
X52500D02*Y9700D01*
X43500Y22000D02*X45500D01*
X46000Y21500D01*
Y20500D01*
X45500Y20000D02*X46000Y20500D01*
X44000Y20000D02*X45500D01*
X44000Y22000D02*Y18000D01*
X44800Y20000D02*X46000Y18000D01*
X47200Y21200D02*X48000Y22000D01*
Y18000D01*
X47200D02*X48700D01*
X44500Y17500D02*Y13500D01*
X46500D01*
X47700Y15700D02*X49200D01*
X47700Y13500D02*X49700D01*
X47700Y17500D02*Y13500D01*
Y17500D02*X49700D01*
X51400D02*Y13500D01*
X52700Y17500D02*X53400Y16800D01*
Y14200D01*
X52700Y13500D02*X53400Y14200D01*
X50900Y13500D02*X52700D01*
X50900Y17500D02*X52700D01*
X54600Y16700D02*X55400Y17500D01*
Y13500D01*
X54600D02*X56100D01*
X53000Y34500D02*X55000D01*
X54000D02*Y30500D01*
X56200Y34000D02*X56700Y34500D01*
X58200D01*
X58700Y34000D01*
Y33000D01*
X56200Y30500D02*X58700Y33000D01*
X56200Y30500D02*X58700D01*
G54D49*X53000Y29290D02*X55420D01*
X54210D02*Y24450D01*
X56872Y28322D02*X57840Y29290D01*
Y24450D01*
X56872D02*X58687D01*
M02*
