G04 start of page 6 for group 4 idx 4 *
G04 Title: (unknown), power *
G04 Creator: pcb 4.2.0 *
G04 CreationDate: Fri Jun 19 09:17:45 2020 UTC *
G04 For: commonadmin *
G04 Format: Gerber/RS-274X *
G04 PCB-Dimensions (mil): 6000.00 5000.00 *
G04 PCB-Coordinate-Origin: lower left *
%MOIN*%
%FSLAX25Y25*%
%LNGROUP4*%
%ADD31C,0.0100*%
%ADD30C,0.0200*%
%ADD29C,0.0060*%
%ADD28C,0.0001*%
G54D28*G36*
X53400Y14000D02*X63000D01*
Y2000D01*
X52153D01*
Y2554D01*
X52156Y2553D01*
X52407Y2573D01*
X52651Y2632D01*
X52884Y2728D01*
X53099Y2860D01*
X53290Y3023D01*
X53454Y3215D01*
X53586Y3430D01*
X53682Y3662D01*
X53741Y3907D01*
X53756Y4158D01*
X53741Y4409D01*
X53682Y4654D01*
X53586Y4887D01*
X53454Y5102D01*
X53290Y5293D01*
X53099Y5457D01*
X52884Y5588D01*
X52651Y5685D01*
X52407Y5743D01*
X52156Y5763D01*
X52153Y5763D01*
Y10539D01*
X52229Y10570D01*
X52443Y10702D01*
X52635Y10865D01*
X52798Y11057D01*
X52930Y11271D01*
X53026Y11504D01*
X53085Y11749D01*
X53100Y12000D01*
X53085Y12251D01*
X53073Y12301D01*
X53111Y12339D01*
X53138Y12362D01*
X53230Y12469D01*
X53304Y12590D01*
X53359Y12721D01*
X53392Y12859D01*
X53403Y13000D01*
X53400Y13035D01*
Y14000D01*
G37*
G36*
X52153Y2000D02*X50000D01*
Y11440D01*
X50070Y11271D01*
X50202Y11057D01*
X50365Y10865D01*
X50557Y10702D01*
X50771Y10570D01*
X51004Y10474D01*
X51249Y10415D01*
X51500Y10395D01*
X51751Y10415D01*
X51996Y10474D01*
X52153Y10539D01*
Y5763D01*
X51904Y5743D01*
X51660Y5685D01*
X51427Y5588D01*
X51212Y5457D01*
X51021Y5293D01*
X50857Y5102D01*
X50726Y4887D01*
X50629Y4654D01*
X50570Y4409D01*
X50551Y4158D01*
X50570Y3907D01*
X50629Y3662D01*
X50726Y3430D01*
X50857Y3215D01*
X51021Y3023D01*
X51212Y2860D01*
X51427Y2728D01*
X51660Y2632D01*
X51904Y2573D01*
X52153Y2554D01*
Y2000D01*
G37*
G36*
X68500D02*X52153D01*
Y2554D01*
X52156Y2553D01*
X52407Y2573D01*
X52651Y2632D01*
X52884Y2728D01*
X53099Y2860D01*
X53290Y3023D01*
X53454Y3215D01*
X53586Y3430D01*
X53682Y3662D01*
X53741Y3907D01*
X53756Y4158D01*
X53741Y4409D01*
X53682Y4654D01*
X53586Y4887D01*
X53454Y5102D01*
X53290Y5293D01*
X53099Y5457D01*
X52884Y5588D01*
X52651Y5685D01*
X52407Y5743D01*
X52156Y5763D01*
X52153Y5763D01*
Y8000D01*
X68500D01*
Y2000D01*
G37*
G36*
X52153D02*X50000D01*
Y8000D01*
X52153D01*
Y5763D01*
X51904Y5743D01*
X51660Y5685D01*
X51427Y5588D01*
X51212Y5457D01*
X51021Y5293D01*
X50857Y5102D01*
X50726Y4887D01*
X50629Y4654D01*
X50570Y4409D01*
X50551Y4158D01*
X50570Y3907D01*
X50629Y3662D01*
X50726Y3430D01*
X50857Y3215D01*
X51021Y3023D01*
X51212Y2860D01*
X51427Y2728D01*
X51660Y2632D01*
X51904Y2573D01*
X52153Y2554D01*
Y2000D01*
G37*
G54D29*X48500Y15500D02*Y35500D01*
X49000Y36000D01*
X49500D01*
X52500Y13000D02*Y35000D01*
X51500Y36000D01*
X51000D01*
X51500Y12000D02*Y12500D01*
X48500Y15500D01*
X51500Y12000D02*X52500Y13000D01*
X69500Y44500D02*X72500D01*
X69500Y41500D02*X72500D01*
X75000Y45500D02*Y38000D01*
X76500Y45500D02*Y38000D01*
G54D30*X60000Y30000D03*
Y26000D03*
X50500Y34000D03*
X52156Y4158D03*
X51500Y12000D03*
X72500Y44500D03*
Y41500D03*
X49000D03*
X69500Y44500D03*
Y41500D03*
Y38500D03*
X72500D03*
G54D31*M02*
