G04 start of page 2 for group 0 idx 0 *
G04 Title: (unknown), top *
G04 Creator: pcb 4.2.0 *
G04 CreationDate: Fri Jun 19 09:17:45 2020 UTC *
G04 For: commonadmin *
G04 Format: Gerber/RS-274X *
G04 PCB-Dimensions (mil): 6000.00 5000.00 *
G04 PCB-Coordinate-Origin: lower left *
%MOIN*%
%FSLAX25Y25*%
%LNTOP*%
%ADD15C,0.0100*%
%ADD14C,0.0200*%
%ADD13C,0.0394*%
%ADD12C,0.0060*%
%ADD11C,0.0001*%
G54D11*G36*
X52000Y44500D02*Y38500D01*
X50265D01*
Y40788D01*
X50277Y40789D01*
X50323Y40799D01*
X50366Y40817D01*
X50407Y40841D01*
X50443Y40871D01*
X50474Y40907D01*
X50499Y40947D01*
X50517Y40991D01*
X50559Y41133D01*
X50586Y41278D01*
X50600Y41426D01*
Y41574D01*
X50586Y41722D01*
X50559Y41867D01*
X50518Y42010D01*
X50500Y42053D01*
X50475Y42094D01*
X50444Y42129D01*
X50408Y42160D01*
X50367Y42184D01*
X50323Y42202D01*
X50277Y42212D01*
X50265Y42213D01*
Y44500D01*
X52000D01*
G37*
G36*
X50265Y38500D02*X49001D01*
Y39900D01*
X49074D01*
X49222Y39914D01*
X49367Y39941D01*
X49510Y39982D01*
X49553Y40000D01*
X49594Y40025D01*
X49629Y40056D01*
X49660Y40092D01*
X49684Y40133D01*
X49702Y40177D01*
X49712Y40223D01*
X49716Y40271D01*
X49712Y40318D01*
X49700Y40364D01*
X49681Y40407D01*
X49656Y40447D01*
X49625Y40483D01*
X49589Y40514D01*
X49548Y40538D01*
X49504Y40556D01*
X49458Y40566D01*
X49411Y40570D01*
X49364Y40565D01*
X49318Y40553D01*
X49229Y40527D01*
X49138Y40510D01*
X49046Y40501D01*
X49001D01*
Y42499D01*
X49046D01*
X49138Y42490D01*
X49229Y42473D01*
X49318Y42448D01*
X49364Y42436D01*
X49411Y42432D01*
X49458Y42435D01*
X49504Y42445D01*
X49548Y42463D01*
X49588Y42487D01*
X49624Y42518D01*
X49655Y42553D01*
X49680Y42593D01*
X49699Y42637D01*
X49710Y42682D01*
X49715Y42730D01*
X49711Y42777D01*
X49701Y42823D01*
X49683Y42866D01*
X49659Y42907D01*
X49629Y42943D01*
X49593Y42974D01*
X49553Y42999D01*
X49509Y43017D01*
X49367Y43059D01*
X49222Y43086D01*
X49074Y43100D01*
X49001D01*
Y44500D01*
X50265D01*
Y42213D01*
X50229Y42216D01*
X50182Y42212D01*
X50136Y42200D01*
X50093Y42181D01*
X50053Y42156D01*
X50017Y42125D01*
X49986Y42089D01*
X49962Y42048D01*
X49944Y42004D01*
X49934Y41958D01*
X49930Y41911D01*
X49935Y41864D01*
X49947Y41818D01*
X49973Y41729D01*
X49990Y41638D01*
X49999Y41546D01*
Y41454D01*
X49990Y41362D01*
X49973Y41271D01*
X49948Y41182D01*
X49936Y41136D01*
X49932Y41089D01*
X49935Y41042D01*
X49945Y40996D01*
X49963Y40952D01*
X49987Y40912D01*
X50018Y40876D01*
X50053Y40845D01*
X50093Y40820D01*
X50137Y40801D01*
X50182Y40790D01*
X50229Y40785D01*
X50265Y40788D01*
Y38500D01*
G37*
G36*
X49001D02*X47735D01*
Y40787D01*
X47771Y40784D01*
X47818Y40788D01*
X47864Y40800D01*
X47907Y40819D01*
X47947Y40844D01*
X47983Y40875D01*
X48014Y40911D01*
X48038Y40952D01*
X48056Y40996D01*
X48066Y41042D01*
X48070Y41089D01*
X48065Y41136D01*
X48053Y41182D01*
X48027Y41271D01*
X48010Y41362D01*
X48001Y41454D01*
Y41546D01*
X48010Y41638D01*
X48027Y41729D01*
X48052Y41818D01*
X48064Y41864D01*
X48068Y41911D01*
X48065Y41958D01*
X48055Y42004D01*
X48037Y42048D01*
X48013Y42088D01*
X47982Y42124D01*
X47947Y42155D01*
X47907Y42180D01*
X47863Y42199D01*
X47818Y42210D01*
X47770Y42215D01*
X47735Y42212D01*
Y44500D01*
X49001D01*
Y43100D01*
X48926D01*
X48778Y43086D01*
X48633Y43059D01*
X48490Y43018D01*
X48447Y43000D01*
X48406Y42975D01*
X48371Y42944D01*
X48340Y42908D01*
X48316Y42867D01*
X48298Y42823D01*
X48288Y42777D01*
X48284Y42729D01*
X48288Y42682D01*
X48300Y42636D01*
X48319Y42593D01*
X48344Y42553D01*
X48375Y42517D01*
X48411Y42486D01*
X48452Y42462D01*
X48496Y42444D01*
X48542Y42434D01*
X48589Y42430D01*
X48636Y42435D01*
X48682Y42447D01*
X48771Y42473D01*
X48862Y42490D01*
X48954Y42499D01*
X49001D01*
Y40501D01*
X48954D01*
X48862Y40510D01*
X48771Y40527D01*
X48682Y40552D01*
X48636Y40564D01*
X48589Y40568D01*
X48542Y40565D01*
X48496Y40555D01*
X48452Y40537D01*
X48412Y40513D01*
X48376Y40482D01*
X48345Y40447D01*
X48320Y40407D01*
X48301Y40363D01*
X48290Y40318D01*
X48285Y40271D01*
X48289Y40223D01*
X48299Y40177D01*
X48317Y40134D01*
X48341Y40093D01*
X48371Y40057D01*
X48407Y40026D01*
X48447Y40001D01*
X48491Y39983D01*
X48633Y39941D01*
X48778Y39914D01*
X48926Y39900D01*
X49001D01*
Y38500D01*
G37*
G36*
X47735D02*X46000D01*
Y44500D01*
X47735D01*
Y42212D01*
X47723Y42211D01*
X47677Y42201D01*
X47634Y42183D01*
X47593Y42159D01*
X47557Y42129D01*
X47526Y42093D01*
X47501Y42053D01*
X47483Y42009D01*
X47441Y41867D01*
X47414Y41722D01*
X47400Y41574D01*
Y41426D01*
X47414Y41278D01*
X47441Y41133D01*
X47482Y40990D01*
X47500Y40947D01*
X47525Y40906D01*
X47556Y40871D01*
X47592Y40840D01*
X47633Y40816D01*
X47677Y40798D01*
X47723Y40788D01*
X47735Y40787D01*
Y38500D01*
G37*
G54D12*X60852Y11648D02*X61750Y10750D01*
X19750Y9672D02*X46642D01*
X60852Y11648D02*X51852D01*
X46642Y9672D02*X52156Y4158D01*
X51852Y11648D02*X51500Y12000D01*
X52500Y13000D01*
X51500Y12000D02*Y12500D01*
X48500Y15500D01*
X54750Y8500D02*Y6616D01*
X53808Y4500D02*Y5674D01*
X54750Y6616D01*
X52866Y4500D02*X54750D01*
X52156Y4158D02*X52524D01*
X52866Y4500D01*
X62176D02*X57898D01*
X58750Y8500D02*X54750D01*
X61750Y10750D02*Y8250D01*
X62500Y7500D01*
X65000D01*
X65500Y7000D01*
Y4676D01*
X65324Y4500D01*
X19750Y39200D02*X41700D01*
X22703Y29357D02*X42357D01*
X45000Y32000D02*X42357Y29357D01*
X22703Y19515D02*X41515D01*
X41700Y39200D02*X44000Y41500D01*
X69500Y44500D02*X72500D01*
X75000Y45500D02*Y38000D01*
X76500D02*Y45500D01*
X44000Y41500D02*X49000D01*
X50500Y34000D02*Y40000D01*
X49000Y41500D01*
X60000Y28100D02*X58400D01*
X56000Y30500D01*
X60000Y32100D02*X58600D01*
X58500Y32000D01*
X59950Y30800D02*Y30050D01*
X60000Y30000D01*
X43000Y28000D02*Y21000D01*
X41515Y19515D01*
X52500Y13000D02*Y29000D01*
X48500Y15500D02*Y29000D01*
X56000Y30500D02*X45500D01*
X43000Y28000D01*
X58500Y32000D02*X45000D01*
X59950Y26800D02*Y26050D01*
X60000Y26000D01*
G54D13*X72250Y31000D03*
G54D12*X64500Y32700D02*X65100Y32100D01*
G54D11*G36*
X64800Y32400D02*Y31800D01*
X65900D01*
Y32400D01*
X64800D01*
G37*
G54D12*X64500Y28700D02*X65100Y28100D01*
G54D11*G36*
X64800Y28400D02*Y27800D01*
X65900D01*
Y28400D01*
X64800D01*
G37*
G36*
X55734Y5877D02*X53766D01*
Y3123D01*
X55734D01*
Y5877D01*
G37*
G36*
X58882D02*X56914D01*
Y3123D01*
X58882D01*
Y5877D01*
G37*
G36*
X63160D02*X61192D01*
Y3123D01*
X63160D01*
Y5877D01*
G37*
G36*
X53373Y9484D02*Y7516D01*
X56127D01*
Y9484D01*
X53373D01*
G37*
G36*
Y12632D02*Y10664D01*
X56127D01*
Y12632D01*
X53373D01*
G37*
G36*
X57373Y9484D02*Y7516D01*
X60127D01*
Y9484D01*
X57373D01*
G37*
G36*
Y12632D02*Y10664D01*
X60127D01*
Y12632D01*
X57373D01*
G37*
G36*
X66308Y5877D02*X64340D01*
Y3123D01*
X66308D01*
Y5877D01*
G37*
G36*
X3018Y11640D02*Y7704D01*
X36482D01*
Y11640D01*
X3018D01*
G37*
G54D13*X62250Y41000D03*
G54D11*G36*
X3018Y41168D02*Y37232D01*
X36482D01*
Y41168D01*
X3018D01*
G37*
G54D12*X61400Y30100D02*X64400D01*
X65100Y30800D01*
G54D11*G36*
X64800Y31100D02*Y30500D01*
X65900D01*
Y31100D01*
X64800D01*
G37*
G54D12*X63500Y30700D02*X64100Y30100D01*
X62900D02*X63500Y30700D01*
X60700Y30800D02*X61400Y30100D01*
G54D11*G36*
X58900Y31100D02*Y30500D01*
X61000D01*
Y31100D01*
X58900D01*
G37*
G54D12*X61700Y30100D02*X62300Y30700D01*
X62900Y30100D01*
X60800Y32100D02*X61400Y32700D01*
G54D11*G36*
X58900Y32400D02*Y31800D01*
X61100D01*
Y32400D01*
X58900D01*
G37*
G54D12*X61600Y32700D02*X62300Y32000D01*
X61400Y32700D02*X61600D01*
X61400D02*X64500D01*
X62300Y32000D02*X63000Y32700D01*
X62800D02*X63500Y32000D01*
X64200Y32700D01*
X61400Y26100D02*X64400D01*
X65100Y26800D01*
G54D11*G36*
X64800Y27100D02*Y26500D01*
X65900D01*
Y27100D01*
X64800D01*
G37*
G54D12*X63500Y26700D02*X64100Y26100D01*
X62900D02*X63500Y26700D01*
X60700Y26800D02*X61400Y26100D01*
G54D11*G36*
X58900Y27100D02*Y26500D01*
X61000D01*
Y27100D01*
X58900D01*
G37*
G54D12*X61700Y26100D02*X62300Y26700D01*
X62900Y26100D01*
X61400Y28700D02*X64500D01*
X60800Y28100D02*X61400Y28700D01*
X61600D01*
X62800D02*X63500Y28000D01*
X64200Y28700D01*
G54D11*G36*
X58900Y28400D02*Y27800D01*
X61100D01*
Y28400D01*
X58900D01*
G37*
G36*
X8924Y31326D02*Y27388D01*
X36482D01*
Y31326D01*
X8924D01*
G37*
G36*
Y21484D02*Y17546D01*
X36482D01*
Y21484D01*
X8924D01*
G37*
G54D12*X61600Y28700D02*X62300Y28000D01*
X63000Y28700D01*
G54D14*X60000Y30000D03*
Y26000D03*
X50500Y34000D03*
X52156Y4158D03*
X51500Y12000D03*
X72500Y44500D03*
Y41500D03*
X49000D03*
X69500Y44500D03*
Y41500D03*
Y38500D03*
X72500D03*
G54D15*M02*
