G04 start of page 15 for group -4015 idx -4015 *
G04 Title: (unknown), toppaste *
G04 Creator: pcb 4.2.0 *
G04 CreationDate: Fri Jun 19 09:17:45 2020 UTC *
G04 For: commonadmin *
G04 Format: Gerber/RS-274X *
G04 PCB-Dimensions (mil): 6000.00 5000.00 *
G04 PCB-Coordinate-Origin: lower left *
%MOIN*%
%FSLAX25Y25*%
%LNTOPPASTE*%
%ADD56C,0.0060*%
%ADD55C,0.0394*%
%ADD54C,0.0001*%
G54D54*G36*
X53373Y9484D02*Y7516D01*
X56127D01*
Y9484D01*
X53373D01*
G37*
G36*
Y12632D02*Y10664D01*
X56127D01*
Y12632D01*
X53373D01*
G37*
G36*
X57373Y9484D02*Y7516D01*
X60127D01*
Y9484D01*
X57373D01*
G37*
G36*
Y12632D02*Y10664D01*
X60127D01*
Y12632D01*
X57373D01*
G37*
G36*
X55734Y5877D02*X53766D01*
Y3123D01*
X55734D01*
Y5877D01*
G37*
G36*
X58882D02*X56914D01*
Y3123D01*
X58882D01*
Y5877D01*
G37*
G36*
X63160D02*X61192D01*
Y3123D01*
X63160D01*
Y5877D01*
G37*
G36*
X66308D02*X64340D01*
Y3123D01*
X66308D01*
Y5877D01*
G37*
G54D55*X72250Y31000D03*
X62250Y41000D03*
G54D56*X61400Y30100D02*X64400D01*
X65100Y30800D01*
X60700D02*X61400Y30100D01*
G54D54*G36*
X58900Y31100D02*Y30500D01*
X61000D01*
Y31100D01*
X58900D01*
G37*
G36*
X64800D02*Y30500D01*
X65900D01*
Y31100D01*
X64800D01*
G37*
G54D56*X61700Y30100D02*X62300Y30700D01*
X62900Y30100D01*
X63500Y30700D02*X64100Y30100D01*
X62900D02*X63500Y30700D01*
X61400Y32700D02*X64500D01*
X65100Y32100D01*
X60800D02*X61400Y32700D01*
G54D54*G36*
X58900Y32400D02*Y31800D01*
X61100D01*
Y32400D01*
X58900D01*
G37*
G36*
X64800D02*Y31800D01*
X65900D01*
Y32400D01*
X64800D01*
G37*
G54D56*X61600Y32700D02*X62300Y32000D01*
X61400Y32700D02*X61600D01*
X62300Y32000D02*X63000Y32700D01*
X62800D02*X63500Y32000D01*
X64200Y32700D01*
X61400Y26100D02*X64400D01*
X65100Y26800D01*
X60700D02*X61400Y26100D01*
G54D54*G36*
X58900Y27100D02*Y26500D01*
X61000D01*
Y27100D01*
X58900D01*
G37*
G36*
X64800D02*Y26500D01*
X65900D01*
Y27100D01*
X64800D01*
G37*
G54D56*X61700Y26100D02*X62300Y26700D01*
X62900Y26100D01*
X63500Y26700D02*X64100Y26100D01*
X62900D02*X63500Y26700D01*
X61400Y28700D02*X64500D01*
X65100Y28100D01*
X60800D02*X61400Y28700D01*
G54D54*G36*
X58900Y28400D02*Y27800D01*
X61100D01*
Y28400D01*
X58900D01*
G37*
G36*
X64800D02*Y27800D01*
X65900D01*
Y28400D01*
X64800D01*
G37*
G54D56*X61600Y28700D02*X62300Y28000D01*
X61400Y28700D02*X61600D01*
X62300Y28000D02*X63000Y28700D01*
X62800D02*X63500Y28000D01*
X64200Y28700D01*
G54D54*G36*
X3018Y41168D02*Y37232D01*
X36482D01*
Y41168D01*
X3018D01*
G37*
G36*
X8924Y31326D02*Y27388D01*
X36482D01*
Y31326D01*
X8924D01*
G37*
G36*
Y21484D02*Y17546D01*
X36482D01*
Y21484D01*
X8924D01*
G37*
G36*
X3018Y11640D02*Y7704D01*
X36482D01*
Y11640D01*
X3018D01*
G37*
M02*
