<?xml version="1.0" encoding="UTF-8"?>
<svg xmlns="http://www.w3.org/2000/svg" xmlns:xlink="http://www.w3.org/1999/xlink" width="378pt" height="45pt" viewBox="0 0 378 45" version="1.1">
<g id="surface1">
<path style="fill:none;stroke-width:0.006;stroke-linecap:round;stroke-linejoin:miter;stroke:rgb(100%,49.803922%,45.098039%);stroke-opacity:1;stroke-miterlimit:10;" d="M 0.0000259495 0.599989 L 5.000026 0.599989 " transform="matrix(72,0,0,-72,9.2286,43.6914)"/>
<path style="fill:none;stroke-width:0.006;stroke-linecap:round;stroke-linejoin:miter;stroke:rgb(100%,49.803922%,45.098039%);stroke-opacity:1;stroke-miterlimit:10;" d="M 5.000026 0.599989 L 5.000026 -0.0000000871304 " transform="matrix(72,0,0,-72,9.2286,43.6914)"/>
<path style="fill:none;stroke-width:0.006;stroke-linecap:round;stroke-linejoin:miter;stroke:rgb(100%,49.803922%,45.098039%);stroke-opacity:1;stroke-miterlimit:10;" d="M 0.0000259495 0.599989 L 0.0000259495 -0.0000000871304 " transform="matrix(72,0,0,-72,9.2286,43.6914)"/>
<path style="fill:none;stroke-width:0.006;stroke-linecap:round;stroke-linejoin:miter;stroke:rgb(100%,49.803922%,45.098039%);stroke-opacity:1;stroke-miterlimit:10;" d="M 0.0000259495 -0.0000000871304 L 5.000026 -0.0000000871304 " transform="matrix(72,0,0,-72,9.2286,43.6914)"/>
<path style=" stroke:none;fill-rule:evenodd;fill:rgb(45.098039%,45.098039%,87.058824%);fill-opacity:1;" d="M 67.910156 14.890625 C 67.910156 13.453125 65.75 13.453125 65.75 14.890625 C 65.75 16.332031 67.910156 16.332031 67.910156 14.890625 "/>
<path style=" stroke:none;fill-rule:evenodd;fill:rgb(45.098039%,45.098039%,87.058824%);fill-opacity:1;" d="M 67.910156 36.492188 C 67.910156 35.050781 65.75 35.050781 65.75 36.492188 C 65.75 37.929688 67.910156 37.929688 67.910156 36.492188 "/>
<path style=" stroke:none;fill-rule:evenodd;fill:rgb(45.098039%,45.098039%,87.058824%);fill-opacity:1;" d="M 75.109375 14.890625 C 75.109375 13.453125 72.949219 13.453125 72.949219 14.890625 C 72.949219 16.332031 75.109375 16.332031 75.109375 14.890625 "/>
<path style=" stroke:none;fill-rule:evenodd;fill:rgb(45.098039%,45.098039%,87.058824%);fill-opacity:1;" d="M 75.109375 36.492188 C 75.109375 35.050781 72.949219 35.050781 72.949219 36.492188 C 72.949219 37.929688 75.109375 37.929688 75.109375 36.492188 "/>
<path style=" stroke:none;fill-rule:evenodd;fill:rgb(45.098039%,45.098039%,87.058824%);fill-opacity:1;" d="M 147.109375 14.890625 C 147.109375 13.453125 144.949219 13.453125 144.949219 14.890625 C 144.949219 16.332031 147.109375 16.332031 147.109375 14.890625 "/>
<path style=" stroke:none;fill-rule:evenodd;fill:rgb(45.098039%,45.098039%,87.058824%);fill-opacity:1;" d="M 147.109375 36.492188 C 147.109375 35.050781 144.949219 35.050781 144.949219 36.492188 C 144.949219 37.929688 147.109375 37.929688 147.109375 36.492188 "/>
<path style=" stroke:none;fill-rule:evenodd;fill:rgb(45.098039%,45.098039%,87.058824%);fill-opacity:1;" d="M 154.308594 14.890625 C 154.308594 13.453125 152.148438 13.453125 152.148438 14.890625 C 152.148438 16.332031 154.308594 16.332031 154.308594 14.890625 "/>
<path style=" stroke:none;fill-rule:evenodd;fill:rgb(45.098039%,45.098039%,87.058824%);fill-opacity:1;" d="M 154.308594 36.492188 C 154.308594 35.050781 152.148438 35.050781 152.148438 36.492188 C 152.148438 37.929688 154.308594 37.929688 154.308594 36.492188 "/>
<path style=" stroke:none;fill-rule:evenodd;fill:rgb(45.098039%,45.098039%,87.058824%);fill-opacity:1;" d="M 226.308594 14.890625 C 226.308594 13.453125 224.148438 13.453125 224.148438 14.890625 C 224.148438 16.332031 226.308594 16.332031 226.308594 14.890625 "/>
<path style=" stroke:none;fill-rule:evenodd;fill:rgb(45.098039%,45.098039%,87.058824%);fill-opacity:1;" d="M 226.308594 36.492188 C 226.308594 35.050781 224.148438 35.050781 224.148438 36.492188 C 224.148438 37.929688 226.308594 37.929688 226.308594 36.492188 "/>
<path style=" stroke:none;fill-rule:evenodd;fill:rgb(45.098039%,45.098039%,87.058824%);fill-opacity:1;" d="M 233.507812 14.890625 C 233.507812 13.453125 231.347656 13.453125 231.347656 14.890625 C 231.347656 16.332031 233.507812 16.332031 233.507812 14.890625 "/>
<path style=" stroke:none;fill-rule:evenodd;fill:rgb(45.098039%,45.098039%,87.058824%);fill-opacity:1;" d="M 233.507812 36.492188 C 233.507812 35.050781 231.347656 35.050781 231.347656 36.492188 C 231.347656 37.929688 233.507812 37.929688 233.507812 36.492188 "/>
<path style=" stroke:none;fill-rule:evenodd;fill:rgb(45.098039%,45.098039%,87.058824%);fill-opacity:1;" d="M 305.507812 14.890625 C 305.507812 13.453125 303.347656 13.453125 303.347656 14.890625 C 303.347656 16.332031 305.507812 16.332031 305.507812 14.890625 "/>
<path style=" stroke:none;fill-rule:evenodd;fill:rgb(45.098039%,45.098039%,87.058824%);fill-opacity:1;" d="M 305.507812 36.492188 C 305.507812 35.050781 303.347656 35.050781 303.347656 36.492188 C 303.347656 37.929688 305.507812 37.929688 305.507812 36.492188 "/>
<path style=" stroke:none;fill-rule:evenodd;fill:rgb(45.098039%,45.098039%,87.058824%);fill-opacity:1;" d="M 46.488281 22.089844 C 46.488281 20.410156 43.96875 20.410156 43.96875 22.089844 C 43.96875 23.769531 46.488281 23.769531 46.488281 22.089844 "/>
<path style=" stroke:none;fill-rule:evenodd;fill:rgb(45.098039%,45.098039%,87.058824%);fill-opacity:1;" d="M 46.488281 29.292969 C 46.488281 27.613281 43.96875 27.613281 43.96875 29.292969 C 43.96875 30.972656 46.488281 30.972656 46.488281 29.292969 "/>
<path style=" stroke:none;fill-rule:evenodd;fill:rgb(45.098039%,45.098039%,87.058824%);fill-opacity:1;" d="M 334.488281 14.890625 C 334.488281 13.210938 331.96875 13.210938 331.96875 14.890625 C 331.96875 16.570312 334.488281 16.570312 334.488281 14.890625 "/>
<path style=" stroke:none;fill-rule:evenodd;fill:rgb(45.098039%,45.098039%,87.058824%);fill-opacity:1;" d="M 334.488281 22.089844 C 334.488281 20.410156 331.96875 20.410156 331.96875 22.089844 C 331.96875 23.769531 334.488281 23.769531 334.488281 22.089844 "/>
<path style=" stroke:none;fill-rule:evenodd;fill:rgb(45.098039%,45.098039%,87.058824%);fill-opacity:1;" d="M 68.628906 7.691406 C 68.628906 5.292969 65.027344 5.292969 65.027344 7.691406 C 65.027344 10.089844 68.628906 10.089844 68.628906 7.691406 "/>
<path style=" stroke:none;fill-rule:evenodd;fill:rgb(45.098039%,45.098039%,87.058824%);fill-opacity:1;" d="M 83.027344 29.292969 C 83.027344 26.890625 79.429688 26.890625 79.429688 29.292969 C 79.429688 31.691406 83.027344 31.691406 83.027344 29.292969 "/>
<path style=" stroke:none;fill-rule:evenodd;fill:rgb(45.098039%,45.098039%,87.058824%);fill-opacity:1;" d="M 126.230469 7.691406 C 126.230469 5.292969 122.628906 5.292969 122.628906 7.691406 C 122.628906 10.089844 126.230469 10.089844 126.230469 7.691406 "/>
<path style=" stroke:none;fill-rule:evenodd;fill:rgb(45.098039%,45.098039%,87.058824%);fill-opacity:1;" d="M 133.429688 7.691406 C 133.429688 5.292969 129.828125 5.292969 129.828125 7.691406 C 129.828125 10.089844 133.429688 10.089844 133.429688 7.691406 "/>
<path style=" stroke:none;fill-rule:evenodd;fill:rgb(45.098039%,45.098039%,87.058824%);fill-opacity:1;" d="M 140.628906 29.292969 C 140.628906 26.890625 137.027344 26.890625 137.027344 29.292969 C 137.027344 31.691406 140.628906 31.691406 140.628906 29.292969 "/>
<path style=" stroke:none;fill-rule:evenodd;fill:rgb(45.098039%,45.098039%,87.058824%);fill-opacity:1;" d="M 162.230469 29.292969 C 162.230469 26.890625 158.628906 26.890625 158.628906 29.292969 C 158.628906 31.691406 162.230469 31.691406 162.230469 29.292969 "/>
<path style=" stroke:none;fill-rule:evenodd;fill:rgb(45.098039%,45.098039%,87.058824%);fill-opacity:1;" d="M 191.027344 7.691406 C 191.027344 5.292969 187.429688 5.292969 187.429688 7.691406 C 187.429688 10.089844 191.027344 10.089844 191.027344 7.691406 "/>
<path style=" stroke:none;fill-rule:evenodd;fill:rgb(45.098039%,45.098039%,87.058824%);fill-opacity:1;" d="M 198.230469 7.691406 C 198.230469 5.292969 194.628906 5.292969 194.628906 7.691406 C 194.628906 10.089844 198.230469 10.089844 198.230469 7.691406 "/>
<path style=" stroke:none;fill-rule:evenodd;fill:rgb(45.098039%,45.098039%,87.058824%);fill-opacity:1;" d="M 219.828125 29.292969 C 219.828125 26.890625 216.230469 26.890625 216.230469 29.292969 C 216.230469 31.691406 219.828125 31.691406 219.828125 29.292969 "/>
<path style=" stroke:none;fill-rule:evenodd;fill:rgb(45.098039%,45.098039%,87.058824%);fill-opacity:1;" d="M 241.429688 29.292969 C 241.429688 26.890625 237.828125 26.890625 237.828125 29.292969 C 237.828125 31.691406 241.429688 31.691406 241.429688 29.292969 "/>
<path style=" stroke:none;fill-rule:evenodd;fill:rgb(45.098039%,45.098039%,87.058824%);fill-opacity:1;" d="M 255.828125 7.691406 C 255.828125 5.292969 252.230469 5.292969 252.230469 7.691406 C 252.230469 10.089844 255.828125 10.089844 255.828125 7.691406 "/>
<path style=" stroke:none;fill-rule:evenodd;fill:rgb(45.098039%,45.098039%,87.058824%);fill-opacity:1;" d="M 299.027344 29.292969 C 299.027344 26.890625 295.429688 26.890625 295.429688 29.292969 C 295.429688 31.691406 299.027344 31.691406 299.027344 29.292969 "/>
<path style=" stroke:none;fill-rule:evenodd;fill:rgb(45.098039%,45.098039%,87.058824%);fill-opacity:1;" d="M 33.746094 7.691406 C 33.746094 3.804688 27.914062 3.804688 27.914062 7.691406 C 27.914062 11.578125 33.746094 11.578125 33.746094 7.691406 "/>
<path style=" stroke:none;fill-rule:evenodd;fill:rgb(45.098039%,45.098039%,87.058824%);fill-opacity:1;" d="M 33.746094 36.492188 C 33.746094 32.601562 27.914062 32.601562 27.914062 36.492188 C 27.914062 40.378906 33.746094 40.378906 33.746094 36.492188 "/>
<path style=" stroke:none;fill-rule:evenodd;fill:rgb(45.098039%,45.098039%,87.058824%);fill-opacity:1;" d="M 350.542969 7.691406 C 350.542969 3.804688 344.710938 3.804688 344.710938 7.691406 C 344.710938 11.578125 350.542969 11.578125 350.542969 7.691406 "/>
<path style=" stroke:none;fill-rule:evenodd;fill:rgb(45.098039%,45.098039%,87.058824%);fill-opacity:1;" d="M 350.542969 36.492188 C 350.542969 32.601562 344.710938 32.601562 344.710938 36.492188 C 344.710938 40.378906 350.542969 40.378906 350.542969 36.492188 "/>
</g>
</svg>
