  0
SECTION
  2
HEADER
  9
$ACADVER
  1
AC1009
  9
$FILLMODE
 70
 0
  9
$SPLFRAME
 70
 1
  9
$EXTMIN
 10
0
 20
0
 30
0.0
  9
$EXTMAX
 10
41.6667
 20
41.6667
 30
0.0
  0
ENDSEC
  0
SECTION
  2
TABLES
  0
TABLE
  2
LAYER
 70
1
  0
LAYER
  2
0
 70
     0
 62
     7
  6
CONTINUOUS
  0
ENDTAB
  0
ENDSEC
  0
SECTION
  2
ENTITIES
  0
POLYLINE
  8
0
 62
     13
 66
     1
 10
0
 20
0
 30
0.0
 40
0.432
 41
0.432
  0
VERTEX
  8
0
 10
0.00303819
 20
0.608074
 30
0.0
 40
0.006
 41
0.006
  0
VERTEX
  8
0
 10
5.00304
 20
0.608074
 30
0.0
 40
0.006
 41
0.006
  0
SEQEND
 8
0
  0
POLYLINE
  8
0
 62
     13
 66
     1
 10
0
 20
0
 30
0.0
 40
0.432
 41
0.432
  0
VERTEX
  8
0
 10
5.00304
 20
0.608074
 30
0.0
 40
0.006
 41
0.006
  0
VERTEX
  8
0
 10
5.00304
 20
0.00808376
 30
0.0
 40
0.006
 41
0.006
  0
SEQEND
 8
0
  0
POLYLINE
  8
0
 62
     13
 66
     1
 10
0
 20
0
 30
0.0
 40
0.432
 41
0.432
  0
VERTEX
  8
0
 10
0.00303819
 20
0.608074
 30
0.0
 40
0.006
 41
0.006
  0
VERTEX
  8
0
 10
0.00303819
 20
0.00808376
 30
0.0
 40
0.006
 41
0.006
  0
SEQEND
 8
0
  0
POLYLINE
  8
0
 62
     13
 66
     1
 10
0
 20
0
 30
0.0
 40
0.432
 41
0.432
  0
VERTEX
  8
0
 10
0.00303819
 20
0.00808376
 30
0.0
 40
0.006
 41
0.006
  0
VERTEX
  8
0
 10
5.00304
 20
0.00808376
 30
0.0
 40
0.006
 41
0.006
  0
SEQEND
 8
0
  0
POLYLINE
  8
0
 62
     173
 66
     1
 10
0
 20
0
 30
0.0
 70
     1
 40
0
 41
0
  0
VERTEX
  8
0
 10
0.818033
 20
0.408094
 30
0.0
 40
0
 41
0
  0
VERTEX
  8
0
 10
0.818033
 20
0.410915
 30
0.0
 40
0
 41
0
  0
VERTEX
  8
0
 10
0.813314
 20
0.419325
 30
0.0
 40
0
 41
0
  0
VERTEX
  8
0
 10
0.803006
 20
0.423068
 30
0.0
 40
0
 41
0
  0
VERTEX
  8
0
 10
0.792697
 20
0.419325
 30
0.0
 40
0
 41
0
  0
VERTEX
  8
0
 10
0.788032
 20
0.410915
 30
0.0
 40
0
 41
0
  0
VERTEX
  8
0
 10
0.788032
 20
0.408094
 30
0.0
 40
0
 41
0
  0
VERTEX
  8
0
 10
0.788032
 20
0.405328
 30
0.0
 40
0
 41
0
  0
VERTEX
  8
0
 10
0.792697
 20
0.396864
 30
0.0
 40
0
 41
0
  0
VERTEX
  8
0
 10
0.803006
 20
0.393121
 30
0.0
 40
0
 41
0
  0
VERTEX
  8
0
 10
0.813314
 20
0.396864
 30
0.0
 40
0
 41
0
  0
VERTEX
  8
0
 10
0.818033
 20
0.405328
 30
0.0
 40
0
 41
0
  0
VERTEX
  8
0
 10
0.818033
 20
0.408094
 30
0.0
 40
0
 41
0
  0
SEQEND
 8
0
  0
POLYLINE
  8
0
 62
     173
 66
     1
 10
0
 20
0
 30
0.0
 70
     1
 40
0
 41
0
  0
VERTEX
  8
0
 10
0.818033
 20
0.108073
 30
0.0
 40
0
 41
0
  0
VERTEX
  8
0
 10
0.818033
 20
0.110894
 30
0.0
 40
0
 41
0
  0
VERTEX
  8
0
 10
0.813314
 20
0.119358
 30
0.0
 40
0
 41
0
  0
VERTEX
  8
0
 10
0.803006
 20
0.123101
 30
0.0
 40
0
 41
0
  0
VERTEX
  8
0
 10
0.792697
 20
0.119358
 30
0.0
 40
0
 41
0
  0
VERTEX
  8
0
 10
0.788032
 20
0.110894
 30
0.0
 40
0
 41
0
  0
VERTEX
  8
0
 10
0.788032
 20
0.108073
 30
0.0
 40
0
 41
0
  0
VERTEX
  8
0
 10
0.788032
 20
0.105306
 30
0.0
 40
0
 41
0
  0
VERTEX
  8
0
 10
0.792697
 20
0.0968425
 30
0.0
 40
0
 41
0
  0
VERTEX
  8
0
 10
0.803006
 20
0.093099
 30
0.0
 40
0
 41
0
  0
VERTEX
  8
0
 10
0.813314
 20
0.0968425
 30
0.0
 40
0
 41
0
  0
VERTEX
  8
0
 10
0.818033
 20
0.105306
 30
0.0
 40
0
 41
0
  0
VERTEX
  8
0
 10
0.818033
 20
0.108073
 30
0.0
 40
0
 41
0
  0
SEQEND
 8
0
  0
POLYLINE
  8
0
 62
     173
 66
     1
 10
0
 20
0
 30
0.0
 70
     1
 40
0
 41
0
  0
VERTEX
  8
0
 10
0.918024
 20
0.408094
 30
0.0
 40
0
 41
0
  0
VERTEX
  8
0
 10
0.918024
 20
0.410915
 30
0.0
 40
0
 41
0
  0
VERTEX
  8
0
 10
0.913303
 20
0.419325
 30
0.0
 40
0
 41
0
  0
VERTEX
  8
0
 10
0.902994
 20
0.423068
 30
0.0
 40
0
 41
0
  0
VERTEX
  8
0
 10
0.892686
 20
0.419325
 30
0.0
 40
0
 41
0
  0
VERTEX
  8
0
 10
0.888021
 20
0.410915
 30
0.0
 40
0
 41
0
  0
VERTEX
  8
0
 10
0.888021
 20
0.408094
 30
0.0
 40
0
 41
0
  0
VERTEX
  8
0
 10
0.888021
 20
0.405328
 30
0.0
 40
0
 41
0
  0
VERTEX
  8
0
 10
0.892686
 20
0.396864
 30
0.0
 40
0
 41
0
  0
VERTEX
  8
0
 10
0.902994
 20
0.393121
 30
0.0
 40
0
 41
0
  0
VERTEX
  8
0
 10
0.913303
 20
0.396864
 30
0.0
 40
0
 41
0
  0
VERTEX
  8
0
 10
0.918024
 20
0.405328
 30
0.0
 40
0
 41
0
  0
VERTEX
  8
0
 10
0.918024
 20
0.408094
 30
0.0
 40
0
 41
0
  0
SEQEND
 8
0
  0
POLYLINE
  8
0
 62
     173
 66
     1
 10
0
 20
0
 30
0.0
 70
     1
 40
0
 41
0
  0
VERTEX
  8
0
 10
0.918024
 20
0.108073
 30
0.0
 40
0
 41
0
  0
VERTEX
  8
0
 10
0.918024
 20
0.110894
 30
0.0
 40
0
 41
0
  0
VERTEX
  8
0
 10
0.913303
 20
0.119358
 30
0.0
 40
0
 41
0
  0
VERTEX
  8
0
 10
0.902994
 20
0.123101
 30
0.0
 40
0
 41
0
  0
VERTEX
  8
0
 10
0.892686
 20
0.119358
 30
0.0
 40
0
 41
0
  0
VERTEX
  8
0
 10
0.888021
 20
0.110894
 30
0.0
 40
0
 41
0
  0
VERTEX
  8
0
 10
0.888021
 20
0.108073
 30
0.0
 40
0
 41
0
  0
VERTEX
  8
0
 10
0.888021
 20
0.105306
 30
0.0
 40
0
 41
0
  0
VERTEX
  8
0
 10
0.892686
 20
0.0968425
 30
0.0
 40
0
 41
0
  0
VERTEX
  8
0
 10
0.902994
 20
0.093099
 30
0.0
 40
0
 41
0
  0
VERTEX
  8
0
 10
0.913303
 20
0.0968425
 30
0.0
 40
0
 41
0
  0
VERTEX
  8
0
 10
0.918024
 20
0.105306
 30
0.0
 40
0
 41
0
  0
VERTEX
  8
0
 10
0.918024
 20
0.108073
 30
0.0
 40
0
 41
0
  0
SEQEND
 8
0
  0
POLYLINE
  8
0
 62
     173
 66
     1
 10
0
 20
0
 30
0.0
 70
     1
 40
0
 41
0
  0
VERTEX
  8
0
 10
1.91803
 20
0.408094
 30
0.0
 40
0
 41
0
  0
VERTEX
  8
0
 10
1.91803
 20
0.410915
 30
0.0
 40
0
 41
0
  0
VERTEX
  8
0
 10
1.91331
 20
0.419325
 30
0.0
 40
0
 41
0
  0
VERTEX
  8
0
 10
1.903
 20
0.423068
 30
0.0
 40
0
 41
0
  0
VERTEX
  8
0
 10
1.89268
 20
0.419325
 30
0.0
 40
0
 41
0
  0
VERTEX
  8
0
 10
1.88803
 20
0.410915
 30
0.0
 40
0
 41
0
  0
VERTEX
  8
0
 10
1.88803
 20
0.408094
 30
0.0
 40
0
 41
0
  0
VERTEX
  8
0
 10
1.88803
 20
0.405328
 30
0.0
 40
0
 41
0
  0
VERTEX
  8
0
 10
1.89268
 20
0.396864
 30
0.0
 40
0
 41
0
  0
VERTEX
  8
0
 10
1.903
 20
0.393121
 30
0.0
 40
0
 41
0
  0
VERTEX
  8
0
 10
1.91331
 20
0.396864
 30
0.0
 40
0
 41
0
  0
VERTEX
  8
0
 10
1.91803
 20
0.405328
 30
0.0
 40
0
 41
0
  0
VERTEX
  8
0
 10
1.91803
 20
0.408094
 30
0.0
 40
0
 41
0
  0
SEQEND
 8
0
  0
POLYLINE
  8
0
 62
     173
 66
     1
 10
0
 20
0
 30
0.0
 70
     1
 40
0
 41
0
  0
VERTEX
  8
0
 10
1.91803
 20
0.108073
 30
0.0
 40
0
 41
0
  0
VERTEX
  8
0
 10
1.91803
 20
0.110894
 30
0.0
 40
0
 41
0
  0
VERTEX
  8
0
 10
1.91331
 20
0.119358
 30
0.0
 40
0
 41
0
  0
VERTEX
  8
0
 10
1.903
 20
0.123101
 30
0.0
 40
0
 41
0
  0
VERTEX
  8
0
 10
1.89268
 20
0.119358
 30
0.0
 40
0
 41
0
  0
VERTEX
  8
0
 10
1.88803
 20
0.110894
 30
0.0
 40
0
 41
0
  0
VERTEX
  8
0
 10
1.88803
 20
0.108073
 30
0.0
 40
0
 41
0
  0
VERTEX
  8
0
 10
1.88803
 20
0.105306
 30
0.0
 40
0
 41
0
  0
VERTEX
  8
0
 10
1.89268
 20
0.0968425
 30
0.0
 40
0
 41
0
  0
VERTEX
  8
0
 10
1.903
 20
0.093099
 30
0.0
 40
0
 41
0
  0
VERTEX
  8
0
 10
1.91331
 20
0.0968425
 30
0.0
 40
0
 41
0
  0
VERTEX
  8
0
 10
1.91803
 20
0.105306
 30
0.0
 40
0
 41
0
  0
VERTEX
  8
0
 10
1.91803
 20
0.108073
 30
0.0
 40
0
 41
0
  0
SEQEND
 8
0
  0
POLYLINE
  8
0
 62
     173
 66
     1
 10
0
 20
0
 30
0.0
 70
     1
 40
0
 41
0
  0
VERTEX
  8
0
 10
2.01801
 20
0.408094
 30
0.0
 40
0
 41
0
  0
VERTEX
  8
0
 10
2.01801
 20
0.410915
 30
0.0
 40
0
 41
0
  0
VERTEX
  8
0
 10
2.01329
 20
0.419325
 30
0.0
 40
0
 41
0
  0
VERTEX
  8
0
 10
2.00299
 20
0.423068
 30
0.0
 40
0
 41
0
  0
VERTEX
  8
0
 10
1.99268
 20
0.419325
 30
0.0
 40
0
 41
0
  0
VERTEX
  8
0
 10
1.98801
 20
0.410915
 30
0.0
 40
0
 41
0
  0
VERTEX
  8
0
 10
1.98801
 20
0.408094
 30
0.0
 40
0
 41
0
  0
VERTEX
  8
0
 10
1.98801
 20
0.405328
 30
0.0
 40
0
 41
0
  0
VERTEX
  8
0
 10
1.99268
 20
0.396864
 30
0.0
 40
0
 41
0
  0
VERTEX
  8
0
 10
2.00299
 20
0.393121
 30
0.0
 40
0
 41
0
  0
VERTEX
  8
0
 10
2.01329
 20
0.396864
 30
0.0
 40
0
 41
0
  0
VERTEX
  8
0
 10
2.01801
 20
0.405328
 30
0.0
 40
0
 41
0
  0
VERTEX
  8
0
 10
2.01801
 20
0.408094
 30
0.0
 40
0
 41
0
  0
SEQEND
 8
0
  0
POLYLINE
  8
0
 62
     173
 66
     1
 10
0
 20
0
 30
0.0
 70
     1
 40
0
 41
0
  0
VERTEX
  8
0
 10
2.01801
 20
0.108073
 30
0.0
 40
0
 41
0
  0
VERTEX
  8
0
 10
2.01801
 20
0.110894
 30
0.0
 40
0
 41
0
  0
VERTEX
  8
0
 10
2.01329
 20
0.119358
 30
0.0
 40
0
 41
0
  0
VERTEX
  8
0
 10
2.00299
 20
0.123101
 30
0.0
 40
0
 41
0
  0
VERTEX
  8
0
 10
1.99268
 20
0.119358
 30
0.0
 40
0
 41
0
  0
VERTEX
  8
0
 10
1.98801
 20
0.110894
 30
0.0
 40
0
 41
0
  0
VERTEX
  8
0
 10
1.98801
 20
0.108073
 30
0.0
 40
0
 41
0
  0
VERTEX
  8
0
 10
1.98801
 20
0.105306
 30
0.0
 40
0
 41
0
  0
VERTEX
  8
0
 10
1.99268
 20
0.0968425
 30
0.0
 40
0
 41
0
  0
VERTEX
  8
0
 10
2.00299
 20
0.093099
 30
0.0
 40
0
 41
0
  0
VERTEX
  8
0
 10
2.01329
 20
0.0968425
 30
0.0
 40
0
 41
0
  0
VERTEX
  8
0
 10
2.01801
 20
0.105306
 30
0.0
 40
0
 41
0
  0
VERTEX
  8
0
 10
2.01801
 20
0.108073
 30
0.0
 40
0
 41
0
  0
SEQEND
 8
0
  0
POLYLINE
  8
0
 62
     173
 66
     1
 10
0
 20
0
 30
0.0
 70
     1
 40
0
 41
0
  0
VERTEX
  8
0
 10
3.01801
 20
0.408094
 30
0.0
 40
0
 41
0
  0
VERTEX
  8
0
 10
3.01801
 20
0.410915
 30
0.0
 40
0
 41
0
  0
VERTEX
  8
0
 10
3.01329
 20
0.419325
 30
0.0
 40
0
 41
0
  0
VERTEX
  8
0
 10
3.00299
 20
0.423068
 30
0.0
 40
0
 41
0
  0
VERTEX
  8
0
 10
2.99268
 20
0.419325
 30
0.0
 40
0
 41
0
  0
VERTEX
  8
0
 10
2.98801
 20
0.410915
 30
0.0
 40
0
 41
0
  0
VERTEX
  8
0
 10
2.98801
 20
0.408094
 30
0.0
 40
0
 41
0
  0
VERTEX
  8
0
 10
2.98801
 20
0.405328
 30
0.0
 40
0
 41
0
  0
VERTEX
  8
0
 10
2.99268
 20
0.396864
 30
0.0
 40
0
 41
0
  0
VERTEX
  8
0
 10
3.00299
 20
0.393121
 30
0.0
 40
0
 41
0
  0
VERTEX
  8
0
 10
3.01329
 20
0.396864
 30
0.0
 40
0
 41
0
  0
VERTEX
  8
0
 10
3.01801
 20
0.405328
 30
0.0
 40
0
 41
0
  0
VERTEX
  8
0
 10
3.01801
 20
0.408094
 30
0.0
 40
0
 41
0
  0
SEQEND
 8
0
  0
POLYLINE
  8
0
 62
     173
 66
     1
 10
0
 20
0
 30
0.0
 70
     1
 40
0
 41
0
  0
VERTEX
  8
0
 10
3.01801
 20
0.108073
 30
0.0
 40
0
 41
0
  0
VERTEX
  8
0
 10
3.01801
 20
0.110894
 30
0.0
 40
0
 41
0
  0
VERTEX
  8
0
 10
3.01329
 20
0.119358
 30
0.0
 40
0
 41
0
  0
VERTEX
  8
0
 10
3.00299
 20
0.123101
 30
0.0
 40
0
 41
0
  0
VERTEX
  8
0
 10
2.99268
 20
0.119358
 30
0.0
 40
0
 41
0
  0
VERTEX
  8
0
 10
2.98801
 20
0.110894
 30
0.0
 40
0
 41
0
  0
VERTEX
  8
0
 10
2.98801
 20
0.108073
 30
0.0
 40
0
 41
0
  0
VERTEX
  8
0
 10
2.98801
 20
0.105306
 30
0.0
 40
0
 41
0
  0
VERTEX
  8
0
 10
2.99268
 20
0.0968425
 30
0.0
 40
0
 41
0
  0
VERTEX
  8
0
 10
3.00299
 20
0.093099
 30
0.0
 40
0
 41
0
  0
VERTEX
  8
0
 10
3.01329
 20
0.0968425
 30
0.0
 40
0
 41
0
  0
VERTEX
  8
0
 10
3.01801
 20
0.105306
 30
0.0
 40
0
 41
0
  0
VERTEX
  8
0
 10
3.01801
 20
0.108073
 30
0.0
 40
0
 41
0
  0
SEQEND
 8
0
  0
POLYLINE
  8
0
 62
     173
 66
     1
 10
0
 20
0
 30
0.0
 70
     1
 40
0
 41
0
  0
VERTEX
  8
0
 10
3.118
 20
0.408094
 30
0.0
 40
0
 41
0
  0
VERTEX
  8
0
 10
3.118
 20
0.410915
 30
0.0
 40
0
 41
0
  0
VERTEX
  8
0
 10
3.11328
 20
0.419325
 30
0.0
 40
0
 41
0
  0
VERTEX
  8
0
 10
3.10297
 20
0.423068
 30
0.0
 40
0
 41
0
  0
VERTEX
  8
0
 10
3.09267
 20
0.419325
 30
0.0
 40
0
 41
0
  0
VERTEX
  8
0
 10
3.088
 20
0.410915
 30
0.0
 40
0
 41
0
  0
VERTEX
  8
0
 10
3.088
 20
0.408094
 30
0.0
 40
0
 41
0
  0
VERTEX
  8
0
 10
3.088
 20
0.405328
 30
0.0
 40
0
 41
0
  0
VERTEX
  8
0
 10
3.09267
 20
0.396864
 30
0.0
 40
0
 41
0
  0
VERTEX
  8
0
 10
3.10297
 20
0.393121
 30
0.0
 40
0
 41
0
  0
VERTEX
  8
0
 10
3.11328
 20
0.396864
 30
0.0
 40
0
 41
0
  0
VERTEX
  8
0
 10
3.118
 20
0.405328
 30
0.0
 40
0
 41
0
  0
VERTEX
  8
0
 10
3.118
 20
0.408094
 30
0.0
 40
0
 41
0
  0
SEQEND
 8
0
  0
POLYLINE
  8
0
 62
     173
 66
     1
 10
0
 20
0
 30
0.0
 70
     1
 40
0
 41
0
  0
VERTEX
  8
0
 10
3.118
 20
0.108073
 30
0.0
 40
0
 41
0
  0
VERTEX
  8
0
 10
3.118
 20
0.110894
 30
0.0
 40
0
 41
0
  0
VERTEX
  8
0
 10
3.11328
 20
0.119358
 30
0.0
 40
0
 41
0
  0
VERTEX
  8
0
 10
3.10297
 20
0.123101
 30
0.0
 40
0
 41
0
  0
VERTEX
  8
0
 10
3.09267
 20
0.119358
 30
0.0
 40
0
 41
0
  0
VERTEX
  8
0
 10
3.088
 20
0.110894
 30
0.0
 40
0
 41
0
  0
VERTEX
  8
0
 10
3.088
 20
0.108073
 30
0.0
 40
0
 41
0
  0
VERTEX
  8
0
 10
3.088
 20
0.105306
 30
0.0
 40
0
 41
0
  0
VERTEX
  8
0
 10
3.09267
 20
0.0968425
 30
0.0
 40
0
 41
0
  0
VERTEX
  8
0
 10
3.10297
 20
0.093099
 30
0.0
 40
0
 41
0
  0
VERTEX
  8
0
 10
3.11328
 20
0.0968425
 30
0.0
 40
0
 41
0
  0
VERTEX
  8
0
 10
3.118
 20
0.105306
 30
0.0
 40
0
 41
0
  0
VERTEX
  8
0
 10
3.118
 20
0.108073
 30
0.0
 40
0
 41
0
  0
SEQEND
 8
0
  0
POLYLINE
  8
0
 62
     173
 66
     1
 10
0
 20
0
 30
0.0
 70
     1
 40
0
 41
0
  0
VERTEX
  8
0
 10
4.118
 20
0.408094
 30
0.0
 40
0
 41
0
  0
VERTEX
  8
0
 10
4.118
 20
0.410915
 30
0.0
 40
0
 41
0
  0
VERTEX
  8
0
 10
4.11328
 20
0.419325
 30
0.0
 40
0
 41
0
  0
VERTEX
  8
0
 10
4.10297
 20
0.423068
 30
0.0
 40
0
 41
0
  0
VERTEX
  8
0
 10
4.09267
 20
0.419325
 30
0.0
 40
0
 41
0
  0
VERTEX
  8
0
 10
4.088
 20
0.410915
 30
0.0
 40
0
 41
0
  0
VERTEX
  8
0
 10
4.088
 20
0.408094
 30
0.0
 40
0
 41
0
  0
VERTEX
  8
0
 10
4.088
 20
0.405328
 30
0.0
 40
0
 41
0
  0
VERTEX
  8
0
 10
4.09267
 20
0.396864
 30
0.0
 40
0
 41
0
  0
VERTEX
  8
0
 10
4.10297
 20
0.393121
 30
0.0
 40
0
 41
0
  0
VERTEX
  8
0
 10
4.11328
 20
0.396864
 30
0.0
 40
0
 41
0
  0
VERTEX
  8
0
 10
4.118
 20
0.405328
 30
0.0
 40
0
 41
0
  0
VERTEX
  8
0
 10
4.118
 20
0.408094
 30
0.0
 40
0
 41
0
  0
SEQEND
 8
0
  0
POLYLINE
  8
0
 62
     173
 66
     1
 10
0
 20
0
 30
0.0
 70
     1
 40
0
 41
0
  0
VERTEX
  8
0
 10
4.118
 20
0.108073
 30
0.0
 40
0
 41
0
  0
VERTEX
  8
0
 10
4.118
 20
0.110894
 30
0.0
 40
0
 41
0
  0
VERTEX
  8
0
 10
4.11328
 20
0.119358
 30
0.0
 40
0
 41
0
  0
VERTEX
  8
0
 10
4.10297
 20
0.123101
 30
0.0
 40
0
 41
0
  0
VERTEX
  8
0
 10
4.09267
 20
0.119358
 30
0.0
 40
0
 41
0
  0
VERTEX
  8
0
 10
4.088
 20
0.110894
 30
0.0
 40
0
 41
0
  0
VERTEX
  8
0
 10
4.088
 20
0.108073
 30
0.0
 40
0
 41
0
  0
VERTEX
  8
0
 10
4.088
 20
0.105306
 30
0.0
 40
0
 41
0
  0
VERTEX
  8
0
 10
4.09267
 20
0.0968425
 30
0.0
 40
0
 41
0
  0
VERTEX
  8
0
 10
4.10297
 20
0.093099
 30
0.0
 40
0
 41
0
  0
VERTEX
  8
0
 10
4.11328
 20
0.0968425
 30
0.0
 40
0
 41
0
  0
VERTEX
  8
0
 10
4.118
 20
0.105306
 30
0.0
 40
0
 41
0
  0
VERTEX
  8
0
 10
4.118
 20
0.108073
 30
0.0
 40
0
 41
0
  0
SEQEND
 8
0
  0
POLYLINE
  8
0
 62
     173
 66
     1
 10
0
 20
0
 30
0.0
 70
     1
 40
0
 41
0
  0
VERTEX
  8
0
 10
0.520508
 20
0.308106
 30
0.0
 40
0
 41
0
  0
VERTEX
  8
0
 10
0.520508
 20
0.311415
 30
0.0
 40
0
 41
0
  0
VERTEX
  8
0
 10
0.515028
 20
0.321235
 30
0.0
 40
0
 41
0
  0
VERTEX
  8
0
 10
0.502983
 20
0.325629
 30
0.0
 40
0
 41
0
  0
VERTEX
  8
0
 10
0.49094
 20
0.321235
 30
0.0
 40
0
 41
0
  0
VERTEX
  8
0
 10
0.485514
 20
0.311415
 30
0.0
 40
0
 41
0
  0
VERTEX
  8
0
 10
0.485514
 20
0.308106
 30
0.0
 40
0
 41
0
  0
VERTEX
  8
0
 10
0.485514
 20
0.30485
 30
0.0
 40
0
 41
0
  0
VERTEX
  8
0
 10
0.49094
 20
0.295031
 30
0.0
 40
0
 41
0
  0
VERTEX
  8
0
 10
0.502983
 20
0.290636
 30
0.0
 40
0
 41
0
  0
VERTEX
  8
0
 10
0.515028
 20
0.295031
 30
0.0
 40
0
 41
0
  0
VERTEX
  8
0
 10
0.520508
 20
0.30485
 30
0.0
 40
0
 41
0
  0
VERTEX
  8
0
 10
0.520508
 20
0.308106
 30
0.0
 40
0
 41
0
  0
SEQEND
 8
0
  0
POLYLINE
  8
0
 62
     173
 66
     1
 10
0
 20
0
 30
0.0
 70
     1
 40
0
 41
0
  0
VERTEX
  8
0
 10
0.520508
 20
0.208063
 30
0.0
 40
0
 41
0
  0
VERTEX
  8
0
 10
0.520508
 20
0.211372
 30
0.0
 40
0
 41
0
  0
VERTEX
  8
0
 10
0.515028
 20
0.221192
 30
0.0
 40
0
 41
0
  0
VERTEX
  8
0
 10
0.502983
 20
0.225586
 30
0.0
 40
0
 41
0
  0
VERTEX
  8
0
 10
0.49094
 20
0.221192
 30
0.0
 40
0
 41
0
  0
VERTEX
  8
0
 10
0.485514
 20
0.211372
 30
0.0
 40
0
 41
0
  0
VERTEX
  8
0
 10
0.485514
 20
0.208063
 30
0.0
 40
0
 41
0
  0
VERTEX
  8
0
 10
0.485514
 20
0.204807
 30
0.0
 40
0
 41
0
  0
VERTEX
  8
0
 10
0.49094
 20
0.194987
 30
0.0
 40
0
 41
0
  0
VERTEX
  8
0
 10
0.502983
 20
0.190593
 30
0.0
 40
0
 41
0
  0
VERTEX
  8
0
 10
0.515028
 20
0.194987
 30
0.0
 40
0
 41
0
  0
VERTEX
  8
0
 10
0.520508
 20
0.204807
 30
0.0
 40
0
 41
0
  0
VERTEX
  8
0
 10
0.520508
 20
0.208063
 30
0.0
 40
0
 41
0
  0
SEQEND
 8
0
  0
POLYLINE
  8
0
 62
     173
 66
     1
 10
0
 20
0
 30
0.0
 70
     1
 40
0
 41
0
  0
VERTEX
  8
0
 10
4.52051
 20
0.408094
 30
0.0
 40
0
 41
0
  0
VERTEX
  8
0
 10
4.52051
 20
0.411404
 30
0.0
 40
0
 41
0
  0
VERTEX
  8
0
 10
4.51503
 20
0.421224
 30
0.0
 40
0
 41
0
  0
VERTEX
  8
0
 10
4.50299
 20
0.425618
 30
0.0
 40
0
 41
0
  0
VERTEX
  8
0
 10
4.49094
 20
0.421224
 30
0.0
 40
0
 41
0
  0
VERTEX
  8
0
 10
4.48551
 20
0.411404
 30
0.0
 40
0
 41
0
  0
VERTEX
  8
0
 10
4.48551
 20
0.408094
 30
0.0
 40
0
 41
0
  0
VERTEX
  8
0
 10
4.48551
 20
0.404839
 30
0.0
 40
0
 41
0
  0
VERTEX
  8
0
 10
4.49094
 20
0.395019
 30
0.0
 40
0
 41
0
  0
VERTEX
  8
0
 10
4.50299
 20
0.390625
 30
0.0
 40
0
 41
0
  0
VERTEX
  8
0
 10
4.51503
 20
0.395019
 30
0.0
 40
0
 41
0
  0
VERTEX
  8
0
 10
4.52051
 20
0.404839
 30
0.0
 40
0
 41
0
  0
VERTEX
  8
0
 10
4.52051
 20
0.408094
 30
0.0
 40
0
 41
0
  0
SEQEND
 8
0
  0
POLYLINE
  8
0
 62
     173
 66
     1
 10
0
 20
0
 30
0.0
 70
     1
 40
0
 41
0
  0
VERTEX
  8
0
 10
4.52051
 20
0.308106
 30
0.0
 40
0
 41
0
  0
VERTEX
  8
0
 10
4.52051
 20
0.311415
 30
0.0
 40
0
 41
0
  0
VERTEX
  8
0
 10
4.51503
 20
0.321235
 30
0.0
 40
0
 41
0
  0
VERTEX
  8
0
 10
4.50299
 20
0.325629
 30
0.0
 40
0
 41
0
  0
VERTEX
  8
0
 10
4.49094
 20
0.321235
 30
0.0
 40
0
 41
0
  0
VERTEX
  8
0
 10
4.48551
 20
0.311415
 30
0.0
 40
0
 41
0
  0
VERTEX
  8
0
 10
4.48551
 20
0.308106
 30
0.0
 40
0
 41
0
  0
VERTEX
  8
0
 10
4.48551
 20
0.30485
 30
0.0
 40
0
 41
0
  0
VERTEX
  8
0
 10
4.49094
 20
0.295031
 30
0.0
 40
0
 41
0
  0
VERTEX
  8
0
 10
4.50299
 20
0.290636
 30
0.0
 40
0
 41
0
  0
VERTEX
  8
0
 10
4.51503
 20
0.295031
 30
0.0
 40
0
 41
0
  0
VERTEX
  8
0
 10
4.52051
 20
0.30485
 30
0.0
 40
0
 41
0
  0
VERTEX
  8
0
 10
4.52051
 20
0.308106
 30
0.0
 40
0
 41
0
  0
SEQEND
 8
0
  0
POLYLINE
  8
0
 62
     173
 66
     1
 10
0
 20
0
 30
0.0
 70
     1
 40
0
 41
0
  0
VERTEX
  8
0
 10
0.828017
 20
0.508083
 30
0.0
 40
0
 41
0
  0
VERTEX
  8
0
 10
0.828017
 20
0.512804
 30
0.0
 40
0
 41
0
  0
VERTEX
  8
0
 10
0.82015
 20
0.526856
 30
0.0
 40
0
 41
0
  0
VERTEX
  8
0
 10
0.803006
 20
0.533094
 30
0.0
 40
0
 41
0
  0
VERTEX
  8
0
 10
0.785807
 20
0.526856
 30
0.0
 40
0
 41
0
  0
VERTEX
  8
0
 10
0.777994
 20
0.512804
 30
0.0
 40
0
 41
0
  0
VERTEX
  8
0
 10
0.777994
 20
0.508083
 30
0.0
 40
0
 41
0
  0
VERTEX
  8
0
 10
0.777994
 20
0.503418
 30
0.0
 40
0
 41
0
  0
VERTEX
  8
0
 10
0.785807
 20
0.489367
 30
0.0
 40
0
 41
0
  0
VERTEX
  8
0
 10
0.803006
 20
0.483128
 30
0.0
 40
0
 41
0
  0
VERTEX
  8
0
 10
0.82015
 20
0.489367
 30
0.0
 40
0
 41
0
  0
VERTEX
  8
0
 10
0.828017
 20
0.503418
 30
0.0
 40
0
 41
0
  0
VERTEX
  8
0
 10
0.828017
 20
0.508083
 30
0.0
 40
0
 41
0
  0
SEQEND
 8
0
  0
POLYLINE
  8
0
 62
     173
 66
     1
 10
0
 20
0
 30
0.0
 70
     1
 40
0
 41
0
  0
VERTEX
  8
0
 10
1.02799
 20
0.208063
 30
0.0
 40
0
 41
0
  0
VERTEX
  8
0
 10
1.02799
 20
0.212782
 30
0.0
 40
0
 41
0
  0
VERTEX
  8
0
 10
1.02018
 20
0.226833
 30
0.0
 40
0
 41
0
  0
VERTEX
  8
0
 10
1.00298
 20
0.233128
 30
0.0
 40
0
 41
0
  0
VERTEX
  8
0
 10
0.985786
 20
0.226833
 30
0.0
 40
0
 41
0
  0
VERTEX
  8
0
 10
0.978028
 20
0.212782
 30
0.0
 40
0
 41
0
  0
VERTEX
  8
0
 10
0.978028
 20
0.208063
 30
0.0
 40
0
 41
0
  0
VERTEX
  8
0
 10
0.978028
 20
0.203396
 30
0.0
 40
0
 41
0
  0
VERTEX
  8
0
 10
0.985786
 20
0.189344
 30
0.0
 40
0
 41
0
  0
VERTEX
  8
0
 10
1.00298
 20
0.183106
 30
0.0
 40
0
 41
0
  0
VERTEX
  8
0
 10
1.02018
 20
0.189344
 30
0.0
 40
0
 41
0
  0
VERTEX
  8
0
 10
1.02799
 20
0.203396
 30
0.0
 40
0
 41
0
  0
VERTEX
  8
0
 10
1.02799
 20
0.208063
 30
0.0
 40
0
 41
0
  0
SEQEND
 8
0
  0
POLYLINE
  8
0
 62
     173
 66
     1
 10
0
 20
0
 30
0.0
 70
     1
 40
0
 41
0
  0
VERTEX
  8
0
 10
1.62804
 20
0.508083
 30
0.0
 40
0
 41
0
  0
VERTEX
  8
0
 10
1.62804
 20
0.512804
 30
0.0
 40
0
 41
0
  0
VERTEX
  8
0
 10
1.62017
 20
0.526856
 30
0.0
 40
0
 41
0
  0
VERTEX
  8
0
 10
1.60303
 20
0.533094
 30
0.0
 40
0
 41
0
  0
VERTEX
  8
0
 10
1.58583
 20
0.526856
 30
0.0
 40
0
 41
0
  0
VERTEX
  8
0
 10
1.57801
 20
0.512804
 30
0.0
 40
0
 41
0
  0
VERTEX
  8
0
 10
1.57801
 20
0.508083
 30
0.0
 40
0
 41
0
  0
VERTEX
  8
0
 10
1.57801
 20
0.503418
 30
0.0
 40
0
 41
0
  0
VERTEX
  8
0
 10
1.58583
 20
0.489367
 30
0.0
 40
0
 41
0
  0
VERTEX
  8
0
 10
1.60303
 20
0.483128
 30
0.0
 40
0
 41
0
  0
VERTEX
  8
0
 10
1.62017
 20
0.489367
 30
0.0
 40
0
 41
0
  0
VERTEX
  8
0
 10
1.62804
 20
0.503418
 30
0.0
 40
0
 41
0
  0
VERTEX
  8
0
 10
1.62804
 20
0.508083
 30
0.0
 40
0
 41
0
  0
SEQEND
 8
0
  0
POLYLINE
  8
0
 62
     173
 66
     1
 10
0
 20
0
 30
0.0
 70
     1
 40
0
 41
0
  0
VERTEX
  8
0
 10
1.72803
 20
0.508083
 30
0.0
 40
0
 41
0
  0
VERTEX
  8
0
 10
1.72803
 20
0.512804
 30
0.0
 40
0
 41
0
  0
VERTEX
  8
0
 10
1.72017
 20
0.526856
 30
0.0
 40
0
 41
0
  0
VERTEX
  8
0
 10
1.70301
 20
0.533094
 30
0.0
 40
0
 41
0
  0
VERTEX
  8
0
 10
1.68582
 20
0.526856
 30
0.0
 40
0
 41
0
  0
VERTEX
  8
0
 10
1.678
 20
0.512804
 30
0.0
 40
0
 41
0
  0
VERTEX
  8
0
 10
1.678
 20
0.508083
 30
0.0
 40
0
 41
0
  0
VERTEX
  8
0
 10
1.678
 20
0.503418
 30
0.0
 40
0
 41
0
  0
VERTEX
  8
0
 10
1.68582
 20
0.489367
 30
0.0
 40
0
 41
0
  0
VERTEX
  8
0
 10
1.70301
 20
0.483128
 30
0.0
 40
0
 41
0
  0
VERTEX
  8
0
 10
1.72017
 20
0.489367
 30
0.0
 40
0
 41
0
  0
VERTEX
  8
0
 10
1.72803
 20
0.503418
 30
0.0
 40
0
 41
0
  0
VERTEX
  8
0
 10
1.72803
 20
0.508083
 30
0.0
 40
0
 41
0
  0
SEQEND
 8
0
  0
POLYLINE
  8
0
 62
     173
 66
     1
 10
0
 20
0
 30
0.0
 70
     1
 40
0
 41
0
  0
VERTEX
  8
0
 10
1.82801
 20
0.208063
 30
0.0
 40
0
 41
0
  0
VERTEX
  8
0
 10
1.82801
 20
0.212782
 30
0.0
 40
0
 41
0
  0
VERTEX
  8
0
 10
1.82015
 20
0.226833
 30
0.0
 40
0
 41
0
  0
VERTEX
  8
0
 10
1.803
 20
0.233128
 30
0.0
 40
0
 41
0
  0
VERTEX
  8
0
 10
1.78581
 20
0.226833
 30
0.0
 40
0
 41
0
  0
VERTEX
  8
0
 10
1.778
 20
0.212782
 30
0.0
 40
0
 41
0
  0
VERTEX
  8
0
 10
1.778
 20
0.208063
 30
0.0
 40
0
 41
0
  0
VERTEX
  8
0
 10
1.778
 20
0.203396
 30
0.0
 40
0
 41
0
  0
VERTEX
  8
0
 10
1.78581
 20
0.189344
 30
0.0
 40
0
 41
0
  0
VERTEX
  8
0
 10
1.803
 20
0.183106
 30
0.0
 40
0
 41
0
  0
VERTEX
  8
0
 10
1.82015
 20
0.189344
 30
0.0
 40
0
 41
0
  0
VERTEX
  8
0
 10
1.82801
 20
0.203396
 30
0.0
 40
0
 41
0
  0
VERTEX
  8
0
 10
1.82801
 20
0.208063
 30
0.0
 40
0
 41
0
  0
SEQEND
 8
0
  0
POLYLINE
  8
0
 62
     173
 66
     1
 10
0
 20
0
 30
0.0
 70
     1
 40
0
 41
0
  0
VERTEX
  8
0
 10
2.12804
 20
0.208063
 30
0.0
 40
0
 41
0
  0
VERTEX
  8
0
 10
2.12804
 20
0.212782
 30
0.0
 40
0
 41
0
  0
VERTEX
  8
0
 10
2.12017
 20
0.226833
 30
0.0
 40
0
 41
0
  0
VERTEX
  8
0
 10
2.10303
 20
0.233128
 30
0.0
 40
0
 41
0
  0
VERTEX
  8
0
 10
2.08583
 20
0.226833
 30
0.0
 40
0
 41
0
  0
VERTEX
  8
0
 10
2.07801
 20
0.212782
 30
0.0
 40
0
 41
0
  0
VERTEX
  8
0
 10
2.07801
 20
0.208063
 30
0.0
 40
0
 41
0
  0
VERTEX
  8
0
 10
2.07801
 20
0.203396
 30
0.0
 40
0
 41
0
  0
VERTEX
  8
0
 10
2.08583
 20
0.189344
 30
0.0
 40
0
 41
0
  0
VERTEX
  8
0
 10
2.10303
 20
0.183106
 30
0.0
 40
0
 41
0
  0
VERTEX
  8
0
 10
2.12017
 20
0.189344
 30
0.0
 40
0
 41
0
  0
VERTEX
  8
0
 10
2.12804
 20
0.203396
 30
0.0
 40
0
 41
0
  0
VERTEX
  8
0
 10
2.12804
 20
0.208063
 30
0.0
 40
0
 41
0
  0
SEQEND
 8
0
  0
POLYLINE
  8
0
 62
     173
 66
     1
 10
0
 20
0
 30
0.0
 70
     1
 40
0
 41
0
  0
VERTEX
  8
0
 10
2.528
 20
0.508083
 30
0.0
 40
0
 41
0
  0
VERTEX
  8
0
 10
2.528
 20
0.512804
 30
0.0
 40
0
 41
0
  0
VERTEX
  8
0
 10
2.52018
 20
0.526856
 30
0.0
 40
0
 41
0
  0
VERTEX
  8
0
 10
2.50299
 20
0.533094
 30
0.0
 40
0
 41
0
  0
VERTEX
  8
0
 10
2.48579
 20
0.526856
 30
0.0
 40
0
 41
0
  0
VERTEX
  8
0
 10
2.47803
 20
0.512804
 30
0.0
 40
0
 41
0
  0
VERTEX
  8
0
 10
2.47803
 20
0.508083
 30
0.0
 40
0
 41
0
  0
VERTEX
  8
0
 10
2.47803
 20
0.503418
 30
0.0
 40
0
 41
0
  0
VERTEX
  8
0
 10
2.48579
 20
0.489367
 30
0.0
 40
0
 41
0
  0
VERTEX
  8
0
 10
2.50299
 20
0.483128
 30
0.0
 40
0
 41
0
  0
VERTEX
  8
0
 10
2.52018
 20
0.489367
 30
0.0
 40
0
 41
0
  0
VERTEX
  8
0
 10
2.528
 20
0.503418
 30
0.0
 40
0
 41
0
  0
VERTEX
  8
0
 10
2.528
 20
0.508083
 30
0.0
 40
0
 41
0
  0
SEQEND
 8
0
  0
POLYLINE
  8
0
 62
     173
 66
     1
 10
0
 20
0
 30
0.0
 70
     1
 40
0
 41
0
  0
VERTEX
  8
0
 10
2.62804
 20
0.508083
 30
0.0
 40
0
 41
0
  0
VERTEX
  8
0
 10
2.62804
 20
0.512804
 30
0.0
 40
0
 41
0
  0
VERTEX
  8
0
 10
2.62017
 20
0.526856
 30
0.0
 40
0
 41
0
  0
VERTEX
  8
0
 10
2.60303
 20
0.533094
 30
0.0
 40
0
 41
0
  0
VERTEX
  8
0
 10
2.58583
 20
0.526856
 30
0.0
 40
0
 41
0
  0
VERTEX
  8
0
 10
2.57801
 20
0.512804
 30
0.0
 40
0
 41
0
  0
VERTEX
  8
0
 10
2.57801
 20
0.508083
 30
0.0
 40
0
 41
0
  0
VERTEX
  8
0
 10
2.57801
 20
0.503418
 30
0.0
 40
0
 41
0
  0
VERTEX
  8
0
 10
2.58583
 20
0.489367
 30
0.0
 40
0
 41
0
  0
VERTEX
  8
0
 10
2.60303
 20
0.483128
 30
0.0
 40
0
 41
0
  0
VERTEX
  8
0
 10
2.62017
 20
0.489367
 30
0.0
 40
0
 41
0
  0
VERTEX
  8
0
 10
2.62804
 20
0.503418
 30
0.0
 40
0
 41
0
  0
VERTEX
  8
0
 10
2.62804
 20
0.508083
 30
0.0
 40
0
 41
0
  0
SEQEND
 8
0
  0
POLYLINE
  8
0
 62
     173
 66
     1
 10
0
 20
0
 30
0.0
 70
     1
 40
0
 41
0
  0
VERTEX
  8
0
 10
2.928
 20
0.208063
 30
0.0
 40
0
 41
0
  0
VERTEX
  8
0
 10
2.928
 20
0.212782
 30
0.0
 40
0
 41
0
  0
VERTEX
  8
0
 10
2.92019
 20
0.226833
 30
0.0
 40
0
 41
0
  0
VERTEX
  8
0
 10
2.903
 20
0.233128
 30
0.0
 40
0
 41
0
  0
VERTEX
  8
0
 10
2.88579
 20
0.226833
 30
0.0
 40
0
 41
0
  0
VERTEX
  8
0
 10
2.87804
 20
0.212782
 30
0.0
 40
0
 41
0
  0
VERTEX
  8
0
 10
2.87804
 20
0.208063
 30
0.0
 40
0
 41
0
  0
VERTEX
  8
0
 10
2.87804
 20
0.203396
 30
0.0
 40
0
 41
0
  0
VERTEX
  8
0
 10
2.88579
 20
0.189344
 30
0.0
 40
0
 41
0
  0
VERTEX
  8
0
 10
2.903
 20
0.183106
 30
0.0
 40
0
 41
0
  0
VERTEX
  8
0
 10
2.92019
 20
0.189344
 30
0.0
 40
0
 41
0
  0
VERTEX
  8
0
 10
2.928
 20
0.203396
 30
0.0
 40
0
 41
0
  0
VERTEX
  8
0
 10
2.928
 20
0.208063
 30
0.0
 40
0
 41
0
  0
SEQEND
 8
0
  0
POLYLINE
  8
0
 62
     173
 66
     1
 10
0
 20
0
 30
0.0
 70
     1
 40
0
 41
0
  0
VERTEX
  8
0
 10
3.22803
 20
0.208063
 30
0.0
 40
0
 41
0
  0
VERTEX
  8
0
 10
3.22803
 20
0.212782
 30
0.0
 40
0
 41
0
  0
VERTEX
  8
0
 10
3.22017
 20
0.226833
 30
0.0
 40
0
 41
0
  0
VERTEX
  8
0
 10
3.20301
 20
0.233128
 30
0.0
 40
0
 41
0
  0
VERTEX
  8
0
 10
3.18582
 20
0.226833
 30
0.0
 40
0
 41
0
  0
VERTEX
  8
0
 10
3.178
 20
0.212782
 30
0.0
 40
0
 41
0
  0
VERTEX
  8
0
 10
3.178
 20
0.208063
 30
0.0
 40
0
 41
0
  0
VERTEX
  8
0
 10
3.178
 20
0.203396
 30
0.0
 40
0
 41
0
  0
VERTEX
  8
0
 10
3.18582
 20
0.189344
 30
0.0
 40
0
 41
0
  0
VERTEX
  8
0
 10
3.20301
 20
0.183106
 30
0.0
 40
0
 41
0
  0
VERTEX
  8
0
 10
3.22017
 20
0.189344
 30
0.0
 40
0
 41
0
  0
VERTEX
  8
0
 10
3.22803
 20
0.203396
 30
0.0
 40
0
 41
0
  0
VERTEX
  8
0
 10
3.22803
 20
0.208063
 30
0.0
 40
0
 41
0
  0
SEQEND
 8
0
  0
POLYLINE
  8
0
 62
     173
 66
     1
 10
0
 20
0
 30
0.0
 70
     1
 40
0
 41
0
  0
VERTEX
  8
0
 10
3.428
 20
0.508083
 30
0.0
 40
0
 41
0
  0
VERTEX
  8
0
 10
3.428
 20
0.512804
 30
0.0
 40
0
 41
0
  0
VERTEX
  8
0
 10
3.42019
 20
0.526856
 30
0.0
 40
0
 41
0
  0
VERTEX
  8
0
 10
3.403
 20
0.533094
 30
0.0
 40
0
 41
0
  0
VERTEX
  8
0
 10
3.38579
 20
0.526856
 30
0.0
 40
0
 41
0
  0
VERTEX
  8
0
 10
3.37804
 20
0.512804
 30
0.0
 40
0
 41
0
  0
VERTEX
  8
0
 10
3.37804
 20
0.508083
 30
0.0
 40
0
 41
0
  0
VERTEX
  8
0
 10
3.37804
 20
0.503418
 30
0.0
 40
0
 41
0
  0
VERTEX
  8
0
 10
3.38579
 20
0.489367
 30
0.0
 40
0
 41
0
  0
VERTEX
  8
0
 10
3.403
 20
0.483128
 30
0.0
 40
0
 41
0
  0
VERTEX
  8
0
 10
3.42019
 20
0.489367
 30
0.0
 40
0
 41
0
  0
VERTEX
  8
0
 10
3.428
 20
0.503418
 30
0.0
 40
0
 41
0
  0
VERTEX
  8
0
 10
3.428
 20
0.508083
 30
0.0
 40
0
 41
0
  0
SEQEND
 8
0
  0
POLYLINE
  8
0
 62
     173
 66
     1
 10
0
 20
0
 30
0.0
 70
     1
 40
0
 41
0
  0
VERTEX
  8
0
 10
4.028
 20
0.208063
 30
0.0
 40
0
 41
0
  0
VERTEX
  8
0
 10
4.028
 20
0.212782
 30
0.0
 40
0
 41
0
  0
VERTEX
  8
0
 10
4.02018
 20
0.226833
 30
0.0
 40
0
 41
0
  0
VERTEX
  8
0
 10
4.00299
 20
0.233128
 30
0.0
 40
0
 41
0
  0
VERTEX
  8
0
 10
3.98579
 20
0.226833
 30
0.0
 40
0
 41
0
  0
VERTEX
  8
0
 10
3.97803
 20
0.212782
 30
0.0
 40
0
 41
0
  0
VERTEX
  8
0
 10
3.97803
 20
0.208063
 30
0.0
 40
0
 41
0
  0
VERTEX
  8
0
 10
3.97803
 20
0.203396
 30
0.0
 40
0
 41
0
  0
VERTEX
  8
0
 10
3.98579
 20
0.189344
 30
0.0
 40
0
 41
0
  0
VERTEX
  8
0
 10
4.00299
 20
0.183106
 30
0.0
 40
0
 41
0
  0
VERTEX
  8
0
 10
4.02018
 20
0.189344
 30
0.0
 40
0
 41
0
  0
VERTEX
  8
0
 10
4.028
 20
0.203396
 30
0.0
 40
0
 41
0
  0
VERTEX
  8
0
 10
4.028
 20
0.208063
 30
0.0
 40
0
 41
0
  0
SEQEND
 8
0
  0
POLYLINE
  8
0
 62
     173
 66
     1
 10
0
 20
0
 30
0.0
 70
     1
 40
0
 41
0
  0
VERTEX
  8
0
 10
0.343533
 20
0.508083
 30
0.0
 40
0
 41
0
  0
VERTEX
  8
0
 10
0.343533
 20
0.515679
 30
0.0
 40
0
 41
0
  0
VERTEX
  8
0
 10
0.330837
 20
0.538465
 30
0.0
 40
0
 41
0
  0
VERTEX
  8
0
 10
0.303006
 20
0.548611
 30
0.0
 40
0
 41
0
  0
VERTEX
  8
0
 10
0.275174
 20
0.538465
 30
0.0
 40
0
 41
0
  0
VERTEX
  8
0
 10
0.262532
 20
0.515679
 30
0.0
 40
0
 41
0
  0
VERTEX
  8
0
 10
0.262532
 20
0.508083
 30
0.0
 40
0
 41
0
  0
VERTEX
  8
0
 10
0.262532
 20
0.500543
 30
0.0
 40
0
 41
0
  0
VERTEX
  8
0
 10
0.275174
 20
0.477756
 30
0.0
 40
0
 41
0
  0
VERTEX
  8
0
 10
0.303006
 20
0.467611
 30
0.0
 40
0
 41
0
  0
VERTEX
  8
0
 10
0.330837
 20
0.477756
 30
0.0
 40
0
 41
0
  0
VERTEX
  8
0
 10
0.343533
 20
0.500543
 30
0.0
 40
0
 41
0
  0
VERTEX
  8
0
 10
0.343533
 20
0.508083
 30
0.0
 40
0
 41
0
  0
SEQEND
 8
0
  0
POLYLINE
  8
0
 62
     173
 66
     1
 10
0
 20
0
 30
0.0
 70
     1
 40
0
 41
0
  0
VERTEX
  8
0
 10
0.343533
 20
0.108073
 30
0.0
 40
0
 41
0
  0
VERTEX
  8
0
 10
0.343533
 20
0.115723
 30
0.0
 40
0
 41
0
  0
VERTEX
  8
0
 10
0.330837
 20
0.138509
 30
0.0
 40
0
 41
0
  0
VERTEX
  8
0
 10
0.303006
 20
0.1486
 30
0.0
 40
0
 41
0
  0
VERTEX
  8
0
 10
0.275174
 20
0.138509
 30
0.0
 40
0
 41
0
  0
VERTEX
  8
0
 10
0.262532
 20
0.115723
 30
0.0
 40
0
 41
0
  0
VERTEX
  8
0
 10
0.262532
 20
0.108073
 30
0.0
 40
0
 41
0
  0
VERTEX
  8
0
 10
0.262532
 20
0.100532
 30
0.0
 40
0
 41
0
  0
VERTEX
  8
0
 10
0.275174
 20
0.0777453
 30
0.0
 40
0
 41
0
  0
VERTEX
  8
0
 10
0.303006
 20
0.0675999
 30
0.0
 40
0
 41
0
  0
VERTEX
  8
0
 10
0.330837
 20
0.0777453
 30
0.0
 40
0
 41
0
  0
VERTEX
  8
0
 10
0.343533
 20
0.100532
 30
0.0
 40
0
 41
0
  0
VERTEX
  8
0
 10
0.343533
 20
0.108073
 30
0.0
 40
0
 41
0
  0
SEQEND
 8
0
  0
POLYLINE
  8
0
 62
     173
 66
     1
 10
0
 20
0
 30
0.0
 70
     1
 40
0
 41
0
  0
VERTEX
  8
0
 10
4.74349
 20
0.508083
 30
0.0
 40
0
 41
0
  0
VERTEX
  8
0
 10
4.74349
 20
0.515679
 30
0.0
 40
0
 41
0
  0
VERTEX
  8
0
 10
4.73079
 20
0.538465
 30
0.0
 40
0
 41
0
  0
VERTEX
  8
0
 10
4.70296
 20
0.548611
 30
0.0
 40
0
 41
0
  0
VERTEX
  8
0
 10
4.67513
 20
0.538465
 30
0.0
 40
0
 41
0
  0
VERTEX
  8
0
 10
4.66249
 20
0.515679
 30
0.0
 40
0
 41
0
  0
VERTEX
  8
0
 10
4.66249
 20
0.508083
 30
0.0
 40
0
 41
0
  0
VERTEX
  8
0
 10
4.66249
 20
0.500543
 30
0.0
 40
0
 41
0
  0
VERTEX
  8
0
 10
4.67513
 20
0.477756
 30
0.0
 40
0
 41
0
  0
VERTEX
  8
0
 10
4.70296
 20
0.467611
 30
0.0
 40
0
 41
0
  0
VERTEX
  8
0
 10
4.73079
 20
0.477756
 30
0.0
 40
0
 41
0
  0
VERTEX
  8
0
 10
4.74349
 20
0.500543
 30
0.0
 40
0
 41
0
  0
VERTEX
  8
0
 10
4.74349
 20
0.508083
 30
0.0
 40
0
 41
0
  0
SEQEND
 8
0
  0
POLYLINE
  8
0
 62
     173
 66
     1
 10
0
 20
0
 30
0.0
 70
     1
 40
0
 41
0
  0
VERTEX
  8
0
 10
4.74349
 20
0.108073
 30
0.0
 40
0
 41
0
  0
VERTEX
  8
0
 10
4.74349
 20
0.115723
 30
0.0
 40
0
 41
0
  0
VERTEX
  8
0
 10
4.73079
 20
0.138509
 30
0.0
 40
0
 41
0
  0
VERTEX
  8
0
 10
4.70296
 20
0.1486
 30
0.0
 40
0
 41
0
  0
VERTEX
  8
0
 10
4.67513
 20
0.138509
 30
0.0
 40
0
 41
0
  0
VERTEX
  8
0
 10
4.66249
 20
0.115723
 30
0.0
 40
0
 41
0
  0
VERTEX
  8
0
 10
4.66249
 20
0.108073
 30
0.0
 40
0
 41
0
  0
VERTEX
  8
0
 10
4.66249
 20
0.100532
 30
0.0
 40
0
 41
0
  0
VERTEX
  8
0
 10
4.67513
 20
0.0777453
 30
0.0
 40
0
 41
0
  0
VERTEX
  8
0
 10
4.70296
 20
0.0675999
 30
0.0
 40
0
 41
0
  0
VERTEX
  8
0
 10
4.73079
 20
0.0777453
 30
0.0
 40
0
 41
0
  0
VERTEX
  8
0
 10
4.74349
 20
0.100532
 30
0.0
 40
0
 41
0
  0
VERTEX
  8
0
 10
4.74349
 20
0.108073
 30
0.0
 40
0
 41
0
  0
SEQEND
 8
0
  0
ENDSEC
  0
EOF
