<?xml version="1.0" encoding="UTF-8"?>
<svg xmlns="http://www.w3.org/2000/svg" xmlns:xlink="http://www.w3.org/1999/xlink" width="378pt" height="45pt" viewBox="0 0 378 45" version="1.1">
<g id="surface1">
<path style=" stroke:none;fill-rule:evenodd;fill:rgb(0%,76.470588%,76.470588%);fill-opacity:1;" d="M 193.546875 4.8125 L 193.546875 10.570312 L 199.308594 10.570312 L 199.308594 4.8125 Z M 193.546875 4.8125 "/>
<path style=" stroke:none;fill-rule:evenodd;fill:rgb(0%,76.470588%,76.470588%);fill-opacity:1;" d="M 192.109375 7.691406 C 192.109375 3.851562 186.347656 3.851562 186.347656 7.691406 C 186.347656 11.53125 192.109375 11.53125 192.109375 7.691406 "/>
<path style=" stroke:none;fill-rule:evenodd;fill:rgb(0%,76.470588%,76.470588%);fill-opacity:1;" d="M 234.410156 14.890625 C 234.410156 12.25 230.449219 12.25 230.449219 14.890625 C 230.449219 17.53125 234.410156 17.53125 234.410156 14.890625 "/>
<path style=" stroke:none;fill-rule:evenodd;fill:rgb(0%,76.470588%,76.470588%);fill-opacity:1;" d="M 227.207031 14.890625 C 227.207031 12.25 223.25 12.25 223.25 14.890625 C 223.25 17.53125 227.207031 17.53125 227.207031 14.890625 "/>
<path style=" stroke:none;fill-rule:evenodd;fill:rgb(0%,76.470588%,76.470588%);fill-opacity:1;" d="M 236.75 26.410156 L 236.75 32.171875 L 242.507812 32.171875 L 242.507812 26.410156 Z M 236.75 26.410156 "/>
<path style=" stroke:none;fill-rule:evenodd;fill:rgb(0%,76.470588%,76.470588%);fill-opacity:1;" d="M 300.109375 29.292969 C 300.109375 25.453125 294.347656 25.453125 294.347656 29.292969 C 294.347656 33.132812 300.109375 33.132812 300.109375 29.292969 "/>
<path style=" stroke:none;fill-rule:evenodd;fill:rgb(0%,76.470588%,76.470588%);fill-opacity:1;" d="M 256.910156 7.691406 C 256.910156 3.851562 251.148438 3.851562 251.148438 7.691406 C 251.148438 11.53125 256.910156 11.53125 256.910156 7.691406 "/>
<path style=" stroke:none;fill-rule:evenodd;fill:rgb(0%,76.470588%,76.470588%);fill-opacity:1;" d="M 230.449219 34.511719 L 230.449219 38.472656 L 234.410156 38.472656 L 234.410156 34.511719 Z M 230.449219 34.511719 "/>
<path style=" stroke:none;fill-rule:evenodd;fill:rgb(0%,76.470588%,76.470588%);fill-opacity:1;" d="M 223.25 34.511719 L 223.25 38.472656 L 227.207031 38.472656 L 227.207031 34.511719 Z M 223.25 34.511719 "/>
<path style=" stroke:none;fill-rule:evenodd;fill:rgb(0%,76.470588%,76.470588%);fill-opacity:1;" d="M 220.910156 29.292969 C 220.910156 25.453125 215.148438 25.453125 215.148438 29.292969 C 215.148438 33.132812 220.910156 33.132812 220.910156 29.292969 "/>
<path style=" stroke:none;fill-rule:evenodd;fill:rgb(0%,76.470588%,76.470588%);fill-opacity:1;" d="M 302.449219 34.511719 L 302.449219 38.472656 L 306.410156 38.472656 L 306.410156 34.511719 Z M 302.449219 34.511719 "/>
<path style=" stroke:none;fill-rule:evenodd;fill:rgb(0%,76.470588%,76.470588%);fill-opacity:1;" d="M 351.230469 36.492188 C 351.230469 31.691406 344.027344 31.691406 344.027344 36.492188 C 344.027344 41.292969 351.230469 41.292969 351.230469 36.492188 "/>
<path style=" stroke:none;fill-rule:evenodd;fill:rgb(0%,76.470588%,76.470588%);fill-opacity:1;" d="M 306.410156 14.890625 C 306.410156 12.25 302.449219 12.25 302.449219 14.890625 C 302.449219 17.53125 306.410156 17.53125 306.410156 14.890625 "/>
<path style=" stroke:none;fill-rule:evenodd;fill:rgb(0%,76.470588%,76.470588%);fill-opacity:1;" d="M 331.070312 19.929688 L 331.070312 24.25 L 335.386719 24.25 L 335.386719 19.929688 Z M 331.070312 19.929688 "/>
<path style=" stroke:none;fill-rule:evenodd;fill:rgb(0%,76.470588%,76.470588%);fill-opacity:1;" d="M 335.386719 14.890625 C 335.386719 12.011719 331.070312 12.011719 331.070312 14.890625 C 331.070312 17.769531 335.386719 17.769531 335.386719 14.890625 "/>
<path style=" stroke:none;fill-rule:evenodd;fill:rgb(0%,76.470588%,76.470588%);fill-opacity:1;" d="M 351.230469 7.691406 C 351.230469 2.890625 344.027344 2.890625 344.027344 7.691406 C 344.027344 12.492188 351.230469 12.492188 351.230469 7.691406 "/>
<path style=" stroke:none;fill-rule:evenodd;fill:rgb(0%,76.470588%,76.470588%);fill-opacity:1;" d="M 128.75 4.8125 L 128.75 10.570312 L 134.507812 10.570312 L 134.507812 4.8125 Z M 128.75 4.8125 "/>
<path style=" stroke:none;fill-rule:evenodd;fill:rgb(0%,76.470588%,76.470588%);fill-opacity:1;" d="M 63.949219 4.8125 L 63.949219 10.570312 L 69.707031 10.570312 L 69.707031 4.8125 Z M 63.949219 4.8125 "/>
<path style=" stroke:none;fill-rule:evenodd;fill:rgb(0%,76.470588%,76.470588%);fill-opacity:1;" d="M 127.308594 7.691406 C 127.308594 3.851562 121.546875 3.851562 121.546875 7.691406 C 121.546875 11.53125 127.308594 11.53125 127.308594 7.691406 "/>
<path style=" stroke:none;fill-rule:evenodd;fill:rgb(0%,76.470588%,76.470588%);fill-opacity:1;" d="M 34.429688 7.691406 C 34.429688 2.890625 27.230469 2.890625 27.230469 7.691406 C 27.230469 12.492188 34.429688 12.492188 34.429688 7.691406 "/>
<path style=" stroke:none;fill-rule:evenodd;fill:rgb(0%,76.470588%,76.470588%);fill-opacity:1;" d="M 64.847656 34.511719 L 64.847656 38.472656 L 68.808594 38.472656 L 68.808594 34.511719 Z M 64.847656 34.511719 "/>
<path style=" stroke:none;fill-rule:evenodd;fill:rgb(0%,76.470588%,76.470588%);fill-opacity:1;" d="M 34.429688 36.492188 C 34.429688 31.691406 27.230469 31.691406 27.230469 36.492188 C 27.230469 41.292969 34.429688 41.292969 34.429688 36.492188 "/>
<path style=" stroke:none;fill-rule:evenodd;fill:rgb(0%,76.470588%,76.470588%);fill-opacity:1;" d="M 68.808594 14.890625 C 68.808594 12.25 64.847656 12.25 64.847656 14.890625 C 64.847656 17.53125 68.808594 17.53125 68.808594 14.890625 "/>
<path style=" stroke:none;fill-rule:evenodd;fill:rgb(0%,76.470588%,76.470588%);fill-opacity:1;" d="M 43.070312 19.929688 L 43.070312 24.25 L 47.386719 24.25 L 47.386719 19.929688 Z M 43.070312 19.929688 "/>
<path style=" stroke:none;fill-rule:evenodd;fill:rgb(0%,76.470588%,76.470588%);fill-opacity:1;" d="M 47.386719 29.292969 C 47.386719 26.410156 43.070312 26.410156 43.070312 29.292969 C 43.070312 32.171875 47.386719 32.171875 47.386719 29.292969 "/>
<path style=" stroke:none;fill-rule:evenodd;fill:rgb(0%,76.470588%,76.470588%);fill-opacity:1;" d="M 72.046875 34.511719 L 72.046875 38.472656 L 76.007812 38.472656 L 76.007812 34.511719 Z M 72.046875 34.511719 "/>
<path style=" stroke:none;fill-rule:evenodd;fill:rgb(0%,76.470588%,76.470588%);fill-opacity:1;" d="M 78.347656 26.410156 L 78.347656 32.171875 L 84.109375 32.171875 L 84.109375 26.410156 Z M 78.347656 26.410156 "/>
<path style=" stroke:none;fill-rule:evenodd;fill:rgb(0%,76.470588%,76.470588%);fill-opacity:1;" d="M 76.007812 14.890625 C 76.007812 12.25 72.046875 12.25 72.046875 14.890625 C 72.046875 17.53125 76.007812 17.53125 76.007812 14.890625 "/>
<path style=" stroke:none;fill-rule:evenodd;fill:rgb(0%,76.470588%,76.470588%);fill-opacity:1;" d="M 151.25 34.511719 L 151.25 38.472656 L 155.207031 38.472656 L 155.207031 34.511719 Z M 151.25 34.511719 "/>
<path style=" stroke:none;fill-rule:evenodd;fill:rgb(0%,76.470588%,76.470588%);fill-opacity:1;" d="M 155.207031 14.890625 C 155.207031 12.25 151.25 12.25 151.25 14.890625 C 151.25 17.53125 155.207031 17.53125 155.207031 14.890625 "/>
<path style=" stroke:none;fill-rule:evenodd;fill:rgb(0%,76.470588%,76.470588%);fill-opacity:1;" d="M 144.046875 34.511719 L 144.046875 38.472656 L 148.007812 38.472656 L 148.007812 34.511719 Z M 144.046875 34.511719 "/>
<path style=" stroke:none;fill-rule:evenodd;fill:rgb(0%,76.470588%,76.470588%);fill-opacity:1;" d="M 148.007812 14.890625 C 148.007812 12.25 144.046875 12.25 144.046875 14.890625 C 144.046875 17.53125 148.007812 17.53125 148.007812 14.890625 "/>
<path style=" stroke:none;fill-rule:evenodd;fill:rgb(0%,76.470588%,76.470588%);fill-opacity:1;" d="M 157.546875 26.410156 L 157.546875 32.171875 L 163.308594 32.171875 L 163.308594 26.410156 Z M 157.546875 26.410156 "/>
<path style=" stroke:none;fill-rule:evenodd;fill:rgb(0%,76.470588%,76.470588%);fill-opacity:1;" d="M 141.707031 29.292969 C 141.707031 25.453125 135.949219 25.453125 135.949219 29.292969 C 135.949219 33.132812 141.707031 33.132812 141.707031 29.292969 "/>
<path style="fill:none;stroke-width:0.006;stroke-linecap:round;stroke-linejoin:miter;stroke:rgb(45.882353%,94.901961%,40.392157%);stroke-opacity:1;stroke-miterlimit:10;" d="M 0.0000259495 0.599989 L 5.000026 0.599989 " transform="matrix(72,0,0,-72,9.2286,43.6914)"/>
<path style="fill:none;stroke-width:0.006;stroke-linecap:round;stroke-linejoin:miter;stroke:rgb(45.882353%,94.901961%,40.392157%);stroke-opacity:1;stroke-miterlimit:10;" d="M 5.000026 0.599989 L 5.000026 -0.0000000871304 " transform="matrix(72,0,0,-72,9.2286,43.6914)"/>
<path style="fill:none;stroke-width:0.006;stroke-linecap:round;stroke-linejoin:miter;stroke:rgb(45.882353%,94.901961%,40.392157%);stroke-opacity:1;stroke-miterlimit:10;" d="M 0.0000259495 0.599989 L 0.0000259495 -0.0000000871304 " transform="matrix(72,0,0,-72,9.2286,43.6914)"/>
<path style="fill:none;stroke-width:0.006;stroke-linecap:round;stroke-linejoin:miter;stroke:rgb(45.882353%,94.901961%,40.392157%);stroke-opacity:1;stroke-miterlimit:10;" d="M 0.0000259495 -0.0000000871304 L 5.000026 -0.0000000871304 " transform="matrix(72,0,0,-72,9.2286,43.6914)"/>
<path style=" stroke:none;fill-rule:evenodd;fill:rgb(75.686275%,0%,87.843137%);fill-opacity:1;" d="M 193.332031 4.59375 L 193.332031 10.789062 L 199.523438 10.789062 L 199.523438 4.59375 Z M 193.332031 4.59375 "/>
<path style=" stroke:none;fill-rule:evenodd;fill:rgb(75.686275%,0%,87.843137%);fill-opacity:1;" d="M 192.324219 7.691406 C 192.324219 3.5625 186.132812 3.5625 186.132812 7.691406 C 186.132812 11.820312 192.324219 11.820312 192.324219 7.691406 "/>
<path style=" stroke:none;fill-rule:evenodd;fill:rgb(75.686275%,0%,87.843137%);fill-opacity:1;" d="M 234.625 14.890625 C 234.625 11.964844 230.234375 11.964844 230.234375 14.890625 C 230.234375 17.820312 234.625 17.820312 234.625 14.890625 "/>
<path style=" stroke:none;fill-rule:evenodd;fill:rgb(75.686275%,0%,87.843137%);fill-opacity:1;" d="M 227.425781 14.890625 C 227.425781 11.964844 223.03125 11.964844 223.03125 14.890625 C 223.03125 17.820312 227.425781 17.820312 227.425781 14.890625 "/>
<path style=" stroke:none;fill-rule:evenodd;fill:rgb(75.686275%,0%,87.843137%);fill-opacity:1;" d="M 236.53125 26.195312 L 236.53125 32.386719 L 242.722656 32.386719 L 242.722656 26.195312 Z M 236.53125 26.195312 "/>
<path style=" stroke:none;fill-rule:evenodd;fill:rgb(75.686275%,0%,87.843137%);fill-opacity:1;" d="M 300.324219 29.292969 C 300.324219 25.164062 294.132812 25.164062 294.132812 29.292969 C 294.132812 33.417969 300.324219 33.417969 300.324219 29.292969 "/>
<path style=" stroke:none;fill-rule:evenodd;fill:rgb(75.686275%,0%,87.843137%);fill-opacity:1;" d="M 257.125 7.691406 C 257.125 3.5625 250.933594 3.5625 250.933594 7.691406 C 250.933594 11.820312 257.125 11.820312 257.125 7.691406 "/>
<path style=" stroke:none;fill-rule:evenodd;fill:rgb(75.686275%,0%,87.843137%);fill-opacity:1;" d="M 230.234375 34.296875 L 230.234375 38.6875 L 234.625 38.6875 L 234.625 34.296875 Z M 230.234375 34.296875 "/>
<path style=" stroke:none;fill-rule:evenodd;fill:rgb(75.686275%,0%,87.843137%);fill-opacity:1;" d="M 223.03125 34.296875 L 223.03125 38.6875 L 227.425781 38.6875 L 227.425781 34.296875 Z M 223.03125 34.296875 "/>
<path style=" stroke:none;fill-rule:evenodd;fill:rgb(75.686275%,0%,87.843137%);fill-opacity:1;" d="M 221.125 29.292969 C 221.125 25.164062 214.933594 25.164062 214.933594 29.292969 C 214.933594 33.417969 221.125 33.417969 221.125 29.292969 "/>
<path style=" stroke:none;fill-rule:evenodd;fill:rgb(75.686275%,0%,87.843137%);fill-opacity:1;" d="M 302.234375 34.296875 L 302.234375 38.6875 L 306.625 38.6875 L 306.625 34.296875 Z M 302.234375 34.296875 "/>
<path style=" stroke:none;fill-rule:evenodd;fill:rgb(75.686275%,0%,87.843137%);fill-opacity:1;" d="M 351.445312 36.492188 C 351.445312 31.402344 343.8125 31.402344 343.8125 36.492188 C 343.8125 41.578125 351.445312 41.578125 351.445312 36.492188 "/>
<path style=" stroke:none;fill-rule:evenodd;fill:rgb(75.686275%,0%,87.843137%);fill-opacity:1;" d="M 306.625 14.890625 C 306.625 11.964844 302.234375 11.964844 302.234375 14.890625 C 302.234375 17.820312 306.625 17.820312 306.625 14.890625 "/>
<path style=" stroke:none;fill-rule:evenodd;fill:rgb(75.686275%,0%,87.843137%);fill-opacity:1;" d="M 330.851562 19.714844 L 330.851562 24.46875 L 335.605469 24.46875 L 335.605469 19.714844 Z M 330.851562 19.714844 "/>
<path style=" stroke:none;fill-rule:evenodd;fill:rgb(75.686275%,0%,87.843137%);fill-opacity:1;" d="M 335.605469 14.890625 C 335.605469 11.722656 330.851562 11.722656 330.851562 14.890625 C 330.851562 18.058594 335.605469 18.058594 335.605469 14.890625 "/>
<path style=" stroke:none;fill-rule:evenodd;fill:rgb(75.686275%,0%,87.843137%);fill-opacity:1;" d="M 351.445312 7.691406 C 351.445312 2.601562 343.8125 2.601562 343.8125 7.691406 C 343.8125 12.78125 351.445312 12.78125 351.445312 7.691406 "/>
<path style=" stroke:none;fill-rule:evenodd;fill:rgb(75.686275%,0%,87.843137%);fill-opacity:1;" d="M 128.53125 4.59375 L 128.53125 10.789062 L 134.722656 10.789062 L 134.722656 4.59375 Z M 128.53125 4.59375 "/>
<path style=" stroke:none;fill-rule:evenodd;fill:rgb(75.686275%,0%,87.843137%);fill-opacity:1;" d="M 63.734375 4.59375 L 63.734375 10.789062 L 69.925781 10.789062 L 69.925781 4.59375 Z M 63.734375 4.59375 "/>
<path style=" stroke:none;fill-rule:evenodd;fill:rgb(75.686275%,0%,87.843137%);fill-opacity:1;" d="M 127.523438 7.691406 C 127.523438 3.5625 121.332031 3.5625 121.332031 7.691406 C 121.332031 11.820312 127.523438 11.820312 127.523438 7.691406 "/>
<path style=" stroke:none;fill-rule:evenodd;fill:rgb(75.686275%,0%,87.843137%);fill-opacity:1;" d="M 34.644531 7.691406 C 34.644531 2.601562 27.011719 2.601562 27.011719 7.691406 C 27.011719 12.78125 34.644531 12.78125 34.644531 7.691406 "/>
<path style=" stroke:none;fill-rule:evenodd;fill:rgb(75.686275%,0%,87.843137%);fill-opacity:1;" d="M 64.632812 34.296875 L 64.632812 38.6875 L 69.023438 38.6875 L 69.023438 34.296875 Z M 64.632812 34.296875 "/>
<path style=" stroke:none;fill-rule:evenodd;fill:rgb(75.686275%,0%,87.843137%);fill-opacity:1;" d="M 34.644531 36.492188 C 34.644531 31.402344 27.011719 31.402344 27.011719 36.492188 C 27.011719 41.578125 34.644531 41.578125 34.644531 36.492188 "/>
<path style=" stroke:none;fill-rule:evenodd;fill:rgb(75.686275%,0%,87.843137%);fill-opacity:1;" d="M 69.023438 14.890625 C 69.023438 11.964844 64.632812 11.964844 64.632812 14.890625 C 64.632812 17.820312 69.023438 17.820312 69.023438 14.890625 "/>
<path style=" stroke:none;fill-rule:evenodd;fill:rgb(75.686275%,0%,87.843137%);fill-opacity:1;" d="M 42.851562 19.714844 L 42.851562 24.46875 L 47.605469 24.46875 L 47.605469 19.714844 Z M 42.851562 19.714844 "/>
<path style=" stroke:none;fill-rule:evenodd;fill:rgb(75.686275%,0%,87.843137%);fill-opacity:1;" d="M 47.605469 29.292969 C 47.605469 26.125 42.851562 26.125 42.851562 29.292969 C 42.851562 32.460938 47.605469 32.460938 47.605469 29.292969 "/>
<path style=" stroke:none;fill-rule:evenodd;fill:rgb(75.686275%,0%,87.843137%);fill-opacity:1;" d="M 71.832031 34.296875 L 71.832031 38.6875 L 76.222656 38.6875 L 76.222656 34.296875 Z M 71.832031 34.296875 "/>
<path style=" stroke:none;fill-rule:evenodd;fill:rgb(75.686275%,0%,87.843137%);fill-opacity:1;" d="M 78.132812 26.195312 L 78.132812 32.386719 L 84.324219 32.386719 L 84.324219 26.195312 Z M 78.132812 26.195312 "/>
<path style=" stroke:none;fill-rule:evenodd;fill:rgb(75.686275%,0%,87.843137%);fill-opacity:1;" d="M 76.222656 14.890625 C 76.222656 11.964844 71.832031 11.964844 71.832031 14.890625 C 71.832031 17.820312 76.222656 17.820312 76.222656 14.890625 "/>
<path style=" stroke:none;fill-rule:evenodd;fill:rgb(75.686275%,0%,87.843137%);fill-opacity:1;" d="M 151.03125 34.296875 L 151.03125 38.6875 L 155.425781 38.6875 L 155.425781 34.296875 Z M 151.03125 34.296875 "/>
<path style=" stroke:none;fill-rule:evenodd;fill:rgb(75.686275%,0%,87.843137%);fill-opacity:1;" d="M 155.425781 14.890625 C 155.425781 11.964844 151.03125 11.964844 151.03125 14.890625 C 151.03125 17.820312 155.425781 17.820312 155.425781 14.890625 "/>
<path style=" stroke:none;fill-rule:evenodd;fill:rgb(75.686275%,0%,87.843137%);fill-opacity:1;" d="M 143.832031 34.296875 L 143.832031 38.6875 L 148.222656 38.6875 L 148.222656 34.296875 Z M 143.832031 34.296875 "/>
<path style=" stroke:none;fill-rule:evenodd;fill:rgb(75.686275%,0%,87.843137%);fill-opacity:1;" d="M 148.222656 14.890625 C 148.222656 11.964844 143.832031 11.964844 143.832031 14.890625 C 143.832031 17.820312 148.222656 17.820312 148.222656 14.890625 "/>
<path style=" stroke:none;fill-rule:evenodd;fill:rgb(75.686275%,0%,87.843137%);fill-opacity:1;" d="M 157.332031 26.195312 L 157.332031 32.386719 L 163.523438 32.386719 L 163.523438 26.195312 Z M 157.332031 26.195312 "/>
<path style=" stroke:none;fill-rule:evenodd;fill:rgb(75.686275%,0%,87.843137%);fill-opacity:1;" d="M 141.925781 29.292969 C 141.925781 25.164062 135.734375 25.164062 135.734375 29.292969 C 135.734375 33.417969 141.925781 33.417969 141.925781 29.292969 "/>
<path style=" stroke:none;fill-rule:evenodd;fill:rgb(100%,49.803922%,45.098039%);fill-opacity:1;" d="M 67.910156 14.890625 C 67.910156 13.453125 65.75 13.453125 65.75 14.890625 C 65.75 16.332031 67.910156 16.332031 67.910156 14.890625 "/>
<path style=" stroke:none;fill-rule:evenodd;fill:rgb(100%,49.803922%,45.098039%);fill-opacity:1;" d="M 67.910156 36.492188 C 67.910156 35.050781 65.75 35.050781 65.75 36.492188 C 65.75 37.929688 67.910156 37.929688 67.910156 36.492188 "/>
<path style=" stroke:none;fill-rule:evenodd;fill:rgb(100%,49.803922%,45.098039%);fill-opacity:1;" d="M 75.109375 14.890625 C 75.109375 13.453125 72.949219 13.453125 72.949219 14.890625 C 72.949219 16.332031 75.109375 16.332031 75.109375 14.890625 "/>
<path style=" stroke:none;fill-rule:evenodd;fill:rgb(100%,49.803922%,45.098039%);fill-opacity:1;" d="M 75.109375 36.492188 C 75.109375 35.050781 72.949219 35.050781 72.949219 36.492188 C 72.949219 37.929688 75.109375 37.929688 75.109375 36.492188 "/>
<path style=" stroke:none;fill-rule:evenodd;fill:rgb(100%,49.803922%,45.098039%);fill-opacity:1;" d="M 147.109375 14.890625 C 147.109375 13.453125 144.949219 13.453125 144.949219 14.890625 C 144.949219 16.332031 147.109375 16.332031 147.109375 14.890625 "/>
<path style=" stroke:none;fill-rule:evenodd;fill:rgb(100%,49.803922%,45.098039%);fill-opacity:1;" d="M 147.109375 36.492188 C 147.109375 35.050781 144.949219 35.050781 144.949219 36.492188 C 144.949219 37.929688 147.109375 37.929688 147.109375 36.492188 "/>
<path style=" stroke:none;fill-rule:evenodd;fill:rgb(100%,49.803922%,45.098039%);fill-opacity:1;" d="M 154.308594 14.890625 C 154.308594 13.453125 152.148438 13.453125 152.148438 14.890625 C 152.148438 16.332031 154.308594 16.332031 154.308594 14.890625 "/>
<path style=" stroke:none;fill-rule:evenodd;fill:rgb(100%,49.803922%,45.098039%);fill-opacity:1;" d="M 154.308594 36.492188 C 154.308594 35.050781 152.148438 35.050781 152.148438 36.492188 C 152.148438 37.929688 154.308594 37.929688 154.308594 36.492188 "/>
<path style=" stroke:none;fill-rule:evenodd;fill:rgb(100%,49.803922%,45.098039%);fill-opacity:1;" d="M 226.308594 14.890625 C 226.308594 13.453125 224.148438 13.453125 224.148438 14.890625 C 224.148438 16.332031 226.308594 16.332031 226.308594 14.890625 "/>
<path style=" stroke:none;fill-rule:evenodd;fill:rgb(100%,49.803922%,45.098039%);fill-opacity:1;" d="M 226.308594 36.492188 C 226.308594 35.050781 224.148438 35.050781 224.148438 36.492188 C 224.148438 37.929688 226.308594 37.929688 226.308594 36.492188 "/>
<path style=" stroke:none;fill-rule:evenodd;fill:rgb(100%,49.803922%,45.098039%);fill-opacity:1;" d="M 233.507812 14.890625 C 233.507812 13.453125 231.347656 13.453125 231.347656 14.890625 C 231.347656 16.332031 233.507812 16.332031 233.507812 14.890625 "/>
<path style=" stroke:none;fill-rule:evenodd;fill:rgb(100%,49.803922%,45.098039%);fill-opacity:1;" d="M 233.507812 36.492188 C 233.507812 35.050781 231.347656 35.050781 231.347656 36.492188 C 231.347656 37.929688 233.507812 37.929688 233.507812 36.492188 "/>
<path style=" stroke:none;fill-rule:evenodd;fill:rgb(100%,49.803922%,45.098039%);fill-opacity:1;" d="M 305.507812 14.890625 C 305.507812 13.453125 303.347656 13.453125 303.347656 14.890625 C 303.347656 16.332031 305.507812 16.332031 305.507812 14.890625 "/>
<path style=" stroke:none;fill-rule:evenodd;fill:rgb(100%,49.803922%,45.098039%);fill-opacity:1;" d="M 305.507812 36.492188 C 305.507812 35.050781 303.347656 35.050781 303.347656 36.492188 C 303.347656 37.929688 305.507812 37.929688 305.507812 36.492188 "/>
<path style=" stroke:none;fill-rule:evenodd;fill:rgb(100%,49.803922%,45.098039%);fill-opacity:1;" d="M 46.488281 22.089844 C 46.488281 20.410156 43.96875 20.410156 43.96875 22.089844 C 43.96875 23.769531 46.488281 23.769531 46.488281 22.089844 "/>
<path style=" stroke:none;fill-rule:evenodd;fill:rgb(100%,49.803922%,45.098039%);fill-opacity:1;" d="M 46.488281 29.292969 C 46.488281 27.613281 43.96875 27.613281 43.96875 29.292969 C 43.96875 30.972656 46.488281 30.972656 46.488281 29.292969 "/>
<path style=" stroke:none;fill-rule:evenodd;fill:rgb(100%,49.803922%,45.098039%);fill-opacity:1;" d="M 334.488281 14.890625 C 334.488281 13.210938 331.96875 13.210938 331.96875 14.890625 C 331.96875 16.570312 334.488281 16.570312 334.488281 14.890625 "/>
<path style=" stroke:none;fill-rule:evenodd;fill:rgb(100%,49.803922%,45.098039%);fill-opacity:1;" d="M 334.488281 22.089844 C 334.488281 20.410156 331.96875 20.410156 331.96875 22.089844 C 331.96875 23.769531 334.488281 23.769531 334.488281 22.089844 "/>
<path style=" stroke:none;fill-rule:evenodd;fill:rgb(100%,49.803922%,45.098039%);fill-opacity:1;" d="M 68.628906 7.691406 C 68.628906 5.292969 65.027344 5.292969 65.027344 7.691406 C 65.027344 10.089844 68.628906 10.089844 68.628906 7.691406 "/>
<path style=" stroke:none;fill-rule:evenodd;fill:rgb(100%,49.803922%,45.098039%);fill-opacity:1;" d="M 83.027344 29.292969 C 83.027344 26.890625 79.429688 26.890625 79.429688 29.292969 C 79.429688 31.691406 83.027344 31.691406 83.027344 29.292969 "/>
<path style=" stroke:none;fill-rule:evenodd;fill:rgb(100%,49.803922%,45.098039%);fill-opacity:1;" d="M 126.230469 7.691406 C 126.230469 5.292969 122.628906 5.292969 122.628906 7.691406 C 122.628906 10.089844 126.230469 10.089844 126.230469 7.691406 "/>
<path style=" stroke:none;fill-rule:evenodd;fill:rgb(100%,49.803922%,45.098039%);fill-opacity:1;" d="M 133.429688 7.691406 C 133.429688 5.292969 129.828125 5.292969 129.828125 7.691406 C 129.828125 10.089844 133.429688 10.089844 133.429688 7.691406 "/>
<path style=" stroke:none;fill-rule:evenodd;fill:rgb(100%,49.803922%,45.098039%);fill-opacity:1;" d="M 140.628906 29.292969 C 140.628906 26.890625 137.027344 26.890625 137.027344 29.292969 C 137.027344 31.691406 140.628906 31.691406 140.628906 29.292969 "/>
<path style=" stroke:none;fill-rule:evenodd;fill:rgb(100%,49.803922%,45.098039%);fill-opacity:1;" d="M 162.230469 29.292969 C 162.230469 26.890625 158.628906 26.890625 158.628906 29.292969 C 158.628906 31.691406 162.230469 31.691406 162.230469 29.292969 "/>
<path style=" stroke:none;fill-rule:evenodd;fill:rgb(100%,49.803922%,45.098039%);fill-opacity:1;" d="M 191.027344 7.691406 C 191.027344 5.292969 187.429688 5.292969 187.429688 7.691406 C 187.429688 10.089844 191.027344 10.089844 191.027344 7.691406 "/>
<path style=" stroke:none;fill-rule:evenodd;fill:rgb(100%,49.803922%,45.098039%);fill-opacity:1;" d="M 198.230469 7.691406 C 198.230469 5.292969 194.628906 5.292969 194.628906 7.691406 C 194.628906 10.089844 198.230469 10.089844 198.230469 7.691406 "/>
<path style=" stroke:none;fill-rule:evenodd;fill:rgb(100%,49.803922%,45.098039%);fill-opacity:1;" d="M 219.828125 29.292969 C 219.828125 26.890625 216.230469 26.890625 216.230469 29.292969 C 216.230469 31.691406 219.828125 31.691406 219.828125 29.292969 "/>
<path style=" stroke:none;fill-rule:evenodd;fill:rgb(100%,49.803922%,45.098039%);fill-opacity:1;" d="M 241.429688 29.292969 C 241.429688 26.890625 237.828125 26.890625 237.828125 29.292969 C 237.828125 31.691406 241.429688 31.691406 241.429688 29.292969 "/>
<path style=" stroke:none;fill-rule:evenodd;fill:rgb(100%,49.803922%,45.098039%);fill-opacity:1;" d="M 255.828125 7.691406 C 255.828125 5.292969 252.230469 5.292969 252.230469 7.691406 C 252.230469 10.089844 255.828125 10.089844 255.828125 7.691406 "/>
<path style=" stroke:none;fill-rule:evenodd;fill:rgb(100%,49.803922%,45.098039%);fill-opacity:1;" d="M 299.027344 29.292969 C 299.027344 26.890625 295.429688 26.890625 295.429688 29.292969 C 295.429688 31.691406 299.027344 31.691406 299.027344 29.292969 "/>
<path style=" stroke:none;fill-rule:evenodd;fill:rgb(100%,49.803922%,45.098039%);fill-opacity:1;" d="M 33.746094 7.691406 C 33.746094 3.804688 27.914062 3.804688 27.914062 7.691406 C 27.914062 11.578125 33.746094 11.578125 33.746094 7.691406 "/>
<path style=" stroke:none;fill-rule:evenodd;fill:rgb(100%,49.803922%,45.098039%);fill-opacity:1;" d="M 33.746094 36.492188 C 33.746094 32.601562 27.914062 32.601562 27.914062 36.492188 C 27.914062 40.378906 33.746094 40.378906 33.746094 36.492188 "/>
<path style=" stroke:none;fill-rule:evenodd;fill:rgb(100%,49.803922%,45.098039%);fill-opacity:1;" d="M 350.542969 7.691406 C 350.542969 3.804688 344.710938 3.804688 344.710938 7.691406 C 344.710938 11.578125 350.542969 11.578125 350.542969 7.691406 "/>
<path style=" stroke:none;fill-rule:evenodd;fill:rgb(100%,49.803922%,45.098039%);fill-opacity:1;" d="M 350.542969 36.492188 C 350.542969 32.601562 344.710938 32.601562 344.710938 36.492188 C 344.710938 40.378906 350.542969 40.378906 350.542969 36.492188 "/>
</g>
</svg>
