G04 This is an RS-274x file exported by *
G04 gerbv version 2.7.0 *
G04 More information is available about gerbv at *
G04 http://gerbv.geda-project.org/ *
G04 --End of header info--*
%MOIN*%
%FSLAX36Y36*%
%IPPOS*%
G04 --Define apertures--*
%ADD10C,0.0100*%
%ADD11C,0.0001*%
%ADD12C,0.0750*%
%ADD13C,0.0800*%
%ADD14C,0.0550*%
%ADD15C,0.1000*%
%ADD16C,0.0600*%
%ADD17C,0.0500*%
%ADD18C,0.0300*%
%ADD19C,0.0810*%
%ADD20C,0.0350*%
%ADD21C,0.0060*%
%ADD22C,0.0860*%
%ADD23C,0.0610*%
%ADD24C,0.1060*%
%ADD25C,0.0660*%
G04 --Start main section--*
G54D10*
G01X1700000Y0500000D02*
G01X1900000Y0500000D01*
G01X2300000Y0500000D02*
G01X2500000Y0500000D01*
G01X1900000Y0566000D02*
G01X2300000Y0566000D01*
G01X2300000Y0566000D02*
G01X2300000Y0434000D01*
G01X2300000Y0434000D02*
G01X1900000Y0434000D01*
G01X1900000Y0434000D02*
G01X1900000Y0566000D01*
G01X2000000Y0175000D02*
G01X2000000Y0100000D01*
G01X2000000Y0400000D02*
G01X2000000Y0325000D01*
G01X1975000Y0325000D02*
G01X1975000Y0175000D01*
G01X1975000Y0325000D02*
G01X2025000Y0325000D01*
G01X2025000Y0325000D02*
G01X2025000Y0175000D01*
G01X1975000Y0175000D02*
G01X2025000Y0175000D01*
G01X1900000Y0175000D02*
G01X1900000Y0100000D01*
G01X1900000Y0400000D02*
G01X1900000Y0325000D01*
G01X1875000Y0325000D02*
G01X1875000Y0175000D01*
G01X1875000Y0325000D02*
G01X1925000Y0325000D01*
G01X1925000Y0325000D02*
G01X1925000Y0175000D01*
G01X1875000Y0175000D02*
G01X1925000Y0175000D01*
G01X3200000Y0200000D02*
G01X3400000Y0200000D01*
G01X3800000Y0200000D02*
G01X4000000Y0200000D01*
G01X3400000Y0266000D02*
G01X3800000Y0266000D01*
G01X3800000Y0266000D02*
G01X3800000Y0134000D01*
G01X3800000Y0134000D02*
G01X3400000Y0134000D01*
G01X3400000Y0134000D02*
G01X3400000Y0266000D01*
G01X2600000Y0500000D02*
G01X2800000Y0500000D01*
G01X3200000Y0500000D02*
G01X3400000Y0500000D01*
G01X2800000Y0566000D02*
G01X3200000Y0566000D01*
G01X3200000Y0566000D02*
G01X3200000Y0434000D01*
G01X3200000Y0434000D02*
G01X2800000Y0434000D01*
G01X2800000Y0434000D02*
G01X2800000Y0566000D01*
G01X3100000Y0175000D02*
G01X3100000Y0100000D01*
G01X3100000Y0400000D02*
G01X3100000Y0325000D01*
G01X3075000Y0325000D02*
G01X3075000Y0175000D01*
G01X3075000Y0325000D02*
G01X3125000Y0325000D01*
G01X3125000Y0325000D02*
G01X3125000Y0175000D01*
G01X3075000Y0175000D02*
G01X3125000Y0175000D01*
G01X3000000Y0175000D02*
G01X3000000Y0100000D01*
G01X3000000Y0400000D02*
G01X3000000Y0325000D01*
G01X2975000Y0325000D02*
G01X2975000Y0175000D01*
G01X2975000Y0325000D02*
G01X3025000Y0325000D01*
G01X3025000Y0325000D02*
G01X3025000Y0175000D01*
G01X2975000Y0175000D02*
G01X3025000Y0175000D01*
G01X2100000Y0200000D02*
G01X2300000Y0200000D01*
G01X2700000Y0200000D02*
G01X2900000Y0200000D01*
G01X2300000Y0266000D02*
G01X2700000Y0266000D01*
G01X2700000Y0266000D02*
G01X2700000Y0134000D01*
G01X2700000Y0134000D02*
G01X2300000Y0134000D01*
G01X2300000Y0134000D02*
G01X2300000Y0266000D01*
G01X0800000Y0500000D02*
G01X1000000Y0500000D01*
G01X1400000Y0500000D02*
G01X1600000Y0500000D01*
G01X1000000Y0566000D02*
G01X1400000Y0566000D01*
G01X1400000Y0566000D02*
G01X1400000Y0434000D01*
G01X1400000Y0434000D02*
G01X1000000Y0434000D01*
G01X1000000Y0434000D02*
G01X1000000Y0566000D01*
G01X0800000Y0175000D02*
G01X0800000Y0100000D01*
G01X0800000Y0400000D02*
G01X0800000Y0325000D01*
G01X0775000Y0325000D02*
G01X0775000Y0175000D01*
G01X0775000Y0325000D02*
G01X0825000Y0325000D01*
G01X0825000Y0325000D02*
G01X0825000Y0175000D01*
G01X0775000Y0175000D02*
G01X0825000Y0175000D01*
G01X0900000Y0175000D02*
G01X0900000Y0100000D01*
G01X0900000Y0400000D02*
G01X0900000Y0325000D01*
G01X0875000Y0325000D02*
G01X0875000Y0175000D01*
G01X0875000Y0325000D02*
G01X0925000Y0325000D01*
G01X0925000Y0325000D02*
G01X0925000Y0175000D01*
G01X0875000Y0175000D02*
G01X0925000Y0175000D01*
G01X1000000Y0200000D02*
G01X1200000Y0200000D01*
G01X1600000Y0200000D02*
G01X1800000Y0200000D01*
G01X1200000Y0266000D02*
G01X1600000Y0266000D01*
G01X1600000Y0266000D02*
G01X1600000Y0134000D01*
G01X1600000Y0134000D02*
G01X1200000Y0134000D01*
G01X1200000Y0134000D02*
G01X1200000Y0266000D01*
G01X4100000Y0175000D02*
G01X4100000Y0100000D01*
G01X4100000Y0400000D02*
G01X4100000Y0325000D01*
G01X4075000Y0325000D02*
G01X4075000Y0175000D01*
G01X4075000Y0325000D02*
G01X4125000Y0325000D01*
G01X4125000Y0325000D02*
G01X4125000Y0175000D01*
G01X4075000Y0175000D02*
G01X4125000Y0175000D01*
G01X4440000Y0590000D02*
G01X4990000Y0590000D01*
G01X4990000Y0590000D02*
G01X4990000Y0010000D01*
G01X4440000Y0010000D02*
G01X4990000Y0010000D01*
G01X4440000Y0590000D02*
G01X4440000Y0010000D01*
G01X0010000Y0010000D02*
G01X0560000Y0010000D01*
G01X0010000Y0590000D02*
G01X0010000Y0010000D01*
G01X0010000Y0590000D02*
G01X0560000Y0590000D01*
G01X0560000Y0590000D02*
G01X0560000Y0010000D01*
G01X3200000Y0256000D02*
G01X3200000Y0216000D01*
G01X3200000Y0216000D02*
G01X3220000Y0216000D01*
G01X3247000Y0256000D02*
G01X3252000Y0251000D01*
G01X3237000Y0256000D02*
G01X3247000Y0256000D01*
G01X3232000Y0251000D02*
G01X3237000Y0256000D01*
G01X3232000Y0251000D02*
G01X3232000Y0221000D01*
G01X3232000Y0221000D02*
G01X3237000Y0216000D01*
G01X3247000Y0238000D02*
G01X3252000Y0233000D01*
G01X3232000Y0238000D02*
G01X3247000Y0238000D01*
G01X3237000Y0216000D02*
G01X3247000Y0216000D01*
G01X3247000Y0216000D02*
G01X3252000Y0221000D01*
G01X3252000Y0233000D02*
G01X3252000Y0221000D01*
G01X2600000Y0556000D02*
G01X2600000Y0516000D01*
G01X2600000Y0516000D02*
G01X2620000Y0516000D01*
G01X2632000Y0556000D02*
G01X2652000Y0556000D01*
G01X2632000Y0556000D02*
G01X2632000Y0536000D01*
G01X2632000Y0536000D02*
G01X2637000Y0541000D01*
G01X2637000Y0541000D02*
G01X2647000Y0541000D01*
G01X2647000Y0541000D02*
G01X2652000Y0536000D01*
G01X2652000Y0536000D02*
G01X2652000Y0521000D01*
G01X2647000Y0516000D02*
G01X2652000Y0521000D01*
G01X2637000Y0516000D02*
G01X2647000Y0516000D01*
G01X2632000Y0521000D02*
G01X2637000Y0516000D01*
G01X3125000Y0120000D02*
G01X3125000Y0107000D01*
G01X3118000Y0100000D02*
G01X3125000Y0107000D01*
G01X3092000Y0100000D02*
G01X3118000Y0100000D01*
G01X3092000Y0100000D02*
G01X3085000Y0107000D01*
G01X3085000Y0120000D02*
G01X3085000Y0107000D01*
G01X3085000Y0147000D02*
G01X3090000Y0152000D01*
G01X3085000Y0147000D02*
G01X3085000Y0137000D01*
G01X3090000Y0132000D02*
G01X3085000Y0137000D01*
G01X3090000Y0132000D02*
G01X3120000Y0132000D01*
G01X3120000Y0132000D02*
G01X3125000Y0137000D01*
G01X3103000Y0147000D02*
G01X3108000Y0152000D01*
G01X3103000Y0147000D02*
G01X3103000Y0132000D01*
G01X3125000Y0147000D02*
G01X3125000Y0137000D01*
G01X3125000Y0147000D02*
G01X3120000Y0152000D01*
G01X3108000Y0152000D02*
G01X3120000Y0152000D01*
G01X3025000Y0120000D02*
G01X3025000Y0107000D01*
G01X3018000Y0100000D02*
G01X3025000Y0107000D01*
G01X2992000Y0100000D02*
G01X3018000Y0100000D01*
G01X2992000Y0100000D02*
G01X2985000Y0107000D01*
G01X2985000Y0120000D02*
G01X2985000Y0107000D01*
G01X2985000Y0152000D02*
G01X2985000Y0132000D01*
G01X2985000Y0132000D02*
G01X3005000Y0132000D01*
G01X3005000Y0132000D02*
G01X3000000Y0137000D01*
G01X3000000Y0147000D02*
G01X3000000Y0137000D01*
G01X3000000Y0147000D02*
G01X3005000Y0152000D01*
G01X3005000Y0152000D02*
G01X3020000Y0152000D01*
G01X3025000Y0147000D02*
G01X3020000Y0152000D01*
G01X3025000Y0147000D02*
G01X3025000Y0137000D01*
G01X3020000Y0132000D02*
G01X3025000Y0137000D01*
G01X1700000Y0556000D02*
G01X1700000Y0516000D01*
G01X1700000Y0516000D02*
G01X1720000Y0516000D01*
G01X1732000Y0551000D02*
G01X1737000Y0556000D01*
G01X1737000Y0556000D02*
G01X1747000Y0556000D01*
G01X1747000Y0556000D02*
G01X1752000Y0551000D01*
G01X1747000Y0516000D02*
G01X1752000Y0521000D01*
G01X1737000Y0516000D02*
G01X1747000Y0516000D01*
G01X1732000Y0521000D02*
G01X1737000Y0516000D01*
G01X1737000Y0538000D02*
G01X1747000Y0538000D01*
G01X1752000Y0551000D02*
G01X1752000Y0543000D01*
G01X1752000Y0533000D02*
G01X1752000Y0521000D01*
G01X1752000Y0533000D02*
G01X1747000Y0538000D01*
G01X1752000Y0543000D02*
G01X1747000Y0538000D01*
G01X0800000Y0556000D02*
G01X0800000Y0516000D01*
G01X0800000Y0516000D02*
G01X0820000Y0516000D01*
G01X0832000Y0548000D02*
G01X0840000Y0556000D01*
G01X0840000Y0556000D02*
G01X0840000Y0516000D01*
G01X0832000Y0516000D02*
G01X0847000Y0516000D01*
G01X0825000Y0120000D02*
G01X0825000Y0107000D01*
G01X0818000Y0100000D02*
G01X0825000Y0107000D01*
G01X0792000Y0100000D02*
G01X0818000Y0100000D01*
G01X0792000Y0100000D02*
G01X0785000Y0107000D01*
G01X0785000Y0120000D02*
G01X0785000Y0107000D01*
G01X0793000Y0132000D02*
G01X0785000Y0140000D01*
G01X0785000Y0140000D02*
G01X0825000Y0140000D01*
G01X0825000Y0147000D02*
G01X0825000Y0132000D01*
G01X0925000Y0120000D02*
G01X0925000Y0107000D01*
G01X0918000Y0100000D02*
G01X0925000Y0107000D01*
G01X0892000Y0100000D02*
G01X0918000Y0100000D01*
G01X0892000Y0100000D02*
G01X0885000Y0107000D01*
G01X0885000Y0120000D02*
G01X0885000Y0107000D01*
G01X0890000Y0132000D02*
G01X0885000Y0137000D01*
G01X0885000Y0152000D02*
G01X0885000Y0137000D01*
G01X0885000Y0152000D02*
G01X0890000Y0157000D01*
G01X0890000Y0157000D02*
G01X0900000Y0157000D01*
G01X0925000Y0132000D02*
G01X0900000Y0157000D01*
G01X0925000Y0157000D02*
G01X0925000Y0132000D01*
G01X1000000Y0256000D02*
G01X1000000Y0216000D01*
G01X1000000Y0216000D02*
G01X1020000Y0216000D01*
G01X1032000Y0251000D02*
G01X1037000Y0256000D01*
G01X1037000Y0256000D02*
G01X1052000Y0256000D01*
G01X1052000Y0256000D02*
G01X1057000Y0251000D01*
G01X1057000Y0251000D02*
G01X1057000Y0241000D01*
G01X1032000Y0216000D02*
G01X1057000Y0241000D01*
G01X1032000Y0216000D02*
G01X1057000Y0216000D01*
G01X0550000Y0320000D02*
G01X0550000Y0307000D01*
G01X0543000Y0300000D02*
G01X0550000Y0307000D01*
G01X0517000Y0300000D02*
G01X0543000Y0300000D01*
G01X0517000Y0300000D02*
G01X0510000Y0307000D01*
G01X0510000Y0320000D02*
G01X0510000Y0307000D01*
G01X0515000Y0332000D02*
G01X0545000Y0332000D01*
G01X0515000Y0332000D02*
G01X0510000Y0337000D01*
G01X0510000Y0347000D02*
G01X0510000Y0337000D01*
G01X0510000Y0347000D02*
G01X0515000Y0352000D01*
G01X0515000Y0352000D02*
G01X0545000Y0352000D01*
G01X0550000Y0347000D02*
G01X0545000Y0352000D01*
G01X0550000Y0347000D02*
G01X0550000Y0337000D01*
G01X0545000Y0332000D02*
G01X0550000Y0337000D01*
G01X0510000Y0364000D02*
G01X0550000Y0364000D01*
G01X0510000Y0364000D02*
G01X0550000Y0389000D01*
G01X0510000Y0389000D02*
G01X0550000Y0389000D01*
G01X0510000Y0401000D02*
G01X0550000Y0401000D01*
G01X0510000Y0401000D02*
G01X0550000Y0426000D01*
G01X0510000Y0426000D02*
G01X0550000Y0426000D01*
G01X0518000Y0438000D02*
G01X0510000Y0446000D01*
G01X0510000Y0446000D02*
G01X0550000Y0446000D01*
G01X0550000Y0453000D02*
G01X0550000Y0438000D01*
G01X2025000Y0120000D02*
G01X2025000Y0107000D01*
G01X2018000Y0100000D02*
G01X2025000Y0107000D01*
G01X1992000Y0100000D02*
G01X2018000Y0100000D01*
G01X1992000Y0100000D02*
G01X1985000Y0107000D01*
G01X1985000Y0120000D02*
G01X1985000Y0107000D01*
G01X2010000Y0132000D02*
G01X1985000Y0152000D01*
G01X2010000Y0157000D02*
G01X2010000Y0132000D01*
G01X1985000Y0152000D02*
G01X2025000Y0152000D01*
G01X1925000Y0120000D02*
G01X1925000Y0107000D01*
G01X1918000Y0100000D02*
G01X1925000Y0107000D01*
G01X1892000Y0100000D02*
G01X1918000Y0100000D01*
G01X1892000Y0100000D02*
G01X1885000Y0107000D01*
G01X1885000Y0120000D02*
G01X1885000Y0107000D01*
G01X1890000Y0132000D02*
G01X1885000Y0137000D01*
G01X1885000Y0147000D02*
G01X1885000Y0137000D01*
G01X1885000Y0147000D02*
G01X1890000Y0152000D01*
G01X1925000Y0147000D02*
G01X1920000Y0152000D01*
G01X1925000Y0147000D02*
G01X1925000Y0137000D01*
G01X1920000Y0132000D02*
G01X1925000Y0137000D01*
G01X1903000Y0147000D02*
G01X1903000Y0137000D01*
G01X1890000Y0152000D02*
G01X1898000Y0152000D01*
G01X1908000Y0152000D02*
G01X1920000Y0152000D01*
G01X1908000Y0152000D02*
G01X1903000Y0147000D01*
G01X1898000Y0152000D02*
G01X1903000Y0147000D01*
G01X2100000Y0256000D02*
G01X2100000Y0216000D01*
G01X2100000Y0216000D02*
G01X2120000Y0216000D01*
G01X2132000Y0231000D02*
G01X2152000Y0256000D01*
G01X2132000Y0231000D02*
G01X2157000Y0231000D01*
G01X2152000Y0256000D02*
G01X2152000Y0216000D01*
G01X4195000Y0365000D02*
G01X4195000Y0352000D01*
G01X4188000Y0345000D02*
G01X4195000Y0352000D01*
G01X4162000Y0345000D02*
G01X4188000Y0345000D01*
G01X4162000Y0345000D02*
G01X4155000Y0352000D01*
G01X4155000Y0365000D02*
G01X4155000Y0352000D01*
G01X4195000Y0382000D02*
G01X4155000Y0402000D01*
G01X4155000Y0402000D02*
G01X4155000Y0377000D01*
G01X4450000Y0293000D02*
G01X4450000Y0280000D01*
G01X4457000Y0300000D02*
G01X4450000Y0293000D01*
G01X4457000Y0300000D02*
G01X4483000Y0300000D01*
G01X4483000Y0300000D02*
G01X4490000Y0293000D01*
G01X4490000Y0293000D02*
G01X4490000Y0280000D01*
G01X4455000Y0268000D02*
G01X4485000Y0268000D01*
G01X4485000Y0268000D02*
G01X4490000Y0263000D01*
G01X4490000Y0263000D02*
G01X4490000Y0253000D01*
G01X4490000Y0253000D02*
G01X4485000Y0248000D01*
G01X4455000Y0248000D02*
G01X4485000Y0248000D01*
G01X4450000Y0253000D02*
G01X4455000Y0248000D01*
G01X4450000Y0263000D02*
G01X4450000Y0253000D01*
G01X4455000Y0268000D02*
G01X4450000Y0263000D01*
G01X4450000Y0236000D02*
G01X4490000Y0236000D01*
G01X4490000Y0236000D02*
G01X4450000Y0211000D01*
G01X4450000Y0211000D02*
G01X4490000Y0211000D01*
G01X4450000Y0199000D02*
G01X4490000Y0199000D01*
G01X4490000Y0199000D02*
G01X4450000Y0174000D01*
G01X4450000Y0174000D02*
G01X4490000Y0174000D01*
G01X4485000Y0162000D02*
G01X4490000Y0157000D01*
G01X4490000Y0157000D02*
G01X4490000Y0142000D01*
G01X4490000Y0142000D02*
G01X4485000Y0137000D01*
G01X4475000Y0137000D02*
G01X4485000Y0137000D01*
G01X4450000Y0162000D02*
G01X4475000Y0137000D01*
G01X4450000Y0162000D02*
G01X4450000Y0137000D01*
G01X0000000Y0000000D02*
G54D11*
G36*
G01X5000000Y0600000D02*
G01X5000000Y0000000D01*
G01X4246240Y0000000D01*
G01X4246240Y0352500D01*
G01X4280320Y0352500D01*
G01X4365100Y0267730D01*
G01X4366310Y0266310D01*
G01X4371990Y0261450D01*
G01X4371990Y0261450D01*
G01X4375950Y0259030D01*
G01X4378370Y0257550D01*
G01X4385280Y0254690D01*
G01X4386680Y0254350D01*
G01X4392550Y0252940D01*
G01X4400000Y0252350D01*
G01X4401860Y0252500D01*
G01X4500000Y0252500D01*
G01X4507450Y0252940D01*
G01X4514720Y0254690D01*
G01X4515730Y0255100D01*
G01X4532350Y0255140D01*
G01X4534650Y0255690D01*
G01X4536830Y0256590D01*
G01X4538840Y0257830D01*
G01X4540640Y0259360D01*
G01X4542170Y0261160D01*
G01X4543410Y0263170D01*
G01X4544310Y0265350D01*
G01X4544860Y0267650D01*
G01X4545000Y0270000D01*
G01X4544970Y0284440D01*
G01X4545310Y0285280D01*
G01X4547060Y0292550D01*
G01X4547650Y0300000D01*
G01X4547060Y0307450D01*
G01X4545310Y0314720D01*
G01X4544900Y0315730D01*
G01X4544860Y0332350D01*
G01X4544310Y0334650D01*
G01X4543410Y0336830D01*
G01X4542170Y0338840D01*
G01X4540640Y0340640D01*
G01X4538840Y0342170D01*
G01X4536830Y0343410D01*
G01X4534650Y0344310D01*
G01X4532350Y0344860D01*
G01X4530000Y0345000D01*
G01X4515560Y0344970D01*
G01X4514720Y0345310D01*
G01X4507450Y0347060D01*
G01X4500000Y0347500D01*
G01X4419680Y0347500D01*
G01X4334900Y0432270D01*
G01X4333690Y0433690D01*
G01X4328010Y0438550D01*
G01X4328010Y0438550D01*
G01X4321630Y0442450D01*
G01X4314720Y0445310D01*
G01X4307450Y0447060D01*
G01X4300000Y0447650D01*
G01X4298140Y0447500D01*
G01X4246240Y0447500D01*
G01X4246240Y0600000D01*
G01X5000000Y0600000D01*
G37*
G36*
G01X4246240Y0000000D02*
G01X3253680Y0000000D01*
G01X3253680Y0153820D01*
G01X3254310Y0155350D01*
G01X3254860Y0157650D01*
G01X3255000Y0160000D01*
G01X3254860Y0242350D01*
G01X3254310Y0244650D01*
G01X3253680Y0246180D01*
G01X3253680Y0452500D01*
G01X3372250Y0452500D01*
G01X3374950Y0450840D01*
G01X3382950Y0447530D01*
G01X3391370Y0445510D01*
G01X3400000Y0444830D01*
G01X3408630Y0445510D01*
G01X3417050Y0447530D01*
G01X3425050Y0450840D01*
G01X3432430Y0455370D01*
G01X3439010Y0460990D01*
G01X3444630Y0467570D01*
G01X3449160Y0474950D01*
G01X3452470Y0482950D01*
G01X3454490Y0491370D01*
G01X3455000Y0500000D01*
G01X3454490Y0508630D01*
G01X3452470Y0517050D01*
G01X3449160Y0525050D01*
G01X3444630Y0532430D01*
G01X3439010Y0539010D01*
G01X3432430Y0544630D01*
G01X3425050Y0549160D01*
G01X3417050Y0552470D01*
G01X3408630Y0554490D01*
G01X3400000Y0555170D01*
G01X3391370Y0554490D01*
G01X3382950Y0552470D01*
G01X3374950Y0549160D01*
G01X3372250Y0547500D01*
G01X3253680Y0547500D01*
G01X3253680Y0600000D01*
G01X4246240Y0600000D01*
G01X4246240Y0447500D01*
G01X4101860Y0447500D01*
G01X4100000Y0447650D01*
G01X4092550Y0447060D01*
G01X4085280Y0445310D01*
G01X4078370Y0442450D01*
G01X4071990Y0438550D01*
G01X4071990Y0438540D01*
G01X4066310Y0433690D01*
G01X4065100Y0432270D01*
G01X3967730Y0334900D01*
G01X3966310Y0333690D01*
G01X3961450Y0328010D01*
G01X3957550Y0321630D01*
G01X3954690Y0314720D01*
G01X3952940Y0307450D01*
G01X3952350Y0300000D01*
G01X3952500Y0298140D01*
G01X3952500Y0227750D01*
G01X3950840Y0225050D01*
G01X3947530Y0217050D01*
G01X3945510Y0208630D01*
G01X3944830Y0200000D01*
G01X3945510Y0191370D01*
G01X3947530Y0182950D01*
G01X3950840Y0174950D01*
G01X3955370Y0167570D01*
G01X3960990Y0160990D01*
G01X3967570Y0155370D01*
G01X3974950Y0150840D01*
G01X3982950Y0147530D01*
G01X3991370Y0145510D01*
G01X4000000Y0144830D01*
G01X4008630Y0145510D01*
G01X4017050Y0147530D01*
G01X4025050Y0150840D01*
G01X4032430Y0155370D01*
G01X4039010Y0160990D01*
G01X4044630Y0167570D01*
G01X4049160Y0174950D01*
G01X4052470Y0182950D01*
G01X4054490Y0191370D01*
G01X4055000Y0200000D01*
G01X4054490Y0208630D01*
G01X4052470Y0217050D01*
G01X4049160Y0225050D01*
G01X4047500Y0227750D01*
G01X4047500Y0280320D01*
G01X4119680Y0352500D01*
G01X4246240Y0352500D01*
G01X4246240Y0000000D01*
G37*
G36*
G01X3253680Y0246180D02*
G01X3253410Y0246830D01*
G01X3252170Y0248840D01*
G01X3250640Y0250640D01*
G01X3248840Y0252170D01*
G01X3246830Y0253410D01*
G01X3244650Y0254310D01*
G01X3242350Y0254860D01*
G01X3240000Y0255000D01*
G01X3212220Y0254950D01*
G01X3147500Y0319680D01*
G01X3147500Y0380320D01*
G01X3219680Y0452500D01*
G01X3253680Y0452500D01*
G01X3253680Y0246180D01*
G37*
G36*
G01X3253680Y0000000D02*
G01X2500000Y0000000D01*
G01X2500000Y0444830D01*
G01X2508630Y0445510D01*
G01X2517050Y0447530D01*
G01X2525050Y0450840D01*
G01X2532430Y0455370D01*
G01X2539010Y0460990D01*
G01X2544630Y0467570D01*
G01X2545120Y0468370D01*
G01X2545140Y0457650D01*
G01X2545690Y0455350D01*
G01X2546590Y0453170D01*
G01X2547830Y0451160D01*
G01X2549360Y0449360D01*
G01X2551160Y0447830D01*
G01X2553170Y0446590D01*
G01X2555350Y0445690D01*
G01X2557650Y0445140D01*
G01X2560000Y0445000D01*
G01X2642350Y0445140D01*
G01X2644650Y0445690D01*
G01X2646830Y0446590D01*
G01X2648840Y0447830D01*
G01X2650640Y0449360D01*
G01X2652170Y0451160D01*
G01X2653000Y0452500D01*
G01X2880320Y0452500D01*
G01X2952500Y0380320D01*
G01X2952500Y0319680D01*
G01X2886030Y0253210D01*
G01X2882950Y0252470D01*
G01X2874950Y0249160D01*
G01X2867570Y0244630D01*
G01X2860990Y0239010D01*
G01X2855370Y0232430D01*
G01X2850840Y0225050D01*
G01X2847530Y0217050D01*
G01X2845510Y0208630D01*
G01X2844830Y0200000D01*
G01X2845510Y0191370D01*
G01X2847530Y0182950D01*
G01X2850840Y0174950D01*
G01X2855370Y0167570D01*
G01X2860990Y0160990D01*
G01X2867570Y0155370D01*
G01X2874950Y0150840D01*
G01X2882950Y0147530D01*
G01X2891370Y0145510D01*
G01X2900000Y0144830D01*
G01X2908630Y0145510D01*
G01X2917050Y0147530D01*
G01X2925050Y0150840D01*
G01X2932430Y0155370D01*
G01X2939010Y0160990D01*
G01X2944630Y0167570D01*
G01X2949160Y0174950D01*
G01X2952470Y0182950D01*
G01X2953210Y0186030D01*
G01X3032270Y0265100D01*
G01X3033690Y0266310D01*
G01X3038540Y0271990D01*
G01X3038550Y0271990D01*
G01X3042450Y0278370D01*
G01X3045310Y0285280D01*
G01X3047060Y0292550D01*
G01X3047650Y0300000D01*
G01X3047500Y0301860D01*
G01X3047500Y0398140D01*
G01X3047650Y0400000D01*
G01X3047060Y0407450D01*
G01X3045310Y0414720D01*
G01X3042450Y0421630D01*
G01X3038550Y0428010D01*
G01X3038550Y0428010D01*
G01X3033690Y0433690D01*
G01X3032270Y0434900D01*
G01X2934900Y0532270D01*
G01X2933690Y0533690D01*
G01X2928010Y0538550D01*
G01X2928010Y0538550D01*
G01X2921630Y0542450D01*
G01X2914720Y0545310D01*
G01X2907450Y0547060D01*
G01X2900000Y0547650D01*
G01X2898140Y0547500D01*
G01X2653000Y0547500D01*
G01X2652170Y0548840D01*
G01X2650640Y0550640D01*
G01X2648840Y0552170D01*
G01X2646830Y0553410D01*
G01X2644650Y0554310D01*
G01X2642350Y0554860D01*
G01X2640000Y0555000D01*
G01X2557650Y0554860D01*
G01X2555350Y0554310D01*
G01X2553170Y0553410D01*
G01X2551160Y0552170D01*
G01X2549360Y0550640D01*
G01X2547830Y0548840D01*
G01X2546590Y0546830D01*
G01X2545690Y0544650D01*
G01X2545140Y0542350D01*
G01X2545000Y0540000D01*
G01X2545010Y0531810D01*
G01X2544630Y0532430D01*
G01X2539010Y0539010D01*
G01X2532430Y0544630D01*
G01X2525050Y0549160D01*
G01X2517050Y0552470D01*
G01X2508630Y0554490D01*
G01X2500000Y0555170D01*
G01X2500000Y0600000D01*
G01X3253680Y0600000D01*
G01X3253680Y0547500D01*
G01X3201860Y0547500D01*
G01X3200000Y0547650D01*
G01X3192550Y0547060D01*
G01X3185280Y0545310D01*
G01X3178370Y0542450D01*
G01X3171990Y0538550D01*
G01X3171990Y0538540D01*
G01X3166310Y0533690D01*
G01X3165100Y0532270D01*
G01X3067730Y0434900D01*
G01X3066310Y0433690D01*
G01X3061450Y0428010D01*
G01X3057550Y0421630D01*
G01X3054690Y0414720D01*
G01X3052940Y0407450D01*
G01X3052350Y0400000D01*
G01X3052500Y0398140D01*
G01X3052500Y0301860D01*
G01X3052350Y0300000D01*
G01X3052940Y0292550D01*
G01X3054350Y0286680D01*
G01X3054690Y0285280D01*
G01X3057550Y0278370D01*
G01X3059030Y0275950D01*
G01X3061450Y0271990D01*
G01X3061450Y0271990D01*
G01X3066310Y0266310D01*
G01X3067730Y0265100D01*
G01X3145090Y0187740D01*
G01X3145140Y0157650D01*
G01X3145690Y0155350D01*
G01X3146590Y0153170D01*
G01X3147830Y0151160D01*
G01X3149360Y0149360D01*
G01X3151160Y0147830D01*
G01X3153170Y0146590D01*
G01X3155350Y0145690D01*
G01X3157650Y0145140D01*
G01X3160000Y0145000D01*
G01X3242350Y0145140D01*
G01X3244650Y0145690D01*
G01X3246830Y0146590D01*
G01X3248840Y0147830D01*
G01X3250640Y0149360D01*
G01X3252170Y0151160D01*
G01X3253410Y0153170D01*
G01X3253680Y0153820D01*
G01X3253680Y0000000D01*
G37*
G36*
G01X2500000Y0000000D02*
G01X1400000Y0000000D01*
G01X1400000Y0452500D01*
G01X1572250Y0452500D01*
G01X1574950Y0450840D01*
G01X1582950Y0447530D01*
G01X1591370Y0445510D01*
G01X1600000Y0444830D01*
G01X1608630Y0445510D01*
G01X1617050Y0447530D01*
G01X1625050Y0450840D01*
G01X1632430Y0455370D01*
G01X1639010Y0460990D01*
G01X1644630Y0467570D01*
G01X1645120Y0468370D01*
G01X1645140Y0457650D01*
G01X1645690Y0455350D01*
G01X1646590Y0453170D01*
G01X1647830Y0451160D01*
G01X1649360Y0449360D01*
G01X1651160Y0447830D01*
G01X1653170Y0446590D01*
G01X1655350Y0445690D01*
G01X1657650Y0445140D01*
G01X1660000Y0445000D01*
G01X1742350Y0445140D01*
G01X1744650Y0445690D01*
G01X1746830Y0446590D01*
G01X1748840Y0447830D01*
G01X1750640Y0449360D01*
G01X1752170Y0451160D01*
G01X1753000Y0452500D01*
G01X1780320Y0452500D01*
G01X1852500Y0380320D01*
G01X1852500Y0319680D01*
G01X1786030Y0253210D01*
G01X1782950Y0252470D01*
G01X1774950Y0249160D01*
G01X1767570Y0244630D01*
G01X1760990Y0239010D01*
G01X1755370Y0232430D01*
G01X1750840Y0225050D01*
G01X1747530Y0217050D01*
G01X1745510Y0208630D01*
G01X1744830Y0200000D01*
G01X1745510Y0191370D01*
G01X1747530Y0182950D01*
G01X1750840Y0174950D01*
G01X1755370Y0167570D01*
G01X1760990Y0160990D01*
G01X1767570Y0155370D01*
G01X1774950Y0150840D01*
G01X1782950Y0147530D01*
G01X1791370Y0145510D01*
G01X1800000Y0144830D01*
G01X1808630Y0145510D01*
G01X1817050Y0147530D01*
G01X1825050Y0150840D01*
G01X1832430Y0155370D01*
G01X1839010Y0160990D01*
G01X1844630Y0167570D01*
G01X1849160Y0174950D01*
G01X1852470Y0182950D01*
G01X1853210Y0186030D01*
G01X1932270Y0265100D01*
G01X1933690Y0266310D01*
G01X1938540Y0271990D01*
G01X1938550Y0271990D01*
G01X1942450Y0278370D01*
G01X1945310Y0285280D01*
G01X1947060Y0292550D01*
G01X1947650Y0300000D01*
G01X1947500Y0301860D01*
G01X1947500Y0398140D01*
G01X1947650Y0400000D01*
G01X1947060Y0407450D01*
G01X1945310Y0414720D01*
G01X1942450Y0421630D01*
G01X1938550Y0428010D01*
G01X1938550Y0428010D01*
G01X1933690Y0433690D01*
G01X1932270Y0434900D01*
G01X1834900Y0532270D01*
G01X1833690Y0533690D01*
G01X1828010Y0538550D01*
G01X1828010Y0538550D01*
G01X1821630Y0542450D01*
G01X1814720Y0545310D01*
G01X1807450Y0547060D01*
G01X1800000Y0547650D01*
G01X1798140Y0547500D01*
G01X1753000Y0547500D01*
G01X1752170Y0548840D01*
G01X1750640Y0550640D01*
G01X1748840Y0552170D01*
G01X1746830Y0553410D01*
G01X1744650Y0554310D01*
G01X1742350Y0554860D01*
G01X1740000Y0555000D01*
G01X1657650Y0554860D01*
G01X1655350Y0554310D01*
G01X1653170Y0553410D01*
G01X1651160Y0552170D01*
G01X1649360Y0550640D01*
G01X1647830Y0548840D01*
G01X1646590Y0546830D01*
G01X1645690Y0544650D01*
G01X1645140Y0542350D01*
G01X1645000Y0540000D01*
G01X1645010Y0531810D01*
G01X1644630Y0532430D01*
G01X1639010Y0539010D01*
G01X1632430Y0544630D01*
G01X1625050Y0549160D01*
G01X1617050Y0552470D01*
G01X1608630Y0554490D01*
G01X1600000Y0555170D01*
G01X1591370Y0554490D01*
G01X1582950Y0552470D01*
G01X1574950Y0549160D01*
G01X1572250Y0547500D01*
G01X1400000Y0547500D01*
G01X1400000Y0600000D01*
G01X2500000Y0600000D01*
G01X2500000Y0555170D01*
G01X2500000Y0555170D01*
G01X2491370Y0554490D01*
G01X2482950Y0552470D01*
G01X2474950Y0549160D01*
G01X2472250Y0547500D01*
G01X2101860Y0547500D01*
G01X2100000Y0547650D01*
G01X2092550Y0547060D01*
G01X2085280Y0545310D01*
G01X2078370Y0542450D01*
G01X2071990Y0538550D01*
G01X2071990Y0538540D01*
G01X2066310Y0533690D01*
G01X2065100Y0532270D01*
G01X1967730Y0434900D01*
G01X1966310Y0433690D01*
G01X1961450Y0428010D01*
G01X1957550Y0421630D01*
G01X1954690Y0414720D01*
G01X1952940Y0407450D01*
G01X1952350Y0400000D01*
G01X1952500Y0398140D01*
G01X1952500Y0301860D01*
G01X1952350Y0300000D01*
G01X1952940Y0292550D01*
G01X1954350Y0286680D01*
G01X1954690Y0285280D01*
G01X1957550Y0278370D01*
G01X1959030Y0275950D01*
G01X1961450Y0271990D01*
G01X1961450Y0271990D01*
G01X1966310Y0266310D01*
G01X1967730Y0265100D01*
G01X2045090Y0187740D01*
G01X2045140Y0157650D01*
G01X2045690Y0155350D01*
G01X2046590Y0153170D01*
G01X2047830Y0151160D01*
G01X2049360Y0149360D01*
G01X2051160Y0147830D01*
G01X2053170Y0146590D01*
G01X2055350Y0145690D01*
G01X2057650Y0145140D01*
G01X2060000Y0145000D01*
G01X2142350Y0145140D01*
G01X2144650Y0145690D01*
G01X2146830Y0146590D01*
G01X2148840Y0147830D01*
G01X2150640Y0149360D01*
G01X2152170Y0151160D01*
G01X2153410Y0153170D01*
G01X2154310Y0155350D01*
G01X2154860Y0157650D01*
G01X2155000Y0160000D01*
G01X2154860Y0242350D01*
G01X2154310Y0244650D01*
G01X2153410Y0246830D01*
G01X2152170Y0248840D01*
G01X2150640Y0250640D01*
G01X2148840Y0252170D01*
G01X2146830Y0253410D01*
G01X2144650Y0254310D01*
G01X2142350Y0254860D01*
G01X2140000Y0255000D01*
G01X2112220Y0254950D01*
G01X2047500Y0319680D01*
G01X2047500Y0380320D01*
G01X2119680Y0452500D01*
G01X2472250Y0452500D01*
G01X2474950Y0450840D01*
G01X2482950Y0447530D01*
G01X2491370Y0445510D01*
G01X2500000Y0444830D01*
G01X2500000Y0444830D01*
G01X2500000Y0000000D01*
G37*
G36*
G01X1400000Y0000000D02*
G01X0653680Y0000000D01*
G01X0653680Y0252500D01*
G01X0698140Y0252500D01*
G01X0700000Y0252350D01*
G01X0707450Y0252940D01*
G01X0714720Y0254690D01*
G01X0721630Y0257550D01*
G01X0728010Y0261450D01*
G01X0733690Y0266310D01*
G01X0734900Y0267730D01*
G01X0832270Y0365100D01*
G01X0833690Y0366310D01*
G01X0838540Y0371990D01*
G01X0838550Y0371990D01*
G01X0842450Y0378370D01*
G01X0845310Y0385280D01*
G01X0847060Y0392550D01*
G01X0847650Y0400000D01*
G01X0847500Y0401860D01*
G01X0847500Y0447000D01*
G01X0848840Y0447830D01*
G01X0850640Y0449360D01*
G01X0852170Y0451160D01*
G01X0853410Y0453170D01*
G01X0854310Y0455350D01*
G01X0854860Y0457650D01*
G01X0855000Y0460000D01*
G01X0854860Y0542350D01*
G01X0854310Y0544650D01*
G01X0853410Y0546830D01*
G01X0852170Y0548840D01*
G01X0850640Y0550640D01*
G01X0848840Y0552170D01*
G01X0846830Y0553410D01*
G01X0844650Y0554310D01*
G01X0842350Y0554860D01*
G01X0840000Y0555000D01*
G01X0757650Y0554860D01*
G01X0755350Y0554310D01*
G01X0753170Y0553410D01*
G01X0751160Y0552170D01*
G01X0749360Y0550640D01*
G01X0747830Y0548840D01*
G01X0746590Y0546830D01*
G01X0745690Y0544650D01*
G01X0745140Y0542350D01*
G01X0745000Y0540000D01*
G01X0745140Y0457650D01*
G01X0745690Y0455350D01*
G01X0746590Y0453170D01*
G01X0747830Y0451160D01*
G01X0749360Y0449360D01*
G01X0751160Y0447830D01*
G01X0752500Y0447000D01*
G01X0752500Y0419680D01*
G01X0680320Y0347500D01*
G01X0653680Y0347500D01*
G01X0653680Y0600000D01*
G01X1400000Y0600000D01*
G01X1400000Y0547500D01*
G01X1001860Y0547500D01*
G01X1000000Y0547650D01*
G01X0992550Y0547060D01*
G01X0985280Y0545310D01*
G01X0978370Y0542450D01*
G01X0971990Y0538550D01*
G01X0971990Y0538540D01*
G01X0966310Y0533690D01*
G01X0965100Y0532270D01*
G01X0867730Y0434900D01*
G01X0866310Y0433690D01*
G01X0861450Y0428010D01*
G01X0857550Y0421630D01*
G01X0854690Y0414720D01*
G01X0852940Y0407450D01*
G01X0852350Y0400000D01*
G01X0852500Y0398140D01*
G01X0852500Y0301860D01*
G01X0852350Y0300000D01*
G01X0852940Y0292550D01*
G01X0854350Y0286680D01*
G01X0854690Y0285280D01*
G01X0857550Y0278370D01*
G01X0859030Y0275950D01*
G01X0861450Y0271990D01*
G01X0861450Y0271990D01*
G01X0866310Y0266310D01*
G01X0867730Y0265100D01*
G01X0945090Y0187740D01*
G01X0945140Y0157650D01*
G01X0945690Y0155350D01*
G01X0946590Y0153170D01*
G01X0947830Y0151160D01*
G01X0949360Y0149360D01*
G01X0951160Y0147830D01*
G01X0953170Y0146590D01*
G01X0955350Y0145690D01*
G01X0957650Y0145140D01*
G01X0960000Y0145000D01*
G01X1042350Y0145140D01*
G01X1044650Y0145690D01*
G01X1046830Y0146590D01*
G01X1048840Y0147830D01*
G01X1050640Y0149360D01*
G01X1052170Y0151160D01*
G01X1053410Y0153170D01*
G01X1054310Y0155350D01*
G01X1054860Y0157650D01*
G01X1055000Y0160000D01*
G01X1054860Y0242350D01*
G01X1054310Y0244650D01*
G01X1053410Y0246830D01*
G01X1052170Y0248840D01*
G01X1050640Y0250640D01*
G01X1048840Y0252170D01*
G01X1046830Y0253410D01*
G01X1044650Y0254310D01*
G01X1042350Y0254860D01*
G01X1040000Y0255000D01*
G01X1012220Y0254950D01*
G01X0947500Y0319680D01*
G01X0947500Y0380320D01*
G01X1019680Y0452500D01*
G01X1400000Y0452500D01*
G01X1400000Y0000000D01*
G37*
G36*
G01X0653680Y0000000D02*
G01X0000000Y0000000D01*
G01X0000000Y0600000D01*
G01X0653680Y0600000D01*
G01X0653680Y0347500D01*
G01X0500000Y0347500D01*
G01X0492550Y0347060D01*
G01X0485280Y0345310D01*
G01X0484270Y0344900D01*
G01X0467650Y0344860D01*
G01X0465350Y0344310D01*
G01X0463170Y0343410D01*
G01X0461160Y0342170D01*
G01X0459360Y0340640D01*
G01X0457830Y0338840D01*
G01X0456590Y0336830D01*
G01X0455690Y0334650D01*
G01X0455140Y0332350D01*
G01X0455000Y0330000D01*
G01X0455030Y0315560D01*
G01X0454690Y0314720D01*
G01X0452940Y0307450D01*
G01X0452350Y0300000D01*
G01X0452940Y0292550D01*
G01X0454690Y0285280D01*
G01X0455100Y0284270D01*
G01X0455140Y0267650D01*
G01X0455690Y0265350D01*
G01X0456590Y0263170D01*
G01X0457830Y0261160D01*
G01X0459360Y0259360D01*
G01X0461160Y0257830D01*
G01X0463170Y0256590D01*
G01X0465350Y0255690D01*
G01X0467650Y0255140D01*
G01X0470000Y0255000D01*
G01X0484440Y0255030D01*
G01X0485280Y0254690D01*
G01X0492550Y0252940D01*
G01X0500000Y0252500D01*
G01X0653680Y0252500D01*
G01X0653680Y0000000D01*
G37*
G54D12*
G01X0700000Y0300000D02*
G01X0800000Y0400000D01*
G01X0800000Y0400000D02*
G01X0800000Y0500000D01*
G01X0600000Y0100000D02*
G01X0500000Y0200000D01*
G01X0500000Y0300000D02*
G01X0700000Y0300000D01*
G01X1800000Y0500000D02*
G01X1900000Y0400000D01*
G01X1900000Y0400000D02*
G01X1900000Y0300000D01*
G01X1900000Y0300000D02*
G01X1800000Y0200000D01*
G01X2100000Y0500000D02*
G01X2000000Y0400000D01*
G01X2000000Y0400000D02*
G01X2000000Y0300000D01*
G01X2000000Y0300000D02*
G01X2100000Y0200000D01*
G01X1600000Y0500000D02*
G01X1000000Y0500000D01*
G01X1000000Y0500000D02*
G01X0900000Y0400000D01*
G01X0900000Y0400000D02*
G01X0900000Y0300000D01*
G01X0900000Y0300000D02*
G01X1000000Y0200000D01*
G01X3400000Y0500000D02*
G01X3200000Y0500000D01*
G01X3200000Y0500000D02*
G01X3100000Y0400000D01*
G01X3100000Y0400000D02*
G01X3100000Y0300000D01*
G01X1700000Y0500000D02*
G01X1800000Y0500000D01*
G01X2500000Y0500000D02*
G01X2100000Y0500000D01*
G01X2600000Y0500000D02*
G01X2900000Y0500000D01*
G01X2900000Y0500000D02*
G01X3000000Y0400000D01*
G01X3000000Y0400000D02*
G01X3000000Y0300000D01*
G01X3000000Y0300000D02*
G01X2900000Y0200000D01*
G01X3100000Y0300000D02*
G01X3200000Y0200000D01*
G01X4500000Y0100000D02*
G01X0600000Y0100000D01*
G01X4500000Y0300000D02*
G01X4400000Y0300000D01*
G01X4000000Y0300000D02*
G01X4000000Y0200000D01*
G01X4500000Y0400000D02*
G01X4600000Y0400000D01*
G01X4400000Y0300000D02*
G01X4300000Y0400000D01*
G01X4300000Y0400000D02*
G01X4100000Y0400000D01*
G01X4100000Y0400000D02*
G01X4000000Y0300000D01*
G01X4600000Y0400000D02*
G01X4600000Y0200000D01*
G01X4600000Y0200000D02*
G01X4500000Y0100000D01*
G54D11*
G36*
G01X2560000Y0540000D02*
G01X2560000Y0460000D01*
G01X2640000Y0460000D01*
G01X2640000Y0540000D01*
G01X2560000Y0540000D01*
G37*
G54D13*
G01X2500000Y0500000D03*
G54D14*
G01X3100000Y0400000D03*
G01X3000000Y0400000D03*
G54D11*
G36*
G01X3160000Y0240000D02*
G01X3160000Y0160000D01*
G01X3240000Y0160000D01*
G01X3240000Y0240000D01*
G01X3160000Y0240000D01*
G37*
G54D13*
G01X4000000Y0200000D03*
G01X3400000Y0500000D03*
G54D11*
G36*
G01X3072500Y0127500D02*
G01X3072500Y0072500D01*
G01X3127500Y0072500D01*
G01X3127500Y0127500D01*
G01X3072500Y0127500D01*
G37*
G36*
G01X2972500Y0127500D02*
G01X2972500Y0072500D01*
G01X3027500Y0072500D01*
G01X3027500Y0127500D01*
G01X2972500Y0127500D01*
G37*
G54D13*
G01X2900000Y0200000D03*
G54D11*
G36*
G01X4072500Y0127500D02*
G01X4072500Y0072500D01*
G01X4127500Y0072500D01*
G01X4127500Y0127500D01*
G01X4072500Y0127500D01*
G37*
G54D15*
G01X4700000Y0100000D03*
G54D14*
G01X4100000Y0400000D03*
G54D11*
G36*
G01X4470000Y0330000D02*
G01X4470000Y0270000D01*
G01X4530000Y0270000D01*
G01X4530000Y0330000D01*
G01X4470000Y0330000D01*
G37*
G54D16*
G01X4500000Y0400000D03*
G54D15*
G01X4700000Y0500000D03*
G54D11*
G36*
G01X1660000Y0540000D02*
G01X1660000Y0460000D01*
G01X1740000Y0460000D01*
G01X1740000Y0540000D01*
G01X1660000Y0540000D01*
G37*
G36*
G01X0760000Y0540000D02*
G01X0760000Y0460000D01*
G01X0840000Y0460000D01*
G01X0840000Y0540000D01*
G01X0760000Y0540000D01*
G37*
G54D13*
G01X1600000Y0500000D03*
G54D15*
G01X0300000Y0500000D03*
G54D11*
G36*
G01X0772500Y0127500D02*
G01X0772500Y0072500D01*
G01X0827500Y0072500D01*
G01X0827500Y0127500D01*
G01X0772500Y0127500D01*
G37*
G54D15*
G01X0300000Y0100000D03*
G54D14*
G01X0800000Y0400000D03*
G54D11*
G36*
G01X0470000Y0330000D02*
G01X0470000Y0270000D01*
G01X0530000Y0270000D01*
G01X0530000Y0330000D01*
G01X0470000Y0330000D01*
G37*
G54D16*
G01X0500000Y0200000D03*
G54D11*
G36*
G01X0872500Y0127500D02*
G01X0872500Y0072500D01*
G01X0927500Y0072500D01*
G01X0927500Y0127500D01*
G01X0872500Y0127500D01*
G37*
G36*
G01X0960000Y0240000D02*
G01X0960000Y0160000D01*
G01X1040000Y0160000D01*
G01X1040000Y0240000D01*
G01X0960000Y0240000D01*
G37*
G54D14*
G01X0900000Y0400000D03*
G54D11*
G36*
G01X1972500Y0127500D02*
G01X1972500Y0072500D01*
G01X2027500Y0072500D01*
G01X2027500Y0127500D01*
G01X1972500Y0127500D01*
G37*
G54D14*
G01X2000000Y0400000D03*
G54D11*
G36*
G01X1872500Y0127500D02*
G01X1872500Y0072500D01*
G01X1927500Y0072500D01*
G01X1927500Y0127500D01*
G01X1872500Y0127500D01*
G37*
G54D14*
G01X1900000Y0400000D03*
G54D11*
G36*
G01X2060000Y0240000D02*
G01X2060000Y0160000D01*
G01X2140000Y0160000D01*
G01X2140000Y0240000D01*
G01X2060000Y0240000D01*
G37*
G54D13*
G01X1800000Y0200000D03*
G01X0000000Y0000000D02*
G54D21*
G01X0000000Y0600000D02*
G01X5000000Y0600000D01*
G01X5000000Y0600000D02*
G01X5000000Y0000000D01*
G01X0000000Y0600000D02*
G01X0000000Y0000000D01*
G01X0000000Y0000000D02*
G01X5000000Y0000000D01*
G01X0000000Y0000000D02*
G54D11*
G36*
G01X2557000Y0543000D02*
G01X2557000Y0457000D01*
G01X2643000Y0457000D01*
G01X2643000Y0543000D01*
G01X2557000Y0543000D01*
G37*
G54D22*
G01X2500000Y0500000D03*
G54D23*
G01X3100000Y0400000D03*
G01X3000000Y0400000D03*
G54D11*
G36*
G01X3157000Y0243000D02*
G01X3157000Y0157000D01*
G01X3243000Y0157000D01*
G01X3243000Y0243000D01*
G01X3157000Y0243000D01*
G37*
G54D22*
G01X4000000Y0200000D03*
G01X3400000Y0500000D03*
G54D11*
G36*
G01X3069500Y0130500D02*
G01X3069500Y0069500D01*
G01X3130500Y0069500D01*
G01X3130500Y0130500D01*
G01X3069500Y0130500D01*
G37*
G36*
G01X2969500Y0130500D02*
G01X2969500Y0069500D01*
G01X3030500Y0069500D01*
G01X3030500Y0130500D01*
G01X2969500Y0130500D01*
G37*
G54D22*
G01X2900000Y0200000D03*
G54D11*
G36*
G01X4069500Y0130500D02*
G01X4069500Y0069500D01*
G01X4130500Y0069500D01*
G01X4130500Y0130500D01*
G01X4069500Y0130500D01*
G37*
G54D24*
G01X4700000Y0100000D03*
G54D23*
G01X4100000Y0400000D03*
G54D11*
G36*
G01X4467000Y0333000D02*
G01X4467000Y0267000D01*
G01X4533000Y0267000D01*
G01X4533000Y0333000D01*
G01X4467000Y0333000D01*
G37*
G54D25*
G01X4500000Y0400000D03*
G54D24*
G01X4700000Y0500000D03*
G54D11*
G36*
G01X1657000Y0543000D02*
G01X1657000Y0457000D01*
G01X1743000Y0457000D01*
G01X1743000Y0543000D01*
G01X1657000Y0543000D01*
G37*
G36*
G01X0757000Y0543000D02*
G01X0757000Y0457000D01*
G01X0843000Y0457000D01*
G01X0843000Y0543000D01*
G01X0757000Y0543000D01*
G37*
G54D22*
G01X1600000Y0500000D03*
G54D24*
G01X0300000Y0500000D03*
G54D11*
G36*
G01X0769500Y0130500D02*
G01X0769500Y0069500D01*
G01X0830500Y0069500D01*
G01X0830500Y0130500D01*
G01X0769500Y0130500D01*
G37*
G54D24*
G01X0300000Y0100000D03*
G54D23*
G01X0800000Y0400000D03*
G54D11*
G36*
G01X0467000Y0333000D02*
G01X0467000Y0267000D01*
G01X0533000Y0267000D01*
G01X0533000Y0333000D01*
G01X0467000Y0333000D01*
G37*
G54D25*
G01X0500000Y0200000D03*
G54D11*
G36*
G01X0869500Y0130500D02*
G01X0869500Y0069500D01*
G01X0930500Y0069500D01*
G01X0930500Y0130500D01*
G01X0869500Y0130500D01*
G37*
G36*
G01X0957000Y0243000D02*
G01X0957000Y0157000D01*
G01X1043000Y0157000D01*
G01X1043000Y0243000D01*
G01X0957000Y0243000D01*
G37*
G54D23*
G01X0900000Y0400000D03*
G54D11*
G36*
G01X1969500Y0130500D02*
G01X1969500Y0069500D01*
G01X2030500Y0069500D01*
G01X2030500Y0130500D01*
G01X1969500Y0130500D01*
G37*
G54D23*
G01X2000000Y0400000D03*
G54D11*
G36*
G01X1869500Y0130500D02*
G01X1869500Y0069500D01*
G01X1930500Y0069500D01*
G01X1930500Y0130500D01*
G01X1869500Y0130500D01*
G37*
G54D23*
G01X1900000Y0400000D03*
G54D11*
G36*
G01X2057000Y0243000D02*
G01X2057000Y0157000D01*
G01X2143000Y0157000D01*
G01X2143000Y0243000D01*
G01X2057000Y0243000D01*
G37*
G54D22*
G01X1800000Y0200000D03*
G01X0000000Y0000000D02*
G54D18*
G01X0800000Y0400000D03*
G01X0800000Y0100000D03*
G01X0900000Y0400000D03*
G01X0900000Y0100000D03*
G01X1900000Y0400000D03*
G01X1900000Y0100000D03*
G01X2000000Y0400000D03*
G01X2000000Y0100000D03*
G01X3000000Y0400000D03*
G01X3000000Y0100000D03*
G01X3100000Y0400000D03*
G01X3100000Y0100000D03*
G01X4100000Y0400000D03*
G01X4100000Y0100000D03*
G54D20*
G01X0500000Y0300000D03*
G01X0500000Y0200000D03*
G01X4500000Y0400000D03*
G01X4500000Y0300000D03*
G54D17*
G01X0800000Y0500000D03*
G01X1000000Y0200000D03*
G01X1600000Y0500000D03*
G01X1700000Y0500000D03*
G01X1800000Y0200000D03*
G01X2100000Y0200000D03*
G01X2500000Y0500000D03*
G01X2600000Y0500000D03*
G01X2900000Y0200000D03*
G01X3200000Y0200000D03*
G01X3400000Y0500000D03*
G01X4000000Y0200000D03*
G54D19*
G01X0300000Y0500000D03*
G01X0300000Y0100000D03*
G01X4700000Y0500000D03*
G01X4700000Y0100000D03*
M02*
