G04 This is an RS-274x file exported by *
G04 gerbv version 2.7.0 *
G04 More information is available about gerbv at *
G04 http://gerbv.geda-project.org/ *
G04 --End of header info--*
%MOIN*%
%FSLAX36Y36*%
%IPPOS*%
G04 --Define apertures--*
%ADD10C,0.0100*%
%ADD11C,0.0001*%
%ADD12C,0.0800*%
%ADD13C,0.0550*%
%ADD14C,0.1000*%
%ADD15C,0.0600*%
%ADD16C,0.0500*%
%ADD17C,0.0300*%
%ADD18C,0.0810*%
%ADD19C,0.0350*%
%ADD20C,0.0060*%
%ADD21C,0.0860*%
%ADD22C,0.0610*%
%ADD23C,0.1060*%
%ADD24C,0.0660*%
G04 --Start main section--*
G01X0000000Y0000000D02*
G54D11*
G36*
G01X2560000Y0540000D02*
G01X2560000Y0460000D01*
G01X2640000Y0460000D01*
G01X2640000Y0540000D01*
G01X2560000Y0540000D01*
G37*
G54D12*
G01X2500000Y0500000D03*
G54D13*
G01X3100000Y0400000D03*
G01X3000000Y0400000D03*
G54D11*
G36*
G01X3160000Y0240000D02*
G01X3160000Y0160000D01*
G01X3240000Y0160000D01*
G01X3240000Y0240000D01*
G01X3160000Y0240000D01*
G37*
G54D12*
G01X4000000Y0200000D03*
G01X3400000Y0500000D03*
G54D11*
G36*
G01X3072500Y0127500D02*
G01X3072500Y0072500D01*
G01X3127500Y0072500D01*
G01X3127500Y0127500D01*
G01X3072500Y0127500D01*
G37*
G36*
G01X2972500Y0127500D02*
G01X2972500Y0072500D01*
G01X3027500Y0072500D01*
G01X3027500Y0127500D01*
G01X2972500Y0127500D01*
G37*
G54D12*
G01X2900000Y0200000D03*
G54D11*
G36*
G01X4072500Y0127500D02*
G01X4072500Y0072500D01*
G01X4127500Y0072500D01*
G01X4127500Y0127500D01*
G01X4072500Y0127500D01*
G37*
G54D14*
G01X4700000Y0100000D03*
G54D13*
G01X4100000Y0400000D03*
G54D11*
G36*
G01X4470000Y0330000D02*
G01X4470000Y0270000D01*
G01X4530000Y0270000D01*
G01X4530000Y0330000D01*
G01X4470000Y0330000D01*
G37*
G54D15*
G01X4500000Y0400000D03*
G54D14*
G01X4700000Y0500000D03*
G54D11*
G36*
G01X1660000Y0540000D02*
G01X1660000Y0460000D01*
G01X1740000Y0460000D01*
G01X1740000Y0540000D01*
G01X1660000Y0540000D01*
G37*
G36*
G01X0760000Y0540000D02*
G01X0760000Y0460000D01*
G01X0840000Y0460000D01*
G01X0840000Y0540000D01*
G01X0760000Y0540000D01*
G37*
G54D12*
G01X1600000Y0500000D03*
G54D14*
G01X0300000Y0500000D03*
G54D11*
G36*
G01X0772500Y0127500D02*
G01X0772500Y0072500D01*
G01X0827500Y0072500D01*
G01X0827500Y0127500D01*
G01X0772500Y0127500D01*
G37*
G54D14*
G01X0300000Y0100000D03*
G54D13*
G01X0800000Y0400000D03*
G54D11*
G36*
G01X0470000Y0330000D02*
G01X0470000Y0270000D01*
G01X0530000Y0270000D01*
G01X0530000Y0330000D01*
G01X0470000Y0330000D01*
G37*
G54D15*
G01X0500000Y0200000D03*
G54D11*
G36*
G01X0872500Y0127500D02*
G01X0872500Y0072500D01*
G01X0927500Y0072500D01*
G01X0927500Y0127500D01*
G01X0872500Y0127500D01*
G37*
G36*
G01X0960000Y0240000D02*
G01X0960000Y0160000D01*
G01X1040000Y0160000D01*
G01X1040000Y0240000D01*
G01X0960000Y0240000D01*
G37*
G54D13*
G01X0900000Y0400000D03*
G54D11*
G36*
G01X1972500Y0127500D02*
G01X1972500Y0072500D01*
G01X2027500Y0072500D01*
G01X2027500Y0127500D01*
G01X1972500Y0127500D01*
G37*
G54D13*
G01X2000000Y0400000D03*
G54D11*
G36*
G01X1872500Y0127500D02*
G01X1872500Y0072500D01*
G01X1927500Y0072500D01*
G01X1927500Y0127500D01*
G01X1872500Y0127500D01*
G37*
G54D13*
G01X1900000Y0400000D03*
G54D11*
G36*
G01X2060000Y0240000D02*
G01X2060000Y0160000D01*
G01X2140000Y0160000D01*
G01X2140000Y0240000D01*
G01X2060000Y0240000D01*
G37*
G54D12*
G01X1800000Y0200000D03*
G01X0000000Y0000000D02*
G54D20*
G01X0000000Y0600000D02*
G01X5000000Y0600000D01*
G01X5000000Y0600000D02*
G01X5000000Y0000000D01*
G01X0000000Y0600000D02*
G01X0000000Y0000000D01*
G01X0000000Y0000000D02*
G01X5000000Y0000000D01*
G01X0000000Y0000000D02*
G54D11*
G36*
G01X2557000Y0543000D02*
G01X2557000Y0457000D01*
G01X2643000Y0457000D01*
G01X2643000Y0543000D01*
G01X2557000Y0543000D01*
G37*
G54D21*
G01X2500000Y0500000D03*
G54D22*
G01X3100000Y0400000D03*
G01X3000000Y0400000D03*
G54D11*
G36*
G01X3157000Y0243000D02*
G01X3157000Y0157000D01*
G01X3243000Y0157000D01*
G01X3243000Y0243000D01*
G01X3157000Y0243000D01*
G37*
G54D21*
G01X4000000Y0200000D03*
G01X3400000Y0500000D03*
G54D11*
G36*
G01X3069500Y0130500D02*
G01X3069500Y0069500D01*
G01X3130500Y0069500D01*
G01X3130500Y0130500D01*
G01X3069500Y0130500D01*
G37*
G36*
G01X2969500Y0130500D02*
G01X2969500Y0069500D01*
G01X3030500Y0069500D01*
G01X3030500Y0130500D01*
G01X2969500Y0130500D01*
G37*
G54D21*
G01X2900000Y0200000D03*
G54D11*
G36*
G01X4069500Y0130500D02*
G01X4069500Y0069500D01*
G01X4130500Y0069500D01*
G01X4130500Y0130500D01*
G01X4069500Y0130500D01*
G37*
G54D23*
G01X4700000Y0100000D03*
G54D22*
G01X4100000Y0400000D03*
G54D11*
G36*
G01X4467000Y0333000D02*
G01X4467000Y0267000D01*
G01X4533000Y0267000D01*
G01X4533000Y0333000D01*
G01X4467000Y0333000D01*
G37*
G54D24*
G01X4500000Y0400000D03*
G54D23*
G01X4700000Y0500000D03*
G54D11*
G36*
G01X1657000Y0543000D02*
G01X1657000Y0457000D01*
G01X1743000Y0457000D01*
G01X1743000Y0543000D01*
G01X1657000Y0543000D01*
G37*
G36*
G01X0757000Y0543000D02*
G01X0757000Y0457000D01*
G01X0843000Y0457000D01*
G01X0843000Y0543000D01*
G01X0757000Y0543000D01*
G37*
G54D21*
G01X1600000Y0500000D03*
G54D23*
G01X0300000Y0500000D03*
G54D11*
G36*
G01X0769500Y0130500D02*
G01X0769500Y0069500D01*
G01X0830500Y0069500D01*
G01X0830500Y0130500D01*
G01X0769500Y0130500D01*
G37*
G54D23*
G01X0300000Y0100000D03*
G54D22*
G01X0800000Y0400000D03*
G54D11*
G36*
G01X0467000Y0333000D02*
G01X0467000Y0267000D01*
G01X0533000Y0267000D01*
G01X0533000Y0333000D01*
G01X0467000Y0333000D01*
G37*
G54D24*
G01X0500000Y0200000D03*
G54D11*
G36*
G01X0869500Y0130500D02*
G01X0869500Y0069500D01*
G01X0930500Y0069500D01*
G01X0930500Y0130500D01*
G01X0869500Y0130500D01*
G37*
G36*
G01X0957000Y0243000D02*
G01X0957000Y0157000D01*
G01X1043000Y0157000D01*
G01X1043000Y0243000D01*
G01X0957000Y0243000D01*
G37*
G54D22*
G01X0900000Y0400000D03*
G54D11*
G36*
G01X1969500Y0130500D02*
G01X1969500Y0069500D01*
G01X2030500Y0069500D01*
G01X2030500Y0130500D01*
G01X1969500Y0130500D01*
G37*
G54D22*
G01X2000000Y0400000D03*
G54D11*
G36*
G01X1869500Y0130500D02*
G01X1869500Y0069500D01*
G01X1930500Y0069500D01*
G01X1930500Y0130500D01*
G01X1869500Y0130500D01*
G37*
G54D22*
G01X1900000Y0400000D03*
G54D11*
G36*
G01X2057000Y0243000D02*
G01X2057000Y0157000D01*
G01X2143000Y0157000D01*
G01X2143000Y0243000D01*
G01X2057000Y0243000D01*
G37*
G54D21*
G01X1800000Y0200000D03*
G01X0000000Y0000000D02*
G54D17*
G01X0800000Y0400000D03*
G01X0800000Y0100000D03*
G01X0900000Y0400000D03*
G01X0900000Y0100000D03*
G01X1900000Y0400000D03*
G01X1900000Y0100000D03*
G01X2000000Y0400000D03*
G01X2000000Y0100000D03*
G01X3000000Y0400000D03*
G01X3000000Y0100000D03*
G01X3100000Y0400000D03*
G01X3100000Y0100000D03*
G01X4100000Y0400000D03*
G01X4100000Y0100000D03*
G54D19*
G01X0500000Y0300000D03*
G01X0500000Y0200000D03*
G01X4500000Y0400000D03*
G01X4500000Y0300000D03*
G54D16*
G01X0800000Y0500000D03*
G01X1000000Y0200000D03*
G01X1600000Y0500000D03*
G01X1700000Y0500000D03*
G01X1800000Y0200000D03*
G01X2100000Y0200000D03*
G01X2500000Y0500000D03*
G01X2600000Y0500000D03*
G01X2900000Y0200000D03*
G01X3200000Y0200000D03*
G01X3400000Y0500000D03*
G01X4000000Y0200000D03*
G54D18*
G01X0300000Y0500000D03*
G01X0300000Y0100000D03*
G01X4700000Y0500000D03*
G01X4700000Y0100000D03*
M02*
