G04 start of page 14 for group -4078 idx -4078 *
G04 Title: (unknown), bottomsilk *
G04 Creator: pcb 4.2.0 *
G04 CreationDate: Tue Jun 16 07:47:16 2020 UTC *
G04 For: commonadmin *
G04 Format: Gerber/RS-274X *
G04 PCB-Dimensions (mil): 6000.00 5000.00 *
G04 PCB-Coordinate-Origin: lower left *
%MOIN*%
%FSLAX25Y25*%
%LNBOTTOMSILK*%
%ADD51C,0.0040*%
%ADD50C,0.0060*%
G54D50*X48500Y38500D02*X49500D01*
X54750Y23500D02*Y48250D01*
X54500Y48500D01*
G54D51*X47026Y1350D02*X49026D01*
X49526Y1850D01*
Y2850D01*
X49026Y3350D02*X49526Y2850D01*
X47526Y3350D02*X49026D01*
X47526Y1350D02*Y5350D01*
X48326Y3350D02*X49526Y5350D01*
X50726Y1850D02*X51226Y1350D01*
X52726D01*
X53226Y1850D01*
Y2850D01*
X50726Y5350D02*X53226Y2850D01*
X50726Y5350D02*X53226D01*
X50600Y7350D02*Y11350D01*
X52600D01*
X53800Y9150D02*X55300D01*
X53800Y11350D02*X55800D01*
X53800Y7350D02*Y11350D01*
Y7350D02*X55800D01*
X57500D02*Y11350D01*
X58800Y7350D02*X59500Y8050D01*
Y10650D01*
X58800Y11350D02*X59500Y10650D01*
X57000Y11350D02*X58800D01*
X57000Y7350D02*X58800D01*
X60700Y7850D02*X61200Y7350D01*
X62700D01*
X63200Y7850D01*
Y8850D01*
X60700Y11350D02*X63200Y8850D01*
X60700Y11350D02*X63200D01*
M02*
